<?xml version="1.0" encoding="us-ascii" standalone="no"?><svg xmlns="http://www.w3.org/2000/svg" xmlns:xlink="http://www.w3.org/1999/xlink" contentStyleType="text/css" height="2762px" preserveAspectRatio="none" style="width:1349px;height:2762px;background:#FFFFFF;" version="1.1" viewBox="0 0 1349 2762" width="1349px" zoomAndPan="magnify"><defs/><g><text fill="#000000" font-family="Arial" font-size="22" font-weight="bold" lengthAdjust="spacing" textLength="271" x="537.5" y="38.5181">JWT Authentication Flow</text><rect fill="#FFFFFF" height="275.837" style="stroke:#000000;stroke-width:1.0;" width="693" x="108" y="981.4751"/><rect fill="#FFFFFF" height="158.9094" style="stroke:none;stroke-width:1.0;" width="693" x="108" y="1098.4026"/><rect fill="#FFFFFF" height="307.8008" style="stroke:#000000;stroke-width:1.0;" width="1095" x="108" y="2139.8049"/><rect fill="#FFFFFF" height="74.9457" style="stroke:none;stroke-width:1.0;" width="1095" x="108" y="2372.66"/><line style="stroke:#000000;stroke-width:1.0;" x1="25" x2="25" y1="131.946" y2="2682.4246"/><line style="stroke:#000000;stroke-width:1.0;" x1="185" x2="185" y1="131.946" y2="2682.4246"/><line style="stroke:#000000;stroke-width:1.0;" x1="438" x2="438" y1="131.946" y2="2682.4246"/><line style="stroke:#000000;stroke-width:1.0;" x1="621" x2="621" y1="131.946" y2="2682.4246"/><line style="stroke:#000000;stroke-width:1.0;" x1="796" x2="796" y1="131.946" y2="2682.4246"/><line style="stroke:#000000;stroke-width:1.0;" x1="1044" x2="1044" y1="131.946" y2="2682.4246"/><line style="stroke:#000000;stroke-width:1.0;" x1="1144" x2="1144" y1="131.946" y2="2682.4246"/><text fill="#000000" font-family="Arial" font-size="11" lengthAdjust="spacing" textLength="24" x="10" y="128.723">User</text><ellipse cx="25" cy="64.9641" fill="#FFFFFF" rx="8" ry="8" style="stroke:#000000;stroke-width:1.0;"/><path d="M25,72.9641 L25,99.9641 M12,80.9641 L38,80.9641 M25,99.9641 L12,114.9641 M25,99.9641 L38,114.9641 " fill="none" style="stroke:#000000;stroke-width:1.0;"/><text fill="#000000" font-family="Arial" font-size="11" lengthAdjust="spacing" textLength="24" x="10" y="2693.1835">User</text><ellipse cx="25" cy="2705.4065" fill="#FFFFFF" rx="8" ry="8" style="stroke:#000000;stroke-width:1.0;"/><path d="M25,2713.4065 L25,2740.4065 M12,2721.4065 L38,2721.4065 M25,2740.4065 L12,2755.4065 M25,2740.4065 L38,2755.4065 " fill="none" style="stroke:#000000;stroke-width:1.0;"/><rect fill="#FFFFFF" height="28.9819" rx="2.5" ry="2.5" style="stroke:#000000;stroke-width:1.0;" width="114" x="128" y="101.9641"/><text fill="#000000" font-family="Arial" font-size="11" lengthAdjust="spacing" textLength="100" x="135" y="120.723">Frontend (Angular)</text><rect fill="#FFFFFF" height="28.9819" rx="2.5" ry="2.5" style="stroke:#000000;stroke-width:1.0;" width="114" x="128" y="2681.4246"/><text fill="#000000" font-family="Arial" font-size="11" lengthAdjust="spacing" textLength="100" x="135" y="2700.1835">Frontend (Angular)</text><rect fill="#FFFFFF" height="28.9819" rx="2.5" ry="2.5" style="stroke:#000000;stroke-width:1.0;" width="80" x="398" y="101.9641"/><text fill="#000000" font-family="Arial" font-size="11" lengthAdjust="spacing" textLength="66" x="405" y="120.723">API Gateway</text><rect fill="#FFFFFF" height="28.9819" rx="2.5" ry="2.5" style="stroke:#000000;stroke-width:1.0;" width="80" x="398" y="2681.4246"/><text fill="#000000" font-family="Arial" font-size="11" lengthAdjust="spacing" textLength="66" x="405" y="2700.1835">API Gateway</text><rect fill="#FFFFFF" height="28.9819" rx="2.5" ry="2.5" style="stroke:#000000;stroke-width:1.0;" width="104" x="569" y="101.9641"/><text fill="#000000" font-family="Arial" font-size="11" lengthAdjust="spacing" textLength="90" x="576" y="120.723">Auth Middleware</text><rect fill="#FFFFFF" height="28.9819" rx="2.5" ry="2.5" style="stroke:#000000;stroke-width:1.0;" width="104" x="569" y="2681.4246"/><text fill="#000000" font-family="Arial" font-size="11" lengthAdjust="spacing" textLength="90" x="576" y="2700.1835">Auth Middleware</text><rect fill="#FFFFFF" height="28.9819" rx="2.5" ry="2.5" style="stroke:#000000;stroke-width:1.0;" width="96" x="748" y="101.9641"/><text fill="#000000" font-family="Arial" font-size="11" lengthAdjust="spacing" textLength="82" x="755" y="120.723">Auth Controller</text><rect fill="#FFFFFF" height="28.9819" rx="2.5" ry="2.5" style="stroke:#000000;stroke-width:1.0;" width="96" x="748" y="2681.4246"/><text fill="#000000" font-family="Arial" font-size="11" lengthAdjust="spacing" textLength="82" x="755" y="2700.1835">Auth Controller</text><rect fill="#FFFFFF" height="28.9819" rx="2.5" ry="2.5" style="stroke:#000000;stroke-width:1.0;" width="62" x="1013" y="101.9641"/><text fill="#000000" font-family="Arial" font-size="11" lengthAdjust="spacing" textLength="48" x="1020" y="120.723">Database</text><rect fill="#FFFFFF" height="28.9819" rx="2.5" ry="2.5" style="stroke:#000000;stroke-width:1.0;" width="62" x="1013" y="2681.4246"/><text fill="#000000" font-family="Arial" font-size="11" lengthAdjust="spacing" textLength="48" x="1020" y="2700.1835">Database</text><rect fill="#FFFFFF" height="28.9819" rx="2.5" ry="2.5" style="stroke:#000000;stroke-width:1.0;" width="78" x="1105" y="101.9641"/><text fill="#000000" font-family="Arial" font-size="11" lengthAdjust="spacing" textLength="64" x="1112" y="120.723">JWT Handler</text><rect fill="#FFFFFF" height="28.9819" rx="2.5" ry="2.5" style="stroke:#000000;stroke-width:1.0;" width="78" x="1105" y="2681.4246"/><text fill="#000000" font-family="Arial" font-size="11" lengthAdjust="spacing" textLength="64" x="1112" y="2700.1835">JWT Handler</text><rect fill="#FFFFFF" height="3" style="stroke:#FFFFFF;stroke-width:1.0;" width="1337" x="5" y="162.4369"/><line style="stroke:#000000;stroke-width:0.5;" x1="5" x2="1342" y1="162.4369" y2="162.4369"/><line style="stroke:#000000;stroke-width:0.5;" x1="5" x2="1342" y1="165.4369" y2="165.4369"/><rect fill="#FFFFFF" height="22.9819" style="stroke:#000000;stroke-width:1.0;" width="75" x="636" y="151.946"/><text fill="#000000" font-family="Arial" font-size="11" font-weight="bold" lengthAdjust="spacing" textLength="58" x="642" y="167.7049">Login Flow</text><polygon fill="#000000" points="173,201.9098,183,205.9098,173,209.9098,177,205.9098" style="stroke:#000000;stroke-width:1.0;"/><line style="stroke:#000000;stroke-width:1.0;" x1="25" x2="179" y1="205.9098" y2="205.9098"/><text fill="#000000" font-family="Arial" font-size="11" lengthAdjust="spacing" textLength="88" x="32" y="200.6868">Enter credentials</text><line style="stroke:#000000;stroke-width:1.0;" x1="185" x2="227" y1="234.8917" y2="234.8917"/><line style="stroke:#000000;stroke-width:1.0;" x1="227" x2="227" y1="234.8917" y2="247.8917"/><line style="stroke:#000000;stroke-width:1.0;" x1="186" x2="227" y1="247.8917" y2="247.8917"/><polygon fill="#000000" points="196,243.8917,186,247.8917,196,251.8917,192,247.8917" style="stroke:#000000;stroke-width:1.0;"/><text fill="#000000" font-family="Arial" font-size="11" lengthAdjust="spacing" textLength="112" x="192" y="229.6687">Validate input format</text><polygon fill="#000000" points="426,287.8554,436,291.8554,426,295.8554,430,291.8554" style="stroke:#000000;stroke-width:1.0;"/><line style="stroke:#000000;stroke-width:1.0;" x1="185" x2="432" y1="291.8554" y2="291.8554"/><text fill="#000000" font-family="Arial" font-size="11" lengthAdjust="spacing" textLength="110" x="192" y="271.6506">POST /api/auth/login</text><text fill="#000000" font-family="Arial" font-size="11" lengthAdjust="spacing" textLength="117" x="192" y="286.6325">{username, password}</text><polygon fill="#000000" points="609,316.8373,619,320.8373,609,324.8373,613,320.8373" style="stroke:#000000;stroke-width:1.0;"/><line style="stroke:#000000;stroke-width:1.0;" x1="438" x2="615" y1="320.8373" y2="320.8373"/><text fill="#000000" font-family="Arial" font-size="11" lengthAdjust="spacing" textLength="159" x="445" y="315.6143">Check authentication required</text><polygon fill="#000000" points="784,345.8192,794,349.8192,784,353.8192,788,349.8192" style="stroke:#000000;stroke-width:1.0;"/><line style="stroke:#000000;stroke-width:1.0;" x1="621" x2="790" y1="349.8192" y2="349.8192"/><text fill="#000000" font-family="Arial" font-size="11" lengthAdjust="spacing" textLength="73" x="628" y="344.5962">login(req, res)</text><line style="stroke:#000000;stroke-width:1.0;" x1="796" x2="838" y1="378.8011" y2="378.8011"/><line style="stroke:#000000;stroke-width:1.0;" x1="838" x2="838" y1="378.8011" y2="391.8011"/><line style="stroke:#000000;stroke-width:1.0;" x1="797" x2="838" y1="391.8011" y2="391.8011"/><polygon fill="#000000" points="807,387.8011,797,391.8011,807,395.8011,803,391.8011" style="stroke:#000000;stroke-width:1.0;"/><text fill="#000000" font-family="Arial" font-size="11" lengthAdjust="spacing" textLength="101" x="803" y="373.5781">validateLoginData()</text><polygon fill="#000000" points="1032,416.783,1042,420.783,1032,424.783,1036,420.783" style="stroke:#000000;stroke-width:1.0;"/><line style="stroke:#000000;stroke-width:1.0;" x1="796" x2="1038" y1="420.783" y2="420.783"/><text fill="#000000" font-family="Arial" font-size="11" lengthAdjust="spacing" textLength="224" x="803" y="415.56">SELECT * FROM users WHERE username = ?</text><polygon fill="#000000" points="807,445.7649,797,449.7649,807,453.7649,803,449.7649" style="stroke:#000000;stroke-width:1.0;"/><line style="stroke:#000000;stroke-width:1.0;stroke-dasharray:2.0,2.0;" x1="801" x2="1043" y1="449.7649" y2="449.7649"/><text fill="#000000" font-family="Arial" font-size="11" lengthAdjust="spacing" textLength="113" x="813" y="444.5419">User record (if found)</text><line style="stroke:#000000;stroke-width:1.0;" x1="796" x2="838" y1="478.7468" y2="478.7468"/><line style="stroke:#000000;stroke-width:1.0;" x1="838" x2="838" y1="478.7468" y2="491.7468"/><line style="stroke:#000000;stroke-width:1.0;" x1="797" x2="838" y1="491.7468" y2="491.7468"/><polygon fill="#000000" points="807,487.7468,797,491.7468,807,495.7468,803,491.7468" style="stroke:#000000;stroke-width:1.0;"/><text fill="#000000" font-family="Arial" font-size="11" lengthAdjust="spacing" textLength="169" x="803" y="473.5238">verifyPassword(password, hash)</text><polygon fill="#000000" points="1132,516.7286,1142,520.7286,1132,524.7286,1136,520.7286" style="stroke:#000000;stroke-width:1.0;"/><line style="stroke:#000000;stroke-width:1.0;" x1="796" x2="1138" y1="520.7286" y2="520.7286"/><text fill="#000000" font-family="Arial" font-size="11" lengthAdjust="spacing" textLength="108" x="803" y="515.5057">generateToken(user)</text><polygon fill="#000000" points="807,545.7105,797,549.7105,807,553.7105,803,549.7105" style="stroke:#000000;stroke-width:1.0;"/><line style="stroke:#000000;stroke-width:1.0;stroke-dasharray:2.0,2.0;" x1="801" x2="1143" y1="549.7105" y2="549.7105"/><text fill="#000000" font-family="Arial" font-size="11" lengthAdjust="spacing" textLength="52" x="813" y="544.4876">JWT token</text><polygon fill="#000000" points="449,574.6924,439,578.6924,449,582.6924,445,578.6924" style="stroke:#000000;stroke-width:1.0;"/><line style="stroke:#000000;stroke-width:1.0;stroke-dasharray:2.0,2.0;" x1="443" x2="795" y1="578.6924" y2="578.6924"/><text fill="#000000" font-family="Arial" font-size="11" lengthAdjust="spacing" textLength="175" x="455" y="573.4694">Response {token, user, expiresAt}</text><polygon fill="#000000" points="196,603.6743,186,607.6743,196,611.6743,192,607.6743" style="stroke:#000000;stroke-width:1.0;"/><line style="stroke:#000000;stroke-width:1.0;stroke-dasharray:2.0,2.0;" x1="190" x2="437" y1="607.6743" y2="607.6743"/><text fill="#000000" font-family="Arial" font-size="11" lengthAdjust="spacing" textLength="101" x="202" y="602.4513">200 OK + JWT token</text><line style="stroke:#000000;stroke-width:1.0;" x1="185" x2="227" y1="636.6562" y2="636.6562"/><line style="stroke:#000000;stroke-width:1.0;" x1="227" x2="227" y1="636.6562" y2="649.6562"/><line style="stroke:#000000;stroke-width:1.0;" x1="186" x2="227" y1="649.6562" y2="649.6562"/><polygon fill="#000000" points="196,645.6562,186,649.6562,196,653.6562,192,649.6562" style="stroke:#000000;stroke-width:1.0;"/><text fill="#000000" font-family="Arial" font-size="11" lengthAdjust="spacing" textLength="95" x="192" y="631.4332">storeToken(token)</text><line style="stroke:#000000;stroke-width:1.0;" x1="185" x2="227" y1="678.6381" y2="678.6381"/><line style="stroke:#000000;stroke-width:1.0;" x1="227" x2="227" y1="678.6381" y2="691.6381"/><line style="stroke:#000000;stroke-width:1.0;" x1="186" x2="227" y1="691.6381" y2="691.6381"/><polygon fill="#000000" points="196,687.6381,186,691.6381,196,695.6381,192,691.6381" style="stroke:#000000;stroke-width:1.0;"/><text fill="#000000" font-family="Arial" font-size="11" lengthAdjust="spacing" textLength="117" x="192" y="673.4151">updateAuthState(user)</text><polygon fill="#000000" points="36,716.62,26,720.62,36,724.62,32,720.62" style="stroke:#000000;stroke-width:1.0;"/><line style="stroke:#000000;stroke-width:1.0;stroke-dasharray:2.0,2.0;" x1="30" x2="184" y1="720.62" y2="720.62"/><text fill="#000000" font-family="Arial" font-size="11" lengthAdjust="spacing" textLength="85" x="42" y="715.397">Login successful</text><rect fill="#FFFFFF" height="3" style="stroke:#FFFFFF;stroke-width:1.0;" width="1337" x="5" y="749.1109"/><line style="stroke:#000000;stroke-width:0.5;" x1="5" x2="1342" y1="749.1109" y2="749.1109"/><line style="stroke:#000000;stroke-width:0.5;" x1="5" x2="1342" y1="752.1109" y2="752.1109"/><rect fill="#FFFFFF" height="22.9819" style="stroke:#000000;stroke-width:1.0;" width="144" x="601.5" y="738.62"/><text fill="#000000" font-family="Arial" font-size="11" font-weight="bold" lengthAdjust="spacing" textLength="127" x="607.5" y="754.3789">Protected API Request</text><polygon fill="#000000" points="173,788.5837,183,792.5837,173,796.5837,177,792.5837" style="stroke:#000000;stroke-width:1.0;"/><line style="stroke:#000000;stroke-width:1.0;" x1="25" x2="179" y1="792.5837" y2="792.5837"/><text fill="#000000" font-family="Arial" font-size="11" lengthAdjust="spacing" textLength="136" x="32" y="787.3608">Access protected resource</text><polygon fill="#000000" points="426,817.5656,436,821.5656,426,825.5656,430,821.5656" style="stroke:#000000;stroke-width:1.0;"/><line style="stroke:#000000;stroke-width:1.0;" x1="185" x2="432" y1="821.5656" y2="821.5656"/><text fill="#000000" font-family="Arial" font-size="11" lengthAdjust="spacing" textLength="229" x="192" y="816.3427">Request with Authorization: Bearer &lt;token&gt;</text><polygon fill="#000000" points="609,846.5475,619,850.5475,609,854.5475,613,850.5475" style="stroke:#000000;stroke-width:1.0;"/><line style="stroke:#000000;stroke-width:1.0;" x1="438" x2="615" y1="850.5475" y2="850.5475"/><text fill="#000000" font-family="Arial" font-size="11" lengthAdjust="spacing" textLength="110" x="445" y="845.3245">requireAuth(req, res)</text><polygon fill="#000000" points="1132,875.5294,1142,879.5294,1132,883.5294,1136,879.5294" style="stroke:#000000;stroke-width:1.0;"/><line style="stroke:#000000;stroke-width:1.0;" x1="621" x2="1138" y1="879.5294" y2="879.5294"/><text fill="#000000" font-family="Arial" font-size="11" lengthAdjust="spacing" textLength="140" x="628" y="874.3064">extractTokenFromHeader()</text><polygon fill="#000000" points="632,904.5113,622,908.5113,632,912.5113,628,908.5113" style="stroke:#000000;stroke-width:1.0;"/><line style="stroke:#000000;stroke-width:1.0;stroke-dasharray:2.0,2.0;" x1="626" x2="1143" y1="908.5113" y2="908.5113"/><text fill="#000000" font-family="Arial" font-size="11" lengthAdjust="spacing" textLength="52" x="638" y="903.2883">JWT token</text><polygon fill="#000000" points="1132,933.4932,1142,937.4932,1132,941.4932,1136,937.4932" style="stroke:#000000;stroke-width:1.0;"/><line style="stroke:#000000;stroke-width:1.0;" x1="621" x2="1138" y1="937.4932" y2="937.4932"/><text fill="#000000" font-family="Arial" font-size="11" lengthAdjust="spacing" textLength="109" x="628" y="932.2702">validateToken(token)</text><polygon fill="#000000" points="632,962.4751,622,966.4751,632,970.4751,628,966.4751" style="stroke:#000000;stroke-width:1.0;"/><line style="stroke:#000000;stroke-width:1.0;stroke-dasharray:2.0,2.0;" x1="626" x2="1143" y1="966.4751" y2="966.4751"/><text fill="#000000" font-family="Arial" font-size="11" lengthAdjust="spacing" textLength="158" x="638" y="961.2521">JWTPayload {userId, role, exp}</text><path d="M108,981.4751 L168,981.4751 L168,988.457 L158,998.457 L108,998.457 L108,981.4751 " fill="#FFFFFF" style="stroke:#000000;stroke-width:1.0;"/><rect fill="none" height="275.837" style="stroke:#000000;stroke-width:1.0;" width="693" x="108" y="981.4751"/><text fill="#000000" font-family="Arial" font-size="11" font-weight="bold" lengthAdjust="spacing" textLength="15" x="123" y="994.234">alt</text><text fill="#000000" font-family="Arial" font-size="11" font-weight="bold" lengthAdjust="spacing" textLength="72" x="183" y="995.234">[Valid Token]</text><line style="stroke:#000000;stroke-width:1.0;" x1="621" x2="663" y1="1019.4388" y2="1019.4388"/><line style="stroke:#000000;stroke-width:1.0;" x1="663" x2="663" y1="1019.4388" y2="1032.4388"/><line style="stroke:#000000;stroke-width:1.0;" x1="622" x2="663" y1="1032.4388" y2="1032.4388"/><polygon fill="#000000" points="632,1028.4388,622,1032.4388,632,1036.4388,628,1032.4388" style="stroke:#000000;stroke-width:1.0;"/><text fill="#000000" font-family="Arial" font-size="11" lengthAdjust="spacing" textLength="161" x="628" y="1014.2159">req.userData["user"] = payload</text><polygon fill="#000000" points="449,1057.4207,439,1061.4207,449,1065.4207,445,1061.4207" style="stroke:#000000;stroke-width:1.0;"/><line style="stroke:#000000;stroke-width:1.0;stroke-dasharray:2.0,2.0;" x1="443" x2="620" y1="1061.4207" y2="1061.4207"/><text fill="#000000" font-family="Arial" font-size="11" lengthAdjust="spacing" textLength="102" x="455" y="1056.1978">true (allow request)</text><polygon fill="#000000" points="196,1086.4026,186,1090.4026,196,1094.4026,192,1090.4026" style="stroke:#000000;stroke-width:1.0;"/><line style="stroke:#000000;stroke-width:1.0;stroke-dasharray:2.0,2.0;" x1="190" x2="437" y1="1090.4026" y2="1090.4026"/><text fill="#000000" font-family="Arial" font-size="11" lengthAdjust="spacing" textLength="137" x="202" y="1085.1796">Process protected request</text><line style="stroke:#000000;stroke-width:1.0;stroke-dasharray:2.0,2.0;" x1="108" x2="801" y1="1099.4026" y2="1099.4026"/><text fill="#000000" font-family="Arial" font-size="11" font-weight="bold" lengthAdjust="spacing" textLength="128" x="113" y="1111.1615">[Invalid/Expired Token]</text><line style="stroke:#000000;stroke-width:1.0;" x1="621" x2="663" y1="1136.3664" y2="1136.3664"/><line style="stroke:#000000;stroke-width:1.0;" x1="663" x2="663" y1="1136.3664" y2="1149.3664"/><line style="stroke:#000000;stroke-width:1.0;" x1="622" x2="663" y1="1149.3664" y2="1149.3664"/><polygon fill="#000000" points="632,1145.3664,622,1149.3664,632,1153.3664,628,1149.3664" style="stroke:#000000;stroke-width:1.0;"/><text fill="#000000" font-family="Arial" font-size="11" lengthAdjust="spacing" textLength="130" x="628" y="1131.1434">return 401 Unauthorized</text><polygon fill="#000000" points="449,1174.3483,439,1178.3483,449,1182.3483,445,1178.3483" style="stroke:#000000;stroke-width:1.0;"/><line style="stroke:#000000;stroke-width:1.0;stroke-dasharray:2.0,2.0;" x1="443" x2="620" y1="1178.3483" y2="1178.3483"/><text fill="#000000" font-family="Arial" font-size="11" lengthAdjust="spacing" textLength="102" x="455" y="1173.1253">false (deny request)</text><polygon fill="#000000" points="196,1203.3302,186,1207.3302,196,1211.3302,192,1207.3302" style="stroke:#000000;stroke-width:1.0;"/><line style="stroke:#000000;stroke-width:1.0;stroke-dasharray:2.0,2.0;" x1="190" x2="437" y1="1207.3302" y2="1207.3302"/><text fill="#000000" font-family="Arial" font-size="11" lengthAdjust="spacing" textLength="93" x="202" y="1202.1072">401 Unauthorized</text><line style="stroke:#000000;stroke-width:1.0;" x1="185" x2="227" y1="1236.3121" y2="1236.3121"/><line style="stroke:#000000;stroke-width:1.0;" x1="227" x2="227" y1="1236.3121" y2="1249.3121"/><line style="stroke:#000000;stroke-width:1.0;" x1="186" x2="227" y1="1249.3121" y2="1249.3121"/><polygon fill="#000000" points="196,1245.3121,186,1249.3121,196,1253.3121,192,1249.3121" style="stroke:#000000;stroke-width:1.0;"/><text fill="#000000" font-family="Arial" font-size="11" lengthAdjust="spacing" textLength="90" x="192" y="1231.0891">redirectToLogin()</text><rect fill="#FFFFFF" height="3" style="stroke:#FFFFFF;stroke-width:1.0;" width="1337" x="5" y="1284.803"/><line style="stroke:#000000;stroke-width:0.5;" x1="5" x2="1342" y1="1284.803" y2="1284.803"/><line style="stroke:#000000;stroke-width:0.5;" x1="5" x2="1342" y1="1287.803" y2="1287.803"/><rect fill="#FFFFFF" height="22.9819" style="stroke:#000000;stroke-width:1.0;" width="125" x="611" y="1274.3121"/><text fill="#000000" font-family="Arial" font-size="11" font-weight="bold" lengthAdjust="spacing" textLength="108" x="617" y="1290.071">Token Refresh Flow</text><polygon fill="#000000" points="426,1339.2577,436,1343.2577,426,1347.2577,430,1343.2577" style="stroke:#000000;stroke-width:1.0;"/><line style="stroke:#000000;stroke-width:1.0;" x1="185" x2="432" y1="1343.2577" y2="1343.2577"/><text fill="#000000" font-family="Arial" font-size="11" lengthAdjust="spacing" textLength="121" x="192" y="1323.0529">POST /api/auth/refresh</text><text fill="#000000" font-family="Arial" font-size="11" lengthAdjust="spacing" textLength="158" x="192" y="1338.0348">Authorization: Bearer &lt;token&gt;</text><polygon fill="#000000" points="1132,1368.2396,1142,1372.2396,1132,1376.2396,1136,1372.2396" style="stroke:#000000;stroke-width:1.0;"/><line style="stroke:#000000;stroke-width:1.0;" x1="438" x2="1138" y1="1372.2396" y2="1372.2396"/><text fill="#000000" font-family="Arial" font-size="11" lengthAdjust="spacing" textLength="109" x="445" y="1367.0166">validateToken(token)</text><polygon fill="#000000" points="449,1397.2215,439,1401.2215,449,1405.2215,445,1401.2215" style="stroke:#000000;stroke-width:1.0;"/><line style="stroke:#000000;stroke-width:1.0;stroke-dasharray:2.0,2.0;" x1="443" x2="1143" y1="1401.2215" y2="1401.2215"/><text fill="#000000" font-family="Arial" font-size="11" lengthAdjust="spacing" textLength="141" x="455" y="1395.9985">Valid payload (but expired)</text><polygon fill="#000000" points="1132,1426.2034,1142,1430.2034,1132,1434.2034,1136,1430.2034" style="stroke:#000000;stroke-width:1.0;"/><line style="stroke:#000000;stroke-width:1.0;" x1="438" x2="1138" y1="1430.2034" y2="1430.2034"/><text fill="#000000" font-family="Arial" font-size="11" lengthAdjust="spacing" textLength="106" x="445" y="1424.9804">refreshToken(token)</text><line style="stroke:#000000;stroke-width:1.0;" x1="1144" x2="1186" y1="1459.1853" y2="1459.1853"/><line style="stroke:#000000;stroke-width:1.0;" x1="1186" x2="1186" y1="1459.1853" y2="1472.1853"/><line style="stroke:#000000;stroke-width:1.0;" x1="1145" x2="1186" y1="1472.1853" y2="1472.1853"/><polygon fill="#000000" points="1155,1468.1853,1145,1472.1853,1155,1476.1853,1151,1472.1853" style="stroke:#000000;stroke-width:1.0;"/><text fill="#000000" font-family="Arial" font-size="11" lengthAdjust="spacing" textLength="184" x="1151" y="1453.9623">validateToken() + extend expiration</text><polygon fill="#000000" points="449,1497.1672,439,1501.1672,449,1505.1672,445,1501.1672" style="stroke:#000000;stroke-width:1.0;"/><line style="stroke:#000000;stroke-width:1.0;stroke-dasharray:2.0,2.0;" x1="443" x2="1143" y1="1501.1672" y2="1501.1672"/><text fill="#000000" font-family="Arial" font-size="11" lengthAdjust="spacing" textLength="78" x="455" y="1495.9442">New JWT token</text><polygon fill="#000000" points="196,1526.1491,186,1530.1491,196,1534.1491,192,1530.1491" style="stroke:#000000;stroke-width:1.0;"/><line style="stroke:#000000;stroke-width:1.0;stroke-dasharray:2.0,2.0;" x1="190" x2="437" y1="1530.1491" y2="1530.1491"/><text fill="#000000" font-family="Arial" font-size="11" lengthAdjust="spacing" textLength="146" x="202" y="1524.9261">Response {token, expiresAt}</text><line style="stroke:#000000;stroke-width:1.0;" x1="185" x2="227" y1="1559.1309" y2="1559.1309"/><line style="stroke:#000000;stroke-width:1.0;" x1="227" x2="227" y1="1559.1309" y2="1572.1309"/><line style="stroke:#000000;stroke-width:1.0;" x1="186" x2="227" y1="1572.1309" y2="1572.1309"/><polygon fill="#000000" points="196,1568.1309,186,1572.1309,196,1576.1309,192,1572.1309" style="stroke:#000000;stroke-width:1.0;"/><text fill="#000000" font-family="Arial" font-size="11" lengthAdjust="spacing" textLength="164" x="192" y="1553.908">updateStoredToken(newToken)</text><rect fill="#FFFFFF" height="3" style="stroke:#FFFFFF;stroke-width:1.0;" width="1337" x="5" y="1600.6219"/><line style="stroke:#000000;stroke-width:0.5;" x1="5" x2="1342" y1="1600.6219" y2="1600.6219"/><line style="stroke:#000000;stroke-width:0.5;" x1="5" x2="1342" y1="1603.6219" y2="1603.6219"/><rect fill="#FFFFFF" height="22.9819" style="stroke:#000000;stroke-width:1.0;" width="84" x="631.5" y="1590.1309"/><text fill="#000000" font-family="Arial" font-size="11" font-weight="bold" lengthAdjust="spacing" textLength="67" x="637.5" y="1605.8899">Logout Flow</text><polygon fill="#000000" points="173,1640.0947,183,1644.0947,173,1648.0947,177,1644.0947" style="stroke:#000000;stroke-width:1.0;"/><line style="stroke:#000000;stroke-width:1.0;" x1="25" x2="179" y1="1644.0947" y2="1644.0947"/><text fill="#000000" font-family="Arial" font-size="11" lengthAdjust="spacing" textLength="38" x="32" y="1638.8717">Logout</text><line style="stroke:#000000;stroke-width:1.0;" x1="185" x2="227" y1="1673.0766" y2="1673.0766"/><line style="stroke:#000000;stroke-width:1.0;" x1="227" x2="227" y1="1673.0766" y2="1686.0766"/><line style="stroke:#000000;stroke-width:1.0;" x1="186" x2="227" y1="1686.0766" y2="1686.0766"/><polygon fill="#000000" points="196,1682.0766,186,1686.0766,196,1690.0766,192,1686.0766" style="stroke:#000000;stroke-width:1.0;"/><text fill="#000000" font-family="Arial" font-size="11" lengthAdjust="spacing" textLength="91" x="192" y="1667.8536">clearStoredAuth()</text><line style="stroke:#000000;stroke-width:1.0;" x1="185" x2="227" y1="1715.0585" y2="1715.0585"/><line style="stroke:#000000;stroke-width:1.0;" x1="227" x2="227" y1="1715.0585" y2="1728.0585"/><line style="stroke:#000000;stroke-width:1.0;" x1="186" x2="227" y1="1728.0585" y2="1728.0585"/><polygon fill="#000000" points="196,1724.0585,186,1728.0585,196,1732.0585,192,1728.0585" style="stroke:#000000;stroke-width:1.0;"/><text fill="#000000" font-family="Arial" font-size="11" lengthAdjust="spacing" textLength="90" x="192" y="1709.8355">redirectToLogin()</text><path d="M190,1741.0585 L190,1795.0585 L324,1795.0585 L324,1751.0585 L314,1741.0585 L190,1741.0585 " fill="#FFFFFF" style="stroke:#000000;stroke-width:1.0;"/><path d="M314,1741.0585 L314,1751.0585 L324,1751.0585 L314,1741.0585 " fill="#FFFFFF" style="stroke:#000000;stroke-width:1.0;"/><text fill="#000000" font-family="Arial" font-size="11" lengthAdjust="spacing" textLength="81" x="196" y="1757.8174">Client-side only</text><text fill="#000000" font-family="Arial" font-size="11" lengthAdjust="spacing" textLength="113" x="196" y="1772.7993">No server call needed</text><text fill="#000000" font-family="Arial" font-size="11" lengthAdjust="spacing" textLength="105" x="196" y="1787.7812">Stateless JWT design</text><rect fill="#FFFFFF" height="3" style="stroke:#FFFFFF;stroke-width:1.0;" width="1337" x="5" y="1821.4951"/><line style="stroke:#000000;stroke-width:0.5;" x1="5" x2="1342" y1="1821.4951" y2="1821.4951"/><line style="stroke:#000000;stroke-width:0.5;" x1="5" x2="1342" y1="1824.4951" y2="1824.4951"/><rect fill="#FFFFFF" height="22.9819" style="stroke:#000000;stroke-width:1.0;" width="114" x="616.5" y="1811.0042"/><text fill="#000000" font-family="Arial" font-size="11" font-weight="bold" lengthAdjust="spacing" textLength="97" x="622.5" y="1826.7631">Registration Flow</text><polygon fill="#000000" points="173,1860.9679,183,1864.9679,173,1868.9679,177,1864.9679" style="stroke:#000000;stroke-width:1.0;"/><line style="stroke:#000000;stroke-width:1.0;" x1="25" x2="179" y1="1864.9679" y2="1864.9679"/><text fill="#000000" font-family="Arial" font-size="11" lengthAdjust="spacing" textLength="93" x="32" y="1859.745">Registration form</text><polygon fill="#000000" points="426,1904.9317,436,1908.9317,426,1912.9317,430,1908.9317" style="stroke:#000000;stroke-width:1.0;"/><line style="stroke:#000000;stroke-width:1.0;" x1="185" x2="432" y1="1908.9317" y2="1908.9317"/><text fill="#000000" font-family="Arial" font-size="11" lengthAdjust="spacing" textLength="124" x="192" y="1888.7268">POST /api/auth/register</text><text fill="#000000" font-family="Arial" font-size="11" lengthAdjust="spacing" textLength="151" x="192" y="1903.7087">{username, email, password}</text><polygon fill="#000000" points="609,1933.9136,619,1937.9136,609,1941.9136,613,1937.9136" style="stroke:#000000;stroke-width:1.0;"/><line style="stroke:#000000;stroke-width:1.0;" x1="438" x2="615" y1="1937.9136" y2="1937.9136"/><text fill="#000000" font-family="Arial" font-size="11" lengthAdjust="spacing" textLength="91" x="445" y="1932.6906">No auth required</text><polygon fill="#000000" points="784,1962.8955,794,1966.8955,784,1970.8955,788,1966.8955" style="stroke:#000000;stroke-width:1.0;"/><line style="stroke:#000000;stroke-width:1.0;" x1="621" x2="790" y1="1966.8955" y2="1966.8955"/><text fill="#000000" font-family="Arial" font-size="11" lengthAdjust="spacing" textLength="87" x="628" y="1961.6725">register(req, res)</text><line style="stroke:#000000;stroke-width:1.0;" x1="796" x2="838" y1="1995.8774" y2="1995.8774"/><line style="stroke:#000000;stroke-width:1.0;" x1="838" x2="838" y1="1995.8774" y2="2008.8774"/><line style="stroke:#000000;stroke-width:1.0;" x1="797" x2="838" y1="2008.8774" y2="2008.8774"/><polygon fill="#000000" points="807,2004.8774,797,2008.8774,807,2012.8774,803,2008.8774" style="stroke:#000000;stroke-width:1.0;"/><text fill="#000000" font-family="Arial" font-size="11" lengthAdjust="spacing" textLength="135" x="803" y="1990.6544">validateRegistrationData()</text><polygon fill="#000000" points="1032,2033.8593,1042,2037.8593,1032,2041.8593,1036,2037.8593" style="stroke:#000000;stroke-width:1.0;"/><line style="stroke:#000000;stroke-width:1.0;" x1="796" x2="1038" y1="2037.8593" y2="2037.8593"/><text fill="#000000" font-family="Arial" font-size="11" lengthAdjust="spacing" textLength="128" x="803" y="2032.6363">Check if username exists</text><polygon fill="#000000" points="807,2062.8411,797,2066.8411,807,2070.8411,803,2066.8411" style="stroke:#000000;stroke-width:1.0;"/><line style="stroke:#000000;stroke-width:1.0;stroke-dasharray:2.0,2.0;" x1="801" x2="1043" y1="2066.8411" y2="2066.8411"/><text fill="#000000" font-family="Arial" font-size="11" lengthAdjust="spacing" textLength="84" x="813" y="2061.6182">Exists/Not exists</text><polygon fill="#000000" points="1032,2091.823,1042,2095.823,1032,2099.823,1036,2095.823" style="stroke:#000000;stroke-width:1.0;"/><line style="stroke:#000000;stroke-width:1.0;" x1="796" x2="1038" y1="2095.823" y2="2095.823"/><text fill="#000000" font-family="Arial" font-size="11" lengthAdjust="spacing" textLength="104" x="803" y="2090.6001">Check if email exists</text><polygon fill="#000000" points="807,2120.8049,797,2124.8049,807,2128.8049,803,2124.8049" style="stroke:#000000;stroke-width:1.0;"/><line style="stroke:#000000;stroke-width:1.0;stroke-dasharray:2.0,2.0;" x1="801" x2="1043" y1="2124.8049" y2="2124.8049"/><text fill="#000000" font-family="Arial" font-size="11" lengthAdjust="spacing" textLength="84" x="813" y="2119.5819">Exists/Not exists</text><path d="M108,2139.8049 L168,2139.8049 L168,2146.7868 L158,2156.7868 L108,2156.7868 L108,2139.8049 " fill="#FFFFFF" style="stroke:#000000;stroke-width:1.0;"/><rect fill="none" height="307.8008" style="stroke:#000000;stroke-width:1.0;" width="1095" x="108" y="2139.8049"/><text fill="#000000" font-family="Arial" font-size="11" font-weight="bold" lengthAdjust="spacing" textLength="15" x="123" y="2152.5638">alt</text><text fill="#000000" font-family="Arial" font-size="11" font-weight="bold" lengthAdjust="spacing" textLength="107" x="183" y="2153.5638">[Valid Registration]</text><line style="stroke:#000000;stroke-width:1.0;" x1="796" x2="838" y1="2177.7687" y2="2177.7687"/><line style="stroke:#000000;stroke-width:1.0;" x1="838" x2="838" y1="2177.7687" y2="2190.7687"/><line style="stroke:#000000;stroke-width:1.0;" x1="797" x2="838" y1="2190.7687" y2="2190.7687"/><polygon fill="#000000" points="807,2186.7687,797,2190.7687,807,2194.7687,803,2190.7687" style="stroke:#000000;stroke-width:1.0;"/><text fill="#000000" font-family="Arial" font-size="11" lengthAdjust="spacing" textLength="133" x="803" y="2172.5457">hashPassword(password)</text><polygon fill="#000000" points="1032,2215.7506,1042,2219.7506,1032,2223.7506,1036,2219.7506" style="stroke:#000000;stroke-width:1.0;"/><line style="stroke:#000000;stroke-width:1.0;" x1="796" x2="1038" y1="2219.7506" y2="2219.7506"/><text fill="#000000" font-family="Arial" font-size="11" lengthAdjust="spacing" textLength="156" x="803" y="2214.5276">INSERT INTO users VALUES(...)</text><polygon fill="#000000" points="807,2244.7325,797,2248.7325,807,2252.7325,803,2248.7325" style="stroke:#000000;stroke-width:1.0;"/><line style="stroke:#000000;stroke-width:1.0;stroke-dasharray:2.0,2.0;" x1="801" x2="1043" y1="2248.7325" y2="2248.7325"/><text fill="#000000" font-family="Arial" font-size="11" lengthAdjust="spacing" textLength="64" x="813" y="2243.5095">New user ID</text><polygon fill="#000000" points="1132,2273.7144,1142,2277.7144,1132,2281.7144,1136,2277.7144" style="stroke:#000000;stroke-width:1.0;"/><line style="stroke:#000000;stroke-width:1.0;" x1="796" x2="1138" y1="2277.7144" y2="2277.7144"/><text fill="#000000" font-family="Arial" font-size="11" lengthAdjust="spacing" textLength="108" x="803" y="2272.4914">generateToken(user)</text><polygon fill="#000000" points="807,2302.6962,797,2306.6962,807,2310.6962,803,2306.6962" style="stroke:#000000;stroke-width:1.0;"/><line style="stroke:#000000;stroke-width:1.0;stroke-dasharray:2.0,2.0;" x1="801" x2="1143" y1="2306.6962" y2="2306.6962"/><text fill="#000000" font-family="Arial" font-size="11" lengthAdjust="spacing" textLength="52" x="813" y="2301.4733">JWT token</text><polygon fill="#000000" points="449,2331.6781,439,2335.6781,449,2339.6781,445,2335.6781" style="stroke:#000000;stroke-width:1.0;"/><line style="stroke:#000000;stroke-width:1.0;stroke-dasharray:2.0,2.0;" x1="443" x2="795" y1="2335.6781" y2="2335.6781"/><text fill="#000000" font-family="Arial" font-size="11" lengthAdjust="spacing" textLength="196" x="455" y="2330.4552">201 Created + {token, user, expiresAt}</text><polygon fill="#000000" points="196,2360.66,186,2364.66,196,2368.66,192,2364.66" style="stroke:#000000;stroke-width:1.0;"/><line style="stroke:#000000;stroke-width:1.0;stroke-dasharray:2.0,2.0;" x1="190" x2="437" y1="2364.66" y2="2364.66"/><text fill="#000000" font-family="Arial" font-size="11" lengthAdjust="spacing" textLength="119" x="202" y="2359.437">Registration successful</text><line style="stroke:#000000;stroke-width:1.0;stroke-dasharray:2.0,2.0;" x1="108" x2="1203" y1="2373.66" y2="2373.66"/><text fill="#000000" font-family="Arial" font-size="11" font-weight="bold" lengthAdjust="spacing" textLength="95" x="113" y="2385.4189">[Validation Error]</text><polygon fill="#000000" points="449,2406.6238,439,2410.6238,449,2414.6238,445,2410.6238" style="stroke:#000000;stroke-width:1.0;"/><line style="stroke:#000000;stroke-width:1.0;stroke-dasharray:2.0,2.0;" x1="443" x2="795" y1="2410.6238" y2="2410.6238"/><text fill="#000000" font-family="Arial" font-size="11" lengthAdjust="spacing" textLength="108" x="455" y="2405.4008">400/409 Bad Request</text><polygon fill="#000000" points="196,2435.6057,186,2439.6057,196,2443.6057,192,2439.6057" style="stroke:#000000;stroke-width:1.0;"/><line style="stroke:#000000;stroke-width:1.0;stroke-dasharray:2.0,2.0;" x1="190" x2="437" y1="2439.6057" y2="2439.6057"/><text fill="#000000" font-family="Arial" font-size="11" lengthAdjust="spacing" textLength="76" x="202" y="2434.3827">Error message</text><rect fill="#FFFFFF" height="3" style="stroke:#FFFFFF;stroke-width:1.0;" width="1337" x="5" y="2475.0966"/><line style="stroke:#000000;stroke-width:0.5;" x1="5" x2="1342" y1="2475.0966" y2="2475.0966"/><line style="stroke:#000000;stroke-width:0.5;" x1="5" x2="1342" y1="2478.0966" y2="2478.0966"/><rect fill="#FFFFFF" height="22.9819" style="stroke:#000000;stroke-width:1.0;" width="120" x="613.5" y="2464.6057"/><text fill="#000000" font-family="Arial" font-size="11" font-weight="bold" lengthAdjust="spacing" textLength="103" x="619.5" y="2480.3646">Security Measures</text><path d="M568,2502.5876 L568,2586.5876 L1197,2586.5876 L1197,2512.5876 L1187,2502.5876 L568,2502.5876 " fill="#FFFFFF" style="stroke:#000000;stroke-width:1.0;"/><path d="M1187,2502.5876 L1187,2512.5876 L1197,2512.5876 L1187,2502.5876 " fill="#FFFFFF" style="stroke:#000000;stroke-width:1.0;"/><text fill="#000000" font-family="Arial" font-size="11" lengthAdjust="spacing" textLength="170" x="793" y="2519.3465">- Rate limiting: 5 attempts/15min</text><text fill="#000000" font-family="Arial" font-size="11" lengthAdjust="spacing" textLength="135" x="793" y="2534.3284">- HMAC-SHA256 signature</text><text fill="#000000" font-family="Arial" font-size="11" lengthAdjust="spacing" textLength="139" x="793" y="2549.3103">- 24-hour token expiration</text><text fill="#000000" font-family="Arial" font-size="11" lengthAdjust="spacing" textLength="160" x="793" y="2564.2922">- Salt-based password hashing</text><text fill="#000000" font-family="Arial" font-size="11" lengthAdjust="spacing" textLength="142" x="793" y="2579.274">- IP-based request tracking</text><path d="M129,2597.497 L129,2666.497 L494,2666.497 L494,2607.497 L484,2597.497 L129,2597.497 " fill="#FFFFFF" style="stroke:#000000;stroke-width:1.0;"/><path d="M484,2597.497 L484,2607.497 L494,2607.497 L484,2597.497 " fill="#FFFFFF" style="stroke:#000000;stroke-width:1.0;"/><text fill="#000000" font-family="Arial" font-size="11" lengthAdjust="spacing" textLength="175" x="211" y="2614.2559">- HTTPS encryption in production</text><text fill="#000000" font-family="Arial" font-size="11" lengthAdjust="spacing" textLength="91" x="211" y="2629.2378">- CORS validation</text><text fill="#000000" font-family="Arial" font-size="11" lengthAdjust="spacing" textLength="99" x="211" y="2644.2197">- Input sanitization</text><text fill="#000000" font-family="Arial" font-size="11" lengthAdjust="spacing" textLength="192" x="211" y="2659.2016">- Secure token storage (localStorage)</text><!--SRC=[bLTRTzf647xNhvZw2Hemje_TSygfqqC8hcbzuI2SF3HzM4i3R2rsoUug6EVqltTc9O44mabuGMY_cPtBDnT-SdDS82mJ8LLWdwHQ2YCMiD1AHtEZwSYP54idTYvYlP9g1bEHsF99Z5EH9kvAAtSdIB1df4ZgpqFvWd1w6WHEkWJXpuyJwALaYN8o4avg1LU9NWM1Y9msy63HWB2GqdT0kWWabq8vEBeof0nL38sUcgM9CCqZ1axprrLmRpI4FuJ3bLXxb5ZA7G2P0BSoZXF26Cn0zAu6rQSBZ4uID1uLRNvMiU-54u_2PghYn-eXUtqjL5me-NVbWk3o4cxqJ6O1WClBW9s6zjkDJrqOqBU1o63CyQ8a1CLP5VT1938cVu4Ia3gOQhCGheAb27HXT1zEe4EF7VQra_3jdzHNlbTH6bkm5DQkj8d_2mZanGZNXVuSeoV_N4gRmS-f9Ci2Vi_ORMIwu5Kt2D8Yd6q6sxDTv9VST1yA3c9Z5nq_TY4St0pw4_WPhiRtjvuT5ZvU3yO3A8o7I_WzY1-XlQFVCyfWH5v1GqufDgcANpK8ZPokHtaa6aL8MZ0NThuhI8dimWmL6d9XefzGDTYWPa07UwOm2nnZAagAv8pHBhMo25yzfkKzQm4-BodAjkVod5JoVdPo0lT_mPkIwdg2M2gkt3uFQnx0fKlE1VC-TFIGExF54fXVTNFcsZIAqDffcdWwZuns63cCWGjmJ0H1w-gPtVE2iDn8a8ywDH7kixRGivB4CpPD6_dYETY5TqZLQ-0txzJRAcjpWh94YOa5MttcyDaPQZm-CDHW5jSeOZIDRVeoJTleLgGBwbRYkYSv4kj4YnXycGs9HvHuz7cbZ2OkgrtmEWAWJt75nebZ5kJA-Fk8dux-8QelCwKbWI9QtCEX8HBkAIQBN3E3xR67qhMN12yG8BLx62hlO6VW6VYQYIur2ivFJk51YJm_M6UR7oFGe6Qs_fPjjThgEKksaNsSHKzAoXxF0-QZjvZuCwNCppTjzbjjqMJuJ-gxkFOTJE0xiYpdQOF68tNfhBAf5vKrvPVlAwgzgKcbJnncPxmsRsdruZjSbVcx5-YzjbDgEA_rY90xIfoPeN0roKpDXveczmvFjGnmG7kKK9WpvRvo3tMg_QmhOZ4OEPixqDFjOW3GJoJDhRQLCO9MoPfUtMaWixxmSALI0OKqOHdgkrx2HS4nYz7AcM8w0Ilttern9gqpszMbtiSAZEVnTz2E9T1K1Z8kX4mEpcNomXVOgwEuqFj3qxXi_i6XdAq5D5CtCnYVIShMZU61F-dSQLU0Nj7dlVuXPTj6MhRSDut3pl90tvlppHeXDcvu5mx64_gQtEVxnuVUpSCWR1mV7sSoDOPoyNbk3D_Ng3suF33qzGLYLrd1gJDgcts3WflvcyERH7tFhN2sDDhzDCXNJ3uQ6AFDGHFEJquwvoU_mZiH5wFxm7rU3ope5Z73JTCECKgDT6kuHM5JCfWBpDUsvdfbYhVy0WtGXZ4llObSI4T_Kxfm0S8vN2o97ASN2wayvlgsrs-7rxspYr-0wrdGk49_SdRUdjFIaSMqt47vC2HEjNcZZpVbvnb35_dpuIW_pISPy2hnnAVRVh4rk_2wvV-BUBCcar48g2ApNlgmqZv5apXEeuq9_VjnM9HayMxeDtmh5BdyKhAMeuQv9xpjKKYXaMXgRs7sgxcrwty0]--></g></svg>