<?xml version="1.0" encoding="us-ascii" standalone="no"?><svg xmlns="http://www.w3.org/2000/svg" xmlns:xlink="http://www.w3.org/1999/xlink" contentStyleType="text/css" height="774px" preserveAspectRatio="none" style="width:972px;height:774px;background:#FFFFFF;" version="1.1" viewBox="0 0 972 774" width="972px" zoomAndPan="magnify"><defs/><g><text fill="#000000" font-family="Arial" font-size="22" font-weight="bold" lengthAdjust="spacing" textLength="407" x="278.18" y="38.5181">Production Deployment Architecture</text><!--cluster CDN Edge--><g id="cluster_CDN Edge"><path d="M274.5,61.9641 L319.5,61.9641 A3.75,3.75 0 0 1 322,64.4641 L329,80.2222 L409.5,80.2222 A2.5,2.5 0 0 1 412,82.7222 L412,148.7241 A2.5,2.5 0 0 1 409.5,151.2241 L274.5,151.2241 A2.5,2.5 0 0 1 272,148.7241 L272,64.4641 A2.5,2.5 0 0 1 274.5,61.9641 " fill="#FFFFFF" style="stroke:#000000;stroke-width:1.0;"/><line style="stroke:#000000;stroke-width:1.0;" x1="272" x2="329" y1="80.2222" y2="80.2222"/><text fill="#000000" font-family="Arial" font-size="9" font-weight="bold" lengthAdjust="spacing" textLength="44" x="276" y="73.5852">CDN Edge</text></g><!--cluster Load Balancer--><g id="cluster_Load Balancer"><path d="M196.5,175.2241 L260.5,175.2241 A3.75,3.75 0 0 1 263,177.7241 L270,193.4822 L351.5,193.4822 A2.5,2.5 0 0 1 354,195.9822 L354,261.9841 A2.5,2.5 0 0 1 351.5,264.4841 L196.5,264.4841 A2.5,2.5 0 0 1 194,261.9841 L194,177.7241 A2.5,2.5 0 0 1 196.5,175.2241 " fill="#FFFFFF" style="stroke:#000000;stroke-width:1.0;"/><line style="stroke:#000000;stroke-width:1.0;" x1="194" x2="270" y1="193.4822" y2="193.4822"/><text fill="#000000" font-family="Arial" font-size="9" font-weight="bold" lengthAdjust="spacing" textLength="63" x="198" y="186.8452">Load Balancer</text></g><!--cluster Application Servers--><g id="cluster_Application Servers"><path d="M89.5,288.4841 L178.5,288.4841 A3.75,3.75 0 0 1 181,290.9841 L188,306.7422 L616.5,306.7422 A2.5,2.5 0 0 1 619,309.2422 L619,548.8841 A2.5,2.5 0 0 1 616.5,551.3841 L89.5,551.3841 A2.5,2.5 0 0 1 87,548.8841 L87,290.9841 A2.5,2.5 0 0 1 89.5,288.4841 " fill="#FFFFFF" style="stroke:#000000;stroke-width:1.0;"/><line style="stroke:#000000;stroke-width:1.0;" x1="87" x2="188" y1="306.7422" y2="306.7422"/><text fill="#000000" font-family="Arial" font-size="9" font-weight="bold" lengthAdjust="spacing" textLength="88" x="91" y="300.1052">Application Servers</text></g><!--cluster Server Cluster--><g id="cluster_Server Cluster"><rect fill="#FFFFFF" height="199.9" rx="2.5" ry="2.5" style="stroke:#000000;stroke-width:1.0;" width="484" x="111" y="327.4841"/><text fill="#000000" font-family="Arial" font-size="9" font-weight="bold" lengthAdjust="spacing" textLength="63" x="321.5" y="339.1052">Server Cluster</text></g><!--cluster Database Cluster--><g id="cluster_Database Cluster"><path d="M13.5,575.3841 L91.5,575.3841 A3.75,3.75 0 0 1 94,577.8841 L101,593.6422 L447.5,593.6422 A2.5,2.5 0 0 1 450,596.1422 L450,662.1441 A2.5,2.5 0 0 1 447.5,664.6441 L13.5,664.6441 A2.5,2.5 0 0 1 11,662.1441 L11,577.8841 A2.5,2.5 0 0 1 13.5,575.3841 " fill="#FFFFFF" style="stroke:#000000;stroke-width:1.0;"/><line style="stroke:#000000;stroke-width:1.0;" x1="11" x2="101" y1="593.6422" y2="593.6422"/><text fill="#000000" font-family="Arial" font-size="9" font-weight="bold" lengthAdjust="spacing" textLength="77" x="15" y="587.0052">Database Cluster</text></g><!--cluster External Services--><g id="cluster_External Services"><path d="M476.5,575.3841 L553.5,575.3841 A3.75,3.75 0 0 1 556,577.8841 L563,593.6422 L919.5,593.6422 A2.5,2.5 0 0 1 922,596.1422 L922,662.1441 A2.5,2.5 0 0 1 919.5,664.6441 L476.5,664.6441 A2.5,2.5 0 0 1 474,662.1441 L474,577.8841 A2.5,2.5 0 0 1 476.5,575.3841 " fill="#FFFFFF" style="stroke:#000000;stroke-width:1.0;"/><line style="stroke:#000000;stroke-width:1.0;" x1="474" x2="563" y1="593.6422" y2="593.6422"/><text fill="#000000" font-family="Arial" font-size="9" font-weight="bold" lengthAdjust="spacing" textLength="76" x="478" y="587.0052">External Services</text></g><!--cluster Monitoring--><g id="cluster_Monitoring"><path d="M572.5,61.9641 L625.5,61.9641 A3.75,3.75 0 0 1 628,64.4641 L635,80.2222 L691.5,80.2222 A2.5,2.5 0 0 1 694,82.7222 L694,261.9841 A2.5,2.5 0 0 1 691.5,264.4841 L572.5,264.4841 A2.5,2.5 0 0 1 570,261.9841 L570,64.4641 A2.5,2.5 0 0 1 572.5,61.9641 " fill="#FFFFFF" style="stroke:#000000;stroke-width:1.0;"/><line style="stroke:#000000;stroke-width:1.0;" x1="570" x2="635" y1="80.2222" y2="80.2222"/><text fill="#000000" font-family="Arial" font-size="9" font-weight="bold" lengthAdjust="spacing" textLength="52" x="574" y="73.5852">Monitoring</text></g><!--cluster CI/CD Pipeline--><g id="cluster_CI/CD Pipeline"><path d="M768.5,61.9641 L835.5,61.9641 A3.75,3.75 0 0 1 838,64.4641 L845,80.2222 L899.5,80.2222 A2.5,2.5 0 0 1 902,82.7222 L902,261.9841 A2.5,2.5 0 0 1 899.5,264.4841 L768.5,264.4841 A2.5,2.5 0 0 1 766,261.9841 L766,64.4641 A2.5,2.5 0 0 1 768.5,61.9641 " fill="#FFFFFF" style="stroke:#000000;stroke-width:1.0;"/><line style="stroke:#000000;stroke-width:1.0;" x1="766" x2="845" y1="80.2222" y2="80.2222"/><text fill="#000000" font-family="Arial" font-size="9" font-weight="bold" lengthAdjust="spacing" textLength="66" x="770" y="73.5852">CI/CD Pipeline</text></g><!--entity cdn--><g id="elem_cdn"><rect fill="#FFFFFF" height="42.2581" rx="2.5" ry="2.5" style="stroke:#000000;stroke-width:1.0;" width="108" x="288" y="92.9641"/><rect fill="#FFFFFF" height="10" style="stroke:#000000;stroke-width:1.0;" width="15" x="376" y="97.9641"/><rect fill="#FFFFFF" height="2" style="stroke:#000000;stroke-width:1.0;" width="4" x="374" y="99.9641"/><rect fill="#FFFFFF" height="2" style="stroke:#000000;stroke-width:1.0;" width="4" x="374" y="103.9641"/><text fill="#000000" font-family="Arial" font-size="9" lengthAdjust="spacing" textLength="68" x="303" y="122.5852">CloudFlare CDN</text></g><!--entity lb--><g id="elem_lb"><rect fill="#FFFFFF" height="42.2581" rx="2.5" ry="2.5" style="stroke:#000000;stroke-width:1.0;" width="128" x="210" y="206.2241"/><rect fill="#FFFFFF" height="10" style="stroke:#000000;stroke-width:1.0;" width="15" x="318" y="211.2241"/><rect fill="#FFFFFF" height="2" style="stroke:#000000;stroke-width:1.0;" width="4" x="316" y="213.2241"/><rect fill="#FFFFFF" height="2" style="stroke:#000000;stroke-width:1.0;" width="4" x="316" y="217.2241"/><text fill="#000000" font-family="Arial" font-size="9" lengthAdjust="spacing" textLength="88" x="225" y="235.8452">Nginx Load Balancer</text></g><!--entity fe1--><g id="elem_fe1"><rect fill="#FFFFFF" height="42.2581" rx="2.5" ry="2.5" style="stroke:#000000;stroke-width:1.0;" width="130" x="127" y="358.4841"/><rect fill="#FFFFFF" height="10" style="stroke:#000000;stroke-width:1.0;" width="15" x="237" y="363.4841"/><rect fill="#FFFFFF" height="2" style="stroke:#000000;stroke-width:1.0;" width="4" x="235" y="365.4841"/><rect fill="#FFFFFF" height="2" style="stroke:#000000;stroke-width:1.0;" width="4" x="235" y="369.4841"/><text fill="#000000" font-family="Arial" font-size="9" lengthAdjust="spacing" textLength="90" x="142" y="388.1052">Angular Frontend #1</text></g><!--entity fe2--><g id="elem_fe2"><rect fill="#FFFFFF" height="42.2581" rx="2.5" ry="2.5" style="stroke:#000000;stroke-width:1.0;" width="130" x="292" y="358.4841"/><rect fill="#FFFFFF" height="10" style="stroke:#000000;stroke-width:1.0;" width="15" x="402" y="363.4841"/><rect fill="#FFFFFF" height="2" style="stroke:#000000;stroke-width:1.0;" width="4" x="400" y="365.4841"/><rect fill="#FFFFFF" height="2" style="stroke:#000000;stroke-width:1.0;" width="4" x="400" y="369.4841"/><text fill="#000000" font-family="Arial" font-size="9" lengthAdjust="spacing" textLength="90" x="307" y="388.1052">Angular Frontend #2</text></g><!--entity be1--><g id="elem_be1"><rect fill="#FFFFFF" height="42.2581" rx="2.5" ry="2.5" style="stroke:#000000;stroke-width:1.0;" width="121" x="301.5" y="469.1241"/><rect fill="#FFFFFF" height="10" style="stroke:#000000;stroke-width:1.0;" width="15" x="402.5" y="474.1241"/><rect fill="#FFFFFF" height="2" style="stroke:#000000;stroke-width:1.0;" width="4" x="400.5" y="476.1241"/><rect fill="#FFFFFF" height="2" style="stroke:#000000;stroke-width:1.0;" width="4" x="400.5" y="480.1241"/><text fill="#000000" font-family="Arial" font-size="9" lengthAdjust="spacing" textLength="81" x="316.5" y="498.7452">DLang Backend #1</text></g><!--entity be2--><g id="elem_be2"><rect fill="#FFFFFF" height="42.2581" rx="2.5" ry="2.5" style="stroke:#000000;stroke-width:1.0;" width="121" x="457.5" y="469.1241"/><rect fill="#FFFFFF" height="10" style="stroke:#000000;stroke-width:1.0;" width="15" x="558.5" y="474.1241"/><rect fill="#FFFFFF" height="2" style="stroke:#000000;stroke-width:1.0;" width="4" x="556.5" y="476.1241"/><rect fill="#FFFFFF" height="2" style="stroke:#000000;stroke-width:1.0;" width="4" x="556.5" y="480.1241"/><text fill="#000000" font-family="Arial" font-size="9" lengthAdjust="spacing" textLength="81" x="472.5" y="498.7452">DLang Backend #2</text></g><!--entity be3--><g id="elem_be3"><rect fill="#FFFFFF" height="42.2581" rx="2.5" ry="2.5" style="stroke:#000000;stroke-width:1.0;" width="121" x="457.5" y="358.4841"/><rect fill="#FFFFFF" height="10" style="stroke:#000000;stroke-width:1.0;" width="15" x="558.5" y="363.4841"/><rect fill="#FFFFFF" height="2" style="stroke:#000000;stroke-width:1.0;" width="4" x="556.5" y="365.4841"/><rect fill="#FFFFFF" height="2" style="stroke:#000000;stroke-width:1.0;" width="4" x="556.5" y="369.4841"/><text fill="#000000" font-family="Arial" font-size="9" lengthAdjust="spacing" textLength="81" x="472.5" y="388.1052">DLang Backend #3</text></g><!--entity pg_primary--><g id="elem_pg_primary"><rect fill="#FFFFFF" height="42.2581" rx="2.5" ry="2.5" style="stroke:#000000;stroke-width:1.0;" width="124" x="153" y="606.3841"/><rect fill="#FFFFFF" height="10" style="stroke:#000000;stroke-width:1.0;" width="15" x="257" y="611.3841"/><rect fill="#FFFFFF" height="2" style="stroke:#000000;stroke-width:1.0;" width="4" x="255" y="613.3841"/><rect fill="#FFFFFF" height="2" style="stroke:#000000;stroke-width:1.0;" width="4" x="255" y="617.3841"/><text fill="#000000" font-family="Arial" font-size="9" lengthAdjust="spacing" textLength="84" x="168" y="636.0052">PostgreSQL Primary</text></g><!--entity pg_replica--><g id="elem_pg_replica"><rect fill="#FFFFFF" height="42.2581" rx="2.5" ry="2.5" style="stroke:#000000;stroke-width:1.0;" width="121" x="312.5" y="606.3841"/><rect fill="#FFFFFF" height="10" style="stroke:#000000;stroke-width:1.0;" width="15" x="413.5" y="611.3841"/><rect fill="#FFFFFF" height="2" style="stroke:#000000;stroke-width:1.0;" width="4" x="411.5" y="613.3841"/><rect fill="#FFFFFF" height="2" style="stroke:#000000;stroke-width:1.0;" width="4" x="411.5" y="617.3841"/><text fill="#000000" font-family="Arial" font-size="9" lengthAdjust="spacing" textLength="81" x="327.5" y="636.0052">PostgreSQL Replica</text></g><!--entity redis--><g id="elem_redis"><rect fill="#FFFFFF" height="42.2581" rx="2.5" ry="2.5" style="stroke:#000000;stroke-width:1.0;" width="91" x="27.5" y="606.3841"/><rect fill="#FFFFFF" height="10" style="stroke:#000000;stroke-width:1.0;" width="15" x="98.5" y="611.3841"/><rect fill="#FFFFFF" height="2" style="stroke:#000000;stroke-width:1.0;" width="4" x="96.5" y="613.3841"/><rect fill="#FFFFFF" height="2" style="stroke:#000000;stroke-width:1.0;" width="4" x="96.5" y="617.3841"/><text fill="#000000" font-family="Arial" font-size="9" lengthAdjust="spacing" textLength="51" x="42.5" y="636.0052">Redis Cache</text></g><!--entity stripe--><g id="elem_stripe"><rect fill="#FFFFFF" height="42.2581" rx="2.5" ry="2.5" style="stroke:#000000;stroke-width:1.0;" width="120" x="631" y="606.3841"/><rect fill="#FFFFFF" height="10" style="stroke:#000000;stroke-width:1.0;" width="15" x="731" y="611.3841"/><rect fill="#FFFFFF" height="2" style="stroke:#000000;stroke-width:1.0;" width="4" x="729" y="613.3841"/><rect fill="#FFFFFF" height="2" style="stroke:#000000;stroke-width:1.0;" width="4" x="729" y="617.3841"/><text fill="#000000" font-family="Arial" font-size="9" lengthAdjust="spacing" textLength="80" x="646" y="636.0052">Stripe Payment API</text></g><!--entity email--><g id="elem_email"><rect fill="#FFFFFF" height="42.2581" rx="2.5" ry="2.5" style="stroke:#000000;stroke-width:1.0;" width="119" x="786.5" y="606.3841"/><rect fill="#FFFFFF" height="10" style="stroke:#000000;stroke-width:1.0;" width="15" x="885.5" y="611.3841"/><rect fill="#FFFFFF" height="2" style="stroke:#000000;stroke-width:1.0;" width="4" x="883.5" y="613.3841"/><rect fill="#FFFFFF" height="2" style="stroke:#000000;stroke-width:1.0;" width="4" x="883.5" y="617.3841"/><text fill="#000000" font-family="Arial" font-size="9" lengthAdjust="spacing" textLength="79" x="801.5" y="636.0052">SMTP Email Service</text></g><!--entity s3--><g id="elem_s3"><rect fill="#FFFFFF" height="42.2581" rx="2.5" ry="2.5" style="stroke:#000000;stroke-width:1.0;" width="106" x="490" y="606.3841"/><rect fill="#FFFFFF" height="10" style="stroke:#000000;stroke-width:1.0;" width="15" x="576" y="611.3841"/><rect fill="#FFFFFF" height="2" style="stroke:#000000;stroke-width:1.0;" width="4" x="574" y="613.3841"/><rect fill="#FFFFFF" height="2" style="stroke:#000000;stroke-width:1.0;" width="4" x="574" y="617.3841"/><text fill="#000000" font-family="Arial" font-size="9" lengthAdjust="spacing" textLength="66" x="505" y="636.0052">AWS S3 Storage</text></g><!--entity prometheus--><g id="elem_prometheus"><rect fill="#FFFFFF" height="42.2581" rx="2.5" ry="2.5" style="stroke:#000000;stroke-width:1.0;" width="91" x="586.5" y="206.2241"/><rect fill="#FFFFFF" height="10" style="stroke:#000000;stroke-width:1.0;" width="15" x="657.5" y="211.2241"/><rect fill="#FFFFFF" height="2" style="stroke:#000000;stroke-width:1.0;" width="4" x="655.5" y="213.2241"/><rect fill="#FFFFFF" height="2" style="stroke:#000000;stroke-width:1.0;" width="4" x="655.5" y="217.2241"/><text fill="#000000" font-family="Arial" font-size="9" lengthAdjust="spacing" textLength="51" x="601.5" y="235.8452">Prometheus</text></g><!--entity grafana--><g id="elem_grafana"><rect fill="#FFFFFF" height="42.2581" rx="2.5" ry="2.5" style="stroke:#000000;stroke-width:1.0;" width="75" x="594.5" y="92.9641"/><rect fill="#FFFFFF" height="10" style="stroke:#000000;stroke-width:1.0;" width="15" x="649.5" y="97.9641"/><rect fill="#FFFFFF" height="2" style="stroke:#000000;stroke-width:1.0;" width="4" x="647.5" y="99.9641"/><rect fill="#FFFFFF" height="2" style="stroke:#000000;stroke-width:1.0;" width="4" x="647.5" y="103.9641"/><text fill="#000000" font-family="Arial" font-size="9" lengthAdjust="spacing" textLength="35" x="609.5" y="122.5852">Grafana</text></g><!--entity github--><g id="elem_github"><rect fill="#FFFFFF" height="42.2581" rx="2.5" ry="2.5" style="stroke:#000000;stroke-width:1.0;" width="103" x="782.5" y="92.9641"/><rect fill="#FFFFFF" height="10" style="stroke:#000000;stroke-width:1.0;" width="15" x="865.5" y="97.9641"/><rect fill="#FFFFFF" height="2" style="stroke:#000000;stroke-width:1.0;" width="4" x="863.5" y="99.9641"/><rect fill="#FFFFFF" height="2" style="stroke:#000000;stroke-width:1.0;" width="4" x="863.5" y="103.9641"/><text fill="#000000" font-family="Arial" font-size="9" lengthAdjust="spacing" textLength="63" x="797.5" y="122.5852">GitHub Actions</text></g><!--entity k8s--><g id="elem_k8s"><rect fill="#FFFFFF" height="42.2581" rx="2.5" ry="2.5" style="stroke:#000000;stroke-width:1.0;" width="90" x="789" y="206.2241"/><rect fill="#FFFFFF" height="10" style="stroke:#000000;stroke-width:1.0;" width="15" x="859" y="211.2241"/><rect fill="#FFFFFF" height="2" style="stroke:#000000;stroke-width:1.0;" width="4" x="857" y="213.2241"/><rect fill="#FFFFFF" height="2" style="stroke:#000000;stroke-width:1.0;" width="4" x="857" y="217.2241"/><text fill="#000000" font-family="Arial" font-size="9" lengthAdjust="spacing" textLength="50" x="804" y="235.8452">Kubernetes</text></g><g id="elem_GMN54"><path d="M159,84.5741 L159,143.6064 A0,0 0 0 0 159,143.6064 L219.69,143.6064 L261.55,205.9841 L227.69,143.6064 L253,143.6064 A0,0 0 0 0 253,143.6064 L253,94.5741 L243,84.5741 L159,84.5741 A0,0 0 0 0 159,84.5741 " fill="#FFFFFF" style="stroke:#000000;stroke-width:1.0;"/><path d="M243,84.5741 L243,94.5741 L253,94.5741 L243,84.5741 " fill="#FFFFFF" style="stroke:#000000;stroke-width:1.0;"/><text fill="#000000" font-family="Arial" font-size="9" lengthAdjust="spacing" textLength="36" x="165" y="99.1952">Security:</text><text fill="#000000" font-family="Arial" font-size="9" lengthAdjust="spacing" textLength="73" x="165" y="111.4533">- SSL Termination</text><text fill="#000000" font-family="Arial" font-size="9" lengthAdjust="spacing" textLength="60" x="165" y="123.7113">- Rate Limiting</text><text fill="#000000" font-family="Arial" font-size="9" lengthAdjust="spacing" textLength="73" x="165" y="135.9694">- DDoS Protection</text></g><g id="elem_GMN57"><path d="M161.5,708.6441 L161.5,767.6764 A0,0 0 0 0 161.5,767.6764 L268.5,767.6764 A0,0 0 0 0 268.5,767.6764 L268.5,718.6441 L258.5,708.6441 L219,708.6441 L215,648.9441 L211,708.6441 L161.5,708.6441 A0,0 0 0 0 161.5,708.6441 " fill="#FFFFFF" style="stroke:#000000;stroke-width:1.0;"/><path d="M258.5,708.6441 L258.5,718.6441 L268.5,718.6441 L258.5,708.6441 " fill="#FFFFFF" style="stroke:#000000;stroke-width:1.0;"/><text fill="#000000" font-family="Arial" font-size="9" lengthAdjust="spacing" textLength="42" x="167.5" y="723.2652">Database:</text><text fill="#000000" font-family="Arial" font-size="9" lengthAdjust="spacing" textLength="86" x="167.5" y="735.5233">- Connection Pooling</text><text fill="#000000" font-family="Arial" font-size="9" lengthAdjust="spacing" textLength="64" x="167.5" y="747.7813">- Daily Backups</text><text fill="#000000" font-family="Arial" font-size="9" lengthAdjust="spacing" textLength="60" x="167.5" y="760.0394">- Auto Failover</text></g><g id="elem_GMN60"><path d="M756.5,350.0941 L756.5,409.1264 A0,0 0 0 0 756.5,409.1264 L849.5,409.1264 A0,0 0 0 0 849.5,409.1264 L849.5,360.0941 L839.5,350.0941 L812.94,350.0941 L829.75,248.9241 L804.94,350.0941 L756.5,350.0941 A0,0 0 0 0 756.5,350.0941 " fill="#FFFFFF" style="stroke:#000000;stroke-width:1.0;"/><path d="M839.5,350.0941 L839.5,360.0941 L849.5,360.0941 L839.5,350.0941 " fill="#FFFFFF" style="stroke:#000000;stroke-width:1.0;"/><text fill="#000000" font-family="Arial" font-size="9" lengthAdjust="spacing" textLength="52" x="762.5" y="364.7152">Kubernetes:</text><text fill="#000000" font-family="Arial" font-size="9" lengthAdjust="spacing" textLength="57" x="762.5" y="376.9733">- Auto Scaling</text><text fill="#000000" font-family="Arial" font-size="9" lengthAdjust="spacing" textLength="72" x="762.5" y="389.2313">- Rolling Updates</text><text fill="#000000" font-family="Arial" font-size="9" lengthAdjust="spacing" textLength="65" x="762.5" y="401.4894">- Health Checks</text></g><!--link cdn to lb--><g id="link_cdn_lb"><path d="M329.53,135.5041 C317.26,155.5741 301.7705,180.9255 289.5205,200.9555 " fill="none" id="cdn-to-lb" style="stroke:#000000;stroke-width:1.0;"/><polygon fill="#000000" points="286.39,206.0741,294.4981,200.4831,288.9987,201.8086,287.6733,196.3092,286.39,206.0741" style="stroke:#000000;stroke-width:1.0;"/></g><!--link lb to fe1--><g id="link_lb_fe1"><path d="M262.77,248.9241 C247.07,277.7041 221.5943,324.3774 205.9643,353.0174 " fill="none" id="lb-to-fe1" style="stroke:#000000;stroke-width:1.0;"/><polygon fill="#000000" points="203.09,358.2841,210.9126,352.3002,205.4852,353.8952,203.8902,348.4678,203.09,358.2841" style="stroke:#000000;stroke-width:1.0;"/></g><!--link lb to fe2--><g id="link_lb_fe2"><path d="M285.37,248.9241 C301.26,277.7041 327.0489,324.3921 342.8689,353.0321 " fill="none" id="lb-to-fe2" style="stroke:#000000;stroke-width:1.0;"/><polygon fill="#000000" points="345.77,358.2841,344.9197,348.472,343.3524,353.9074,337.917,352.3401,345.77,358.2841" style="stroke:#000000;stroke-width:1.0;"/></g><!--link fe1 to be1--><g id="link_fe1_be1"><path d="M223.98,401.0441 C254.27,420.4041 294.4738,446.1038 324.8238,465.4938 " fill="none" id="fe1-to-be1" style="stroke:#000000;stroke-width:1.0;"/><polygon fill="#000000" points="329.88,468.7241,324.4492,460.5078,325.6665,466.0322,320.1422,467.2494,329.88,468.7241" style="stroke:#000000;stroke-width:1.0;"/></g><!--link fe2 to be2--><g id="link_fe2_be2"><path d="M387.28,401.0441 C415.98,420.4041 453.8661,445.9784 482.6061,465.3684 " fill="none" id="fe2-to-be2" style="stroke:#000000;stroke-width:1.0;"/><polygon fill="#000000" points="487.58,468.7241,482.3564,460.3746,483.4351,465.9277,477.8821,467.0064,487.58,468.7241" style="stroke:#000000;stroke-width:1.0;"/></g><!--link be1 to pg_primary--><g id="link_be1_pg_primary"><path d="M339.67,511.7941 C311.88,537.3641 269.1353,576.7015 241.4653,602.1615 " fill="none" id="be1-to-pg_primary" style="stroke:#000000;stroke-width:1.0;"/><polygon fill="#000000" points="237.05,606.2241,246.3814,603.0737,240.7294,602.8386,240.9645,597.1866,237.05,606.2241" style="stroke:#000000;stroke-width:1.0;"/></g><!--link be2 to pg_primary--><g id="link_be2_pg_primary"><path d="M501.52,511.7141 C487.17,527.8641 464.81,549.2841 440,559.3841 C410.11,571.5541 325.36,556.4441 295,567.3841 C272.25,575.5841 254.9083,588.4676 239.8283,602.1176 " fill="none" id="be2-to-pg_primary" style="stroke:#000000;stroke-width:1.0;"/><polygon fill="#000000" points="235.38,606.1441,244.7368,603.0699,239.0869,602.7887,239.3681,597.1388,235.38,606.1441" style="stroke:#000000;stroke-width:1.0;"/></g><!--link be3 to pg_primary--><g id="link_be3_pg_primary"><path d="M462.12,401.1441 C393.99,426.2641 287.42,465.8741 284,469.1241 C243.87,507.2341 226.9045,566.8825 219.9245,600.0825 " fill="none" id="be3-to-pg_primary" style="stroke:#000000;stroke-width:1.0;"/><polygon fill="#000000" points="218.69,605.9541,224.4561,597.9696,219.7187,601.0611,216.6273,596.3237,218.69,605.9541" style="stroke:#000000;stroke-width:1.0;"/></g><!--link be1 to pg_replica--><g id="link_be1_pg_replica"><path d="M363.67,511.7941 C365.75,537.3641 368.7938,574.7838 370.8638,600.2438 " fill="none" id="be1-to-pg_replica" style="stroke:#000000;stroke-width:1.0;"/><polygon fill="#000000" points="371.35,606.2241,374.6075,596.9296,370.9448,601.2405,366.6338,597.5778,371.35,606.2241" style="stroke:#000000;stroke-width:1.0;"/></g><!--link be2 to pg_replica--><g id="link_be2_pg_replica"><path d="M495.98,511.7941 C468.57,537.3641 426.4272,576.6711 399.1372,602.1311 " fill="none" id="be2-to-pg_replica" style="stroke:#000000;stroke-width:1.0;"/><polygon fill="#000000" points="394.75,606.2241,404.0594,603.0094,398.406,602.8133,398.6021,597.1598,394.75,606.2241" style="stroke:#000000;stroke-width:1.0;"/></g><!--link be1 to redis--><g id="link_be1_redis"><path d="M301.41,504.1441 C254.08,515.9441 187.87,536.3441 136,567.3841 C118.75,577.7041 106.3887,589.0329 94.6287,601.6629 " fill="none" id="be1-to-redis" style="stroke:#000000;stroke-width:1.0;"/><polygon fill="#000000" points="90.54,606.0541,99.6005,602.1931,93.9473,602.3948,93.7456,596.7415,90.54,606.0541" style="stroke:#000000;stroke-width:1.0;"/></g><!--link be2 to redis--><g id="link_be2_redis"><path d="M501.88,511.5841 C487.58,527.8741 465.12,549.5741 440,559.3841 C408.52,571.6741 167.25,554.5341 136,567.3841 C116.58,575.3641 103.4041,587.6973 91.9641,601.4073 " fill="none" id="be2-to-redis" style="stroke:#000000;stroke-width:1.0;"/><polygon fill="#000000" points="88.12,606.0141,96.9574,601.6666,91.3234,602.1751,90.8149,596.5411,88.12,606.0141" style="stroke:#000000;stroke-width:1.0;"/></g><!--link be3 to redis--><g id="link_be3_redis"><path d="M463.64,401.1041 C455.74,403.8941 447.69,406.6541 440,409.1241 C345.56,439.5141 310.22,418.3341 225,469.1241 C164.14,505.3941 114.793,567.4829 90.573,601.1629 " fill="none" id="be3-to-redis" style="stroke:#000000;stroke-width:1.0;"/><polygon fill="#000000" points="87.07,606.0341,95.572,601.0626,89.9892,601.9747,89.077,596.3919,87.07,606.0341" style="stroke:#000000;stroke-width:1.0;"/></g><!--link be1 to stripe--><g id="link_be1_stripe"><path d="M378.46,511.7741 C392.8,527.9541 415.14,549.3941 440,559.3841 C475.71,573.7341 576.81,554.2841 613,567.3841 C635.37,575.4841 652.2147,588.3091 666.8647,601.9891 " fill="none" id="be1-to-stripe" style="stroke:#000000;stroke-width:1.0;"/><polygon fill="#000000" points="671.25,606.0841,667.402,597.0181,667.5956,602.6716,661.942,602.8652,671.25,606.0841" style="stroke:#000000;stroke-width:1.0;"/></g><!--link be2 to stripe--><g id="link_be2_stripe"><path d="M544.27,511.7941 C576.89,537.2941 627.4432,576.8185 660.0332,602.2985 " fill="none" id="be2-to-stripe" style="stroke:#000000;stroke-width:1.0;"/><polygon fill="#000000" points="664.76,605.9941,660.1335,597.2995,660.821,602.9145,655.2061,603.6019,664.76,605.9941" style="stroke:#000000;stroke-width:1.0;"/></g><!--link be1 to email--><g id="link_be1_email"><path d="M378.12,511.5941 C392.41,527.8941 414.87,549.6041 440,559.3841 C474.08,572.6441 734.52,555.2041 769,567.3841 C791.25,575.2441 807.8476,588.0536 822.2576,601.7936 " fill="none" id="be1-to-email" style="stroke:#000000;stroke-width:1.0;"/><polygon fill="#000000" points="826.6,605.9341,822.8467,596.8284,822.9813,602.4837,817.3261,602.6183,826.6,605.9341" style="stroke:#000000;stroke-width:1.0;"/></g><!--link be2 to email--><g id="link_be2_email"><path d="M578.91,503.2541 C631.25,515.0441 707.74,535.9041 769,567.3841 C789.09,577.7041 804.6956,589.5063 819.3456,602.1363 " fill="none" id="be2-to-email" style="stroke:#000000;stroke-width:1.0;"/><polygon fill="#000000" points="823.89,606.0541,819.6853,597.1479,820.103,602.7893,814.4616,603.207,823.89,606.0541" style="stroke:#000000;stroke-width:1.0;"/></g><!--link be1 to s3--><g id="link_be1_s3"><path d="M383.83,511.7941 C399.09,525.7841 420.21,544.4141 440,559.3841 C462.13,576.1241 483.2463,590.0033 503.6963,602.7333 " fill="none" id="be1-to-s3" style="stroke:#000000;stroke-width:1.0;"/><polygon fill="#000000" points="508.79,605.9041,503.2633,597.7521,504.5452,603.2618,499.0355,604.5437,508.79,605.9041" style="stroke:#000000;stroke-width:1.0;"/></g><!--link be2 to s3--><g id="link_be2_s3"><path d="M521.8,511.7941 C526.52,537.3641 533.4485,574.8642 538.1585,600.3242 " fill="none" id="be2-to-s3" style="stroke:#000000;stroke-width:1.0;"/><polygon fill="#000000" points="539.25,606.2241,541.5461,596.6466,538.3405,601.3075,533.6796,598.1019,539.25,606.2241" style="stroke:#000000;stroke-width:1.0;"/></g><!--link prometheus to be1--><g id="link_prometheus_be1"><path d="M634.02,248.7841 C636.47,285.5441 636.14,363.2441 596,409.1241 C584.2,422.6141 493.9659,450.9102 428.6559,470.1302 " fill="none" id="prometheus-to-be1" style="stroke:#000000;stroke-width:1.0;"/><polygon fill="#000000" points="422.9,471.8241,432.6632,473.1205,427.6966,470.4125,430.4046,465.446,422.9,471.8241" style="stroke:#000000;stroke-width:1.0;"/></g><!--link prometheus to be2--><g id="link_prometheus_be2"><path d="M644.96,248.8141 C650.1,258.0941 655.4,269.4541 658,280.4841 C671.11,336.1341 686.68,359.6641 658,409.1241 C640.86,438.6841 613.7886,455.9328 584.3586,468.3428 " fill="none" id="prometheus-to-be2" style="stroke:#000000;stroke-width:1.0;"/><polygon fill="#000000" points="578.83,470.6741,588.677,470.8629,583.4371,468.7314,585.5687,463.4915,578.83,470.6741" style="stroke:#000000;stroke-width:1.0;"/></g><!--link prometheus to be3--><g id="link_prometheus_be3"><path d="M616.39,248.9241 C594.56,277.7041 558.7766,324.8642 537.0466,353.5042 " fill="none" id="prometheus-to-be3" style="stroke:#000000;stroke-width:1.0;"/><polygon fill="#000000" points="533.42,358.2841,542.0466,353.532,536.4422,354.3009,535.6734,348.6965,533.42,358.2841" style="stroke:#000000;stroke-width:1.0;"/></g><!--link grafana to prometheus--><g id="link_grafana_prometheus"><path d="M632,135.5041 C632,155.5741 632,180.0441 632,200.0741 " fill="none" id="grafana-to-prometheus" style="stroke:#000000;stroke-width:1.0;"/><polygon fill="#000000" points="632,206.0741,636,197.0741,632,201.0741,628,197.0741,632,206.0741" style="stroke:#000000;stroke-width:1.0;"/></g><!--link github to k8s--><g id="link_github_k8s"><path d="M834,135.5041 C834,155.5741 834,180.0441 834,200.0741 " fill="none" id="github-to-k8s" style="stroke:#000000;stroke-width:1.0;"/><polygon fill="#000000" points="834,206.0741,838,197.0741,834,201.0741,830,197.0741,834,206.0741" style="stroke:#000000;stroke-width:1.0;"/></g><!--link k8s to be1--><g id="link_k8s_be1"><path d="M850.76,248.8341 C857.17,257.9441 863.72,269.1641 867,280.4841 C882.92,335.3941 904.51,365.9741 867,409.1241 C804.13,481.4441 533.98,450.4541 440,469.1241 C434.38,470.2441 434.3921,470.1466 428.5821,471.5066 " fill="none" id="k8s-to-be1" style="stroke:#000000;stroke-width:1.0;"/><polygon fill="#000000" points="422.74,472.8741,432.4148,474.7176,427.6084,471.7345,430.5914,466.9281,422.74,472.8741" style="stroke:#000000;stroke-width:1.0;"/></g><!--link k8s to be2--><g id="link_k8s_be2"><path d="M879.18,241.6441 C898.04,249.6641 918.08,262.0241 929,280.4841 C958.12,329.6841 965.36,364.9941 929,409.1241 C885.32,462.1441 688.1099,480.2065 584.7299,486.2065 " fill="none" id="k8s-to-be2" style="stroke:#000000;stroke-width:1.0;"/><polygon fill="#000000" points="578.74,486.5541,587.9566,490.0259,583.7316,486.2644,587.4931,482.0394,578.74,486.5541" style="stroke:#000000;stroke-width:1.0;"/></g><!--link k8s to be3--><g id="link_k8s_be3"><path d="M790.72,248.9241 C730.38,277.6241 627.0085,326.7773 566.6785,355.4673 " fill="none" id="k8s-to-be3" style="stroke:#000000;stroke-width:1.0;"/><polygon fill="#000000" points="561.26,358.0441,571.1056,357.7913,565.7754,355.8968,567.6699,350.5666,561.26,358.0441" style="stroke:#000000;stroke-width:1.0;"/></g><!--SRC=[VLHBRzD04BxxLmpbmAb2ZI_G0r9mchOYhK9SnA52Q6nFx5NMkzPw3GJK_yvury-64YdIp7pVl6VzoXPK4bGIXGhgWr0L6YoXr4gdXT4CMTFG1AaBpFHFeNBOewodI4PxRAHTQsNlaHsNHg3yDnwBtmJlWy0AAmcsHcTDQeLMiA9AwcD9oh9xMWXBgMqC1K65wG5pWhDeTGzNMKvdy2S0_Zr6KZVPMg8XOEmRO0rffeAdYSz6OmOVKQ9AoGoEzxbGls26EM-Pp9oNLIL5YgwycCmFCdKVmd1rg79kuSmZ4CccjcCEbsUfyeRBWxNXpabbyFh2vTdJnVz8Yuwq64ch3MVZOjF394mo3VECiUWOByS8EqRe64-ppbTeCS6QddVrkDMrpGt5dpUyEr6YEReeLVwzyke9RKTkY3tDUDNJTfI96Y9C2tAuQVLP8LU_EBj2wUOlKXeMy1XR8og-8EnkPdlhGjJEt57k7hPmLQ8Ot1s5MejdBB_648SGMsqudGyGpWguqqemobS_pg1z7FnucjetDQWUlZQuH-KRphqyYnZTlerMiEKgfL3ZCLyBUzCai7IlmKVEXIsQnCEVceG7GPOyT7ZdvlG68gqKUP-0Zn_Epp-qPomJ9xM7DeYBW5KdjuV3UYSlWgIpJzQOTF3C59wQ1iT-iHF7qUHPVhqzeTV2cUQPtHPxwg1wr2-m1tkjymn7hv2dFYndQFp4j3WrXK6tET_Ak66_4cTjLy3_8UueBoOorw2qvM-fha3lszK07sFQ666FbooVGnnlu85CAPJxqZZR3jbb8qfX-V2SPRNISVkvj7xPGVk4sy1T-4HRgyism-mfzk_OPnfl1RPQoo4qp-_elWjDLJlBih4QrcpM_6LxELKx0O3nCYz7vpZ58VvEorQ6BrN6RVaCDuJI5X0Lb1xgCSDV]--></g></svg>