<?xml version="1.0" encoding="us-ascii" standalone="no"?><svg xmlns="http://www.w3.org/2000/svg" xmlns:xlink="http://www.w3.org/1999/xlink" contentStyleType="text/css" height="2139px" preserveAspectRatio="none" style="width:1102px;height:2139px;background:#FFFFFF;" version="1.1" viewBox="0 0 1102 2139" width="1102px" zoomAndPan="magnify"><defs/><g><text fill="#000000" font-family="Arial" font-size="22" font-weight="bold" lengthAdjust="spacing" textLength="341" x="379" y="38.5181">Product CRUD Operations Flow</text><rect fill="#FFFFFF" height="169.3399" style="stroke:#000000;stroke-width:1.0;" width="688" x="116" y="948.3238"/><rect fill="#FFFFFF" height="70.86" style="stroke:none;stroke-width:1.0;" width="688" x="116" y="1046.8037"/><rect fill="#FFFFFF" height="196.9599" style="stroke:#000000;stroke-width:1.0;" width="987" x="15" y="1684.4434"/><rect fill="#FFFFFF" height="43.24" style="stroke:none;stroke-width:1.0;" width="987" x="15" y="1838.1634"/><line style="stroke:#000000;stroke-width:1.0;" x1="70" x2="70" y1="130.5841" y2="2060.9832"/><line style="stroke:#000000;stroke-width:1.0;" x1="152" x2="152" y1="130.5841" y2="2060.9832"/><line style="stroke:#000000;stroke-width:1.0;" x1="256.5" x2="256.5" y1="130.5841" y2="2060.9832"/><line style="stroke:#000000;stroke-width:1.0;" x1="456" x2="456" y1="130.5841" y2="2060.9832"/><line style="stroke:#000000;stroke-width:1.0;" x1="595" x2="595" y1="130.5841" y2="2060.9832"/><line style="stroke:#000000;stroke-width:1.0;" x1="733" x2="733" y1="130.5841" y2="2060.9832"/><line style="stroke:#000000;stroke-width:1.0;" x1="952" x2="952" y1="130.5841" y2="2060.9832"/><text fill="#000000" font-family="Arial" font-size="10" lengthAdjust="spacing" textLength="85" x="25" y="127.6541">Admin/Moderator</text><ellipse cx="70.5" cy="64.9641" fill="#FFFFFF" rx="8" ry="8" style="stroke:#000000;stroke-width:1.0;"/><path d="M70.5,72.9641 L70.5,99.9641 M57.5,80.9641 L83.5,80.9641 M70.5,99.9641 L57.5,114.9641 M70.5,99.9641 L83.5,114.9641 " fill="none" style="stroke:#000000;stroke-width:1.0;"/><text fill="#000000" font-family="Arial" font-size="10" lengthAdjust="spacing" textLength="85" x="25" y="2070.6732">Admin/Moderator</text><ellipse cx="70.5" cy="2082.6032" fill="#FFFFFF" rx="8" ry="8" style="stroke:#000000;stroke-width:1.0;"/><path d="M70.5,2090.6032 L70.5,2117.6032 M57.5,2098.6032 L83.5,2098.6032 M70.5,2117.6032 L57.5,2132.6032 M70.5,2117.6032 L83.5,2132.6032 " fill="none" style="stroke:#000000;stroke-width:1.0;"/><text fill="#000000" font-family="Arial" font-size="10" lengthAdjust="spacing" textLength="46" x="126" y="127.6541">Customer</text><ellipse cx="152" cy="64.9641" fill="#FFFFFF" rx="8" ry="8" style="stroke:#000000;stroke-width:1.0;"/><path d="M152,72.9641 L152,99.9641 M139,80.9641 L165,80.9641 M152,99.9641 L139,114.9641 M152,99.9641 L165,114.9641 " fill="none" style="stroke:#000000;stroke-width:1.0;"/><text fill="#000000" font-family="Arial" font-size="10" lengthAdjust="spacing" textLength="46" x="126" y="2070.6732">Customer</text><ellipse cx="152" cy="2082.6032" fill="#FFFFFF" rx="8" ry="8" style="stroke:#000000;stroke-width:1.0;"/><path d="M152,2090.6032 L152,2117.6032 M139,2098.6032 L165,2098.6032 M152,2117.6032 L139,2132.6032 M152,2117.6032 L165,2132.6032 " fill="none" style="stroke:#000000;stroke-width:1.0;"/><rect fill="#FFFFFF" height="27.62" rx="2.5" ry="2.5" style="stroke:#000000;stroke-width:1.0;" width="57" x="228.5" y="101.9641"/><text fill="#000000" font-family="Arial" font-size="10" lengthAdjust="spacing" textLength="43" x="235.5" y="119.6541">Frontend</text><rect fill="#FFFFFF" height="27.62" rx="2.5" ry="2.5" style="stroke:#000000;stroke-width:1.0;" width="57" x="228.5" y="2059.9832"/><text fill="#000000" font-family="Arial" font-size="10" lengthAdjust="spacing" textLength="43" x="235.5" y="2077.6732">Frontend</text><rect fill="#FFFFFF" height="27.62" rx="2.5" ry="2.5" style="stroke:#000000;stroke-width:1.0;" width="74" x="419" y="101.9641"/><text fill="#000000" font-family="Arial" font-size="10" lengthAdjust="spacing" textLength="60" x="426" y="119.6541">API Gateway</text><rect fill="#FFFFFF" height="27.62" rx="2.5" ry="2.5" style="stroke:#000000;stroke-width:1.0;" width="74" x="419" y="2059.9832"/><text fill="#000000" font-family="Arial" font-size="10" lengthAdjust="spacing" textLength="60" x="426" y="2077.6732">API Gateway</text><rect fill="#FFFFFF" height="27.62" rx="2.5" ry="2.5" style="stroke:#000000;stroke-width:1.0;" width="96" x="547" y="101.9641"/><text fill="#000000" font-family="Arial" font-size="10" lengthAdjust="spacing" textLength="82" x="554" y="119.6541">Auth Middleware</text><rect fill="#FFFFFF" height="27.62" rx="2.5" ry="2.5" style="stroke:#000000;stroke-width:1.0;" width="96" x="547" y="2059.9832"/><text fill="#000000" font-family="Arial" font-size="10" lengthAdjust="spacing" textLength="82" x="554" y="2077.6732">Auth Middleware</text><rect fill="#FFFFFF" height="27.62" rx="2.5" ry="2.5" style="stroke:#000000;stroke-width:1.0;" width="102" x="682" y="101.9641"/><text fill="#000000" font-family="Arial" font-size="10" lengthAdjust="spacing" textLength="88" x="689" y="119.6541">Product Controller</text><rect fill="#FFFFFF" height="27.62" rx="2.5" ry="2.5" style="stroke:#000000;stroke-width:1.0;" width="102" x="682" y="2059.9832"/><text fill="#000000" font-family="Arial" font-size="10" lengthAdjust="spacing" textLength="88" x="689" y="2077.6732">Product Controller</text><rect fill="#FFFFFF" height="27.62" rx="2.5" ry="2.5" style="stroke:#000000;stroke-width:1.0;" width="60" x="922" y="101.9641"/><text fill="#000000" font-family="Arial" font-size="10" lengthAdjust="spacing" textLength="46" x="929" y="119.6541">Database</text><rect fill="#FFFFFF" height="27.62" rx="2.5" ry="2.5" style="stroke:#000000;stroke-width:1.0;" width="60" x="922" y="2059.9832"/><text fill="#000000" font-family="Arial" font-size="10" lengthAdjust="spacing" textLength="46" x="929" y="2077.6732">Database</text><rect fill="#FFFFFF" height="3" style="stroke:#FFFFFF;stroke-width:1.0;" width="1090" x="5" y="160.3941"/><line style="stroke:#000000;stroke-width:0.5;" x1="5" x2="1095" y1="160.3941" y2="160.3941"/><line style="stroke:#000000;stroke-width:0.5;" x1="5" x2="1095" y1="163.3941" y2="163.3941"/><rect fill="#FFFFFF" height="21.62" style="stroke:#000000;stroke-width:1.0;" width="90" x="505" y="150.5841"/><text fill="#000000" font-family="Arial" font-size="10" font-weight="bold" lengthAdjust="spacing" textLength="73" x="511" y="165.2741">Create Product</text><polygon fill="#000000" points="245,197.8241,255,201.8241,245,205.8241,249,201.8241" style="stroke:#000000;stroke-width:1.0;"/><line style="stroke:#000000;stroke-width:1.0;" x1="70.5" x2="251" y1="201.8241" y2="201.8241"/><text fill="#000000" font-family="Arial" font-size="10" lengthAdjust="spacing" textLength="79" x="77.5" y="196.8941">Fill product form</text><polygon fill="#000000" points="444,225.4441,454,229.4441,444,233.4441,448,229.4441" style="stroke:#000000;stroke-width:1.0;"/><line style="stroke:#000000;stroke-width:1.0;" x1="257" x2="450" y1="229.4441" y2="229.4441"/><text fill="#000000" font-family="Arial" font-size="10" lengthAdjust="spacing" textLength="148" x="264" y="224.5141">POST /api/products (with auth)</text><polygon fill="#000000" points="583,253.064,593,257.064,583,261.064,587,257.064" style="stroke:#000000;stroke-width:1.0;"/><line style="stroke:#000000;stroke-width:1.0;" x1="456" x2="589" y1="257.064" y2="257.064"/><text fill="#000000" font-family="Arial" font-size="10" lengthAdjust="spacing" textLength="92" x="463" y="252.134">requireModerator()</text><polygon fill="#000000" points="467,280.684,457,284.684,467,288.684,463,284.684" style="stroke:#000000;stroke-width:1.0;"/><line style="stroke:#000000;stroke-width:1.0;stroke-dasharray:2.0,2.0;" x1="461" x2="594" y1="284.684" y2="284.684"/><text fill="#000000" font-family="Arial" font-size="10" lengthAdjust="spacing" textLength="54" x="473" y="279.754">Valid token</text><polygon fill="#000000" points="721,308.304,731,312.304,721,316.304,725,312.304" style="stroke:#000000;stroke-width:1.0;"/><line style="stroke:#000000;stroke-width:1.0;" x1="595" x2="727" y1="312.304" y2="312.304"/><text fill="#000000" font-family="Arial" font-size="10" lengthAdjust="spacing" textLength="111" x="602" y="307.374">createProduct(req, res)</text><line style="stroke:#000000;stroke-width:1.0;" x1="733" x2="775" y1="339.924" y2="339.924"/><line style="stroke:#000000;stroke-width:1.0;" x1="775" x2="775" y1="339.924" y2="352.924"/><line style="stroke:#000000;stroke-width:1.0;" x1="734" x2="775" y1="352.924" y2="352.924"/><polygon fill="#000000" points="744,348.924,734,352.924,744,356.924,740,352.924" style="stroke:#000000;stroke-width:1.0;"/><text fill="#000000" font-family="Arial" font-size="10" lengthAdjust="spacing" textLength="119" x="740" y="334.994">validateProduct(product)</text><polygon fill="#000000" points="940,376.544,950,380.544,940,384.544,944,380.544" style="stroke:#000000;stroke-width:1.0;"/><line style="stroke:#000000;stroke-width:1.0;" x1="733" x2="946" y1="380.544" y2="380.544"/><text fill="#000000" font-family="Arial" font-size="10" lengthAdjust="spacing" textLength="107" x="740" y="375.614">INSERT INTO products</text><polygon fill="#000000" points="744,404.164,734,408.164,744,412.164,740,408.164" style="stroke:#000000;stroke-width:1.0;"/><line style="stroke:#000000;stroke-width:1.0;stroke-dasharray:2.0,2.0;" x1="738" x2="951" y1="408.164" y2="408.164"/><text fill="#000000" font-family="Arial" font-size="10" lengthAdjust="spacing" textLength="75" x="750" y="403.234">New product ID</text><polygon fill="#000000" points="467,431.784,457,435.784,467,439.784,463,435.784" style="stroke:#000000;stroke-width:1.0;"/><line style="stroke:#000000;stroke-width:1.0;stroke-dasharray:2.0,2.0;" x1="461" x2="732" y1="435.784" y2="435.784"/><text fill="#000000" font-family="Arial" font-size="10" lengthAdjust="spacing" textLength="59" x="473" y="430.854">201 Created</text><polygon fill="#000000" points="268,459.404,258,463.404,268,467.404,264,463.404" style="stroke:#000000;stroke-width:1.0;"/><line style="stroke:#000000;stroke-width:1.0;stroke-dasharray:2.0,2.0;" x1="262" x2="455" y1="463.404" y2="463.404"/><text fill="#000000" font-family="Arial" font-size="10" lengthAdjust="spacing" textLength="77" x="274" y="458.474">Product created</text><polygon fill="#000000" points="81.5,487.0239,71.5,491.0239,81.5,495.0239,77.5,491.0239" style="stroke:#000000;stroke-width:1.0;"/><line style="stroke:#000000;stroke-width:1.0;stroke-dasharray:2.0,2.0;" x1="75.5" x2="256" y1="491.0239" y2="491.0239"/><text fill="#000000" font-family="Arial" font-size="10" lengthAdjust="spacing" textLength="95" x="87.5" y="486.0939">Success notification</text><rect fill="#FFFFFF" height="3" style="stroke:#FFFFFF;stroke-width:1.0;" width="1090" x="5" y="518.8339"/><line style="stroke:#000000;stroke-width:0.5;" x1="5" x2="1095" y1="518.8339" y2="518.8339"/><line style="stroke:#000000;stroke-width:0.5;" x1="5" x2="1095" y1="521.8339" y2="521.8339"/><rect fill="#FFFFFF" height="21.62" style="stroke:#000000;stroke-width:1.0;" width="88" x="506" y="509.0239"/><text fill="#000000" font-family="Arial" font-size="10" font-weight="bold" lengthAdjust="spacing" textLength="71" x="512" y="523.7139">Read Products</text><polygon fill="#000000" points="245,556.2639,255,560.2639,245,564.2639,249,560.2639" style="stroke:#000000;stroke-width:1.0;"/><line style="stroke:#000000;stroke-width:1.0;" x1="152" x2="251" y1="560.2639" y2="560.2639"/><text fill="#000000" font-family="Arial" font-size="10" lengthAdjust="spacing" textLength="81" x="159" y="555.3339">Browse products</text><polygon fill="#000000" points="444,583.8839,454,587.8839,444,591.8839,448,587.8839" style="stroke:#000000;stroke-width:1.0;"/><line style="stroke:#000000;stroke-width:1.0;" x1="257" x2="450" y1="587.8839" y2="587.8839"/><text fill="#000000" font-family="Arial" font-size="10" lengthAdjust="spacing" textLength="87" x="264" y="582.9539">GET /api/products</text><polygon fill="#000000" points="721,611.5039,731,615.5039,721,619.5039,725,615.5039" style="stroke:#000000;stroke-width:1.0;"/><line style="stroke:#000000;stroke-width:1.0;" x1="456" x2="727" y1="615.5039" y2="615.5039"/><text fill="#000000" font-family="Arial" font-size="10" lengthAdjust="spacing" textLength="101" x="463" y="610.5739">getProducts(req, res)</text><polygon fill="#000000" points="940,639.1239,950,643.1239,940,647.1239,944,643.1239" style="stroke:#000000;stroke-width:1.0;"/><line style="stroke:#000000;stroke-width:1.0;" x1="733" x2="946" y1="643.1239" y2="643.1239"/><text fill="#000000" font-family="Arial" font-size="10" lengthAdjust="spacing" textLength="119" x="740" y="638.1939">SELECT * FROM products</text><polygon fill="#000000" points="744,666.7439,734,670.7439,744,674.7439,740,670.7439" style="stroke:#000000;stroke-width:1.0;"/><line style="stroke:#000000;stroke-width:1.0;stroke-dasharray:2.0,2.0;" x1="738" x2="951" y1="670.7439" y2="670.7439"/><text fill="#000000" font-family="Arial" font-size="10" lengthAdjust="spacing" textLength="43" x="750" y="665.8139">Product[]</text><polygon fill="#000000" points="467,694.3639,457,698.3639,467,702.3639,463,698.3639" style="stroke:#000000;stroke-width:1.0;"/><line style="stroke:#000000;stroke-width:1.0;stroke-dasharray:2.0,2.0;" x1="461" x2="732" y1="698.3639" y2="698.3639"/><text fill="#000000" font-family="Arial" font-size="10" lengthAdjust="spacing" textLength="35" x="473" y="693.4339">200 OK</text><polygon fill="#000000" points="268,721.9838,258,725.9838,268,729.9838,264,725.9838" style="stroke:#000000;stroke-width:1.0;"/><line style="stroke:#000000;stroke-width:1.0;stroke-dasharray:2.0,2.0;" x1="262" x2="455" y1="725.9838" y2="725.9838"/><text fill="#000000" font-family="Arial" font-size="10" lengthAdjust="spacing" textLength="55" x="274" y="721.0538">Product list</text><polygon fill="#000000" points="163,749.6038,153,753.6038,163,757.6038,159,753.6038" style="stroke:#000000;stroke-width:1.0;"/><line style="stroke:#000000;stroke-width:1.0;stroke-dasharray:2.0,2.0;" x1="157" x2="256" y1="753.6038" y2="753.6038"/><text fill="#000000" font-family="Arial" font-size="10" lengthAdjust="spacing" textLength="80" x="169" y="748.6738">Display products</text><rect fill="#FFFFFF" height="3" style="stroke:#FFFFFF;stroke-width:1.0;" width="1090" x="5" y="781.4138"/><line style="stroke:#000000;stroke-width:0.5;" x1="5" x2="1095" y1="781.4138" y2="781.4138"/><line style="stroke:#000000;stroke-width:0.5;" x1="5" x2="1095" y1="784.4138" y2="784.4138"/><rect fill="#FFFFFF" height="21.62" style="stroke:#000000;stroke-width:1.0;" width="117" x="491.5" y="771.6038"/><text fill="#000000" font-family="Arial" font-size="10" font-weight="bold" lengthAdjust="spacing" textLength="100" x="497.5" y="786.2938">Read Single Product</text><polygon fill="#000000" points="245,818.8438,255,822.8438,245,826.8438,249,822.8438" style="stroke:#000000;stroke-width:1.0;"/><line style="stroke:#000000;stroke-width:1.0;" x1="152" x2="251" y1="822.8438" y2="822.8438"/><text fill="#000000" font-family="Arial" font-size="10" lengthAdjust="spacing" textLength="62" x="159" y="817.9138">Click product</text><polygon fill="#000000" points="444,846.4638,454,850.4638,444,854.4638,448,850.4638" style="stroke:#000000;stroke-width:1.0;"/><line style="stroke:#000000;stroke-width:1.0;" x1="257" x2="450" y1="850.4638" y2="850.4638"/><text fill="#000000" font-family="Arial" font-size="10" lengthAdjust="spacing" textLength="138" x="264" y="845.5338">GET /api/products/slug/:slug</text><polygon fill="#000000" points="721,874.0838,731,878.0838,721,882.0838,725,878.0838" style="stroke:#000000;stroke-width:1.0;"/><line style="stroke:#000000;stroke-width:1.0;" x1="456" x2="727" y1="878.0838" y2="878.0838"/><text fill="#000000" font-family="Arial" font-size="10" lengthAdjust="spacing" textLength="128" x="463" y="873.1538">getProductBySlug(req, res)</text><polygon fill="#000000" points="940,901.7038,950,905.7038,940,909.7038,944,905.7038" style="stroke:#000000;stroke-width:1.0;"/><line style="stroke:#000000;stroke-width:1.0;" x1="733" x2="946" y1="905.7038" y2="905.7038"/><text fill="#000000" font-family="Arial" font-size="10" lengthAdjust="spacing" textLength="195" x="740" y="900.7738">SELECT * FROM products WHERE slug = ?</text><polygon fill="#000000" points="744,929.3238,734,933.3238,744,937.3238,740,933.3238" style="stroke:#000000;stroke-width:1.0;"/><line style="stroke:#000000;stroke-width:1.0;stroke-dasharray:2.0,2.0;" x1="738" x2="951" y1="933.3238" y2="933.3238"/><text fill="#000000" font-family="Arial" font-size="10" lengthAdjust="spacing" textLength="37" x="750" y="928.3938">Product</text><path d="M116,948.3238 L174,948.3238 L174,953.9437 L164,963.9437 L116,963.9437 L116,948.3238 " fill="#FFFFFF" style="stroke:#000000;stroke-width:1.0;"/><rect fill="none" height="169.3399" style="stroke:#000000;stroke-width:1.0;" width="688" x="116" y="948.3238"/><text fill="#000000" font-family="Arial" font-size="10" font-weight="bold" lengthAdjust="spacing" textLength="13" x="131" y="960.0137">alt</text><text fill="#000000" font-family="Arial" font-size="10" font-weight="bold" lengthAdjust="spacing" textLength="78" x="189" y="961.0137">[Product Found]</text><polygon fill="#000000" points="467,979.5637,457,983.5637,467,987.5637,463,983.5637" style="stroke:#000000;stroke-width:1.0;"/><line style="stroke:#000000;stroke-width:1.0;stroke-dasharray:2.0,2.0;" x1="461" x2="732" y1="983.5637" y2="983.5637"/><text fill="#000000" font-family="Arial" font-size="10" lengthAdjust="spacing" textLength="35" x="473" y="978.6337">200 OK</text><polygon fill="#000000" points="268,1007.1837,258,1011.1837,268,1015.1837,264,1011.1837" style="stroke:#000000;stroke-width:1.0;"/><line style="stroke:#000000;stroke-width:1.0;stroke-dasharray:2.0,2.0;" x1="262" x2="455" y1="1011.1837" y2="1011.1837"/><text fill="#000000" font-family="Arial" font-size="10" lengthAdjust="spacing" textLength="73" x="274" y="1006.2537">Product details</text><polygon fill="#000000" points="163,1034.8037,153,1038.8037,163,1042.8037,159,1038.8037" style="stroke:#000000;stroke-width:1.0;"/><line style="stroke:#000000;stroke-width:1.0;stroke-dasharray:2.0,2.0;" x1="157" x2="256" y1="1038.8037" y2="1038.8037"/><text fill="#000000" font-family="Arial" font-size="10" lengthAdjust="spacing" textLength="64" x="169" y="1033.8737">Product page</text><line style="stroke:#000000;stroke-width:1.0;stroke-dasharray:2.0,2.0;" x1="116" x2="804" y1="1047.8037" y2="1047.8037"/><text fill="#000000" font-family="Arial" font-size="10" font-weight="bold" lengthAdjust="spacing" textLength="99" x="121" y="1058.4937">[Product Not Found]</text><polygon fill="#000000" points="467,1078.0437,457,1082.0437,467,1086.0437,463,1082.0437" style="stroke:#000000;stroke-width:1.0;"/><line style="stroke:#000000;stroke-width:1.0;stroke-dasharray:2.0,2.0;" x1="461" x2="732" y1="1082.0437" y2="1082.0437"/><text fill="#000000" font-family="Arial" font-size="10" lengthAdjust="spacing" textLength="71" x="473" y="1077.1137">404 Not Found</text><polygon fill="#000000" points="268,1105.6637,258,1109.6637,268,1113.6637,264,1109.6637" style="stroke:#000000;stroke-width:1.0;"/><line style="stroke:#000000;stroke-width:1.0;stroke-dasharray:2.0,2.0;" x1="262" x2="455" y1="1109.6637" y2="1109.6637"/><text fill="#000000" font-family="Arial" font-size="10" lengthAdjust="spacing" textLength="71" x="274" y="1104.7337">Error response</text><rect fill="#FFFFFF" height="3" style="stroke:#FFFFFF;stroke-width:1.0;" width="1090" x="5" y="1144.4737"/><line style="stroke:#000000;stroke-width:0.5;" x1="5" x2="1095" y1="1144.4737" y2="1144.4737"/><line style="stroke:#000000;stroke-width:0.5;" x1="5" x2="1095" y1="1147.4737" y2="1147.4737"/><rect fill="#FFFFFF" height="21.62" style="stroke:#000000;stroke-width:1.0;" width="94" x="503" y="1134.6637"/><text fill="#000000" font-family="Arial" font-size="10" font-weight="bold" lengthAdjust="spacing" textLength="77" x="509" y="1149.3537">Update Product</text><polygon fill="#000000" points="245,1181.9036,255,1185.9036,245,1189.9036,249,1185.9036" style="stroke:#000000;stroke-width:1.0;"/><line style="stroke:#000000;stroke-width:1.0;" x1="70.5" x2="251" y1="1185.9036" y2="1185.9036"/><text fill="#000000" font-family="Arial" font-size="10" lengthAdjust="spacing" textLength="100" x="77.5" y="1180.9736">Update product data</text><polygon fill="#000000" points="444,1209.5236,454,1213.5236,444,1217.5236,448,1213.5236" style="stroke:#000000;stroke-width:1.0;"/><line style="stroke:#000000;stroke-width:1.0;" x1="257" x2="450" y1="1213.5236" y2="1213.5236"/><text fill="#000000" font-family="Arial" font-size="10" lengthAdjust="spacing" textLength="158" x="264" y="1208.5936">PUT /api/products/:id (with auth)</text><polygon fill="#000000" points="583,1237.1436,593,1241.1436,583,1245.1436,587,1241.1436" style="stroke:#000000;stroke-width:1.0;"/><line style="stroke:#000000;stroke-width:1.0;" x1="456" x2="589" y1="1241.1436" y2="1241.1436"/><text fill="#000000" font-family="Arial" font-size="10" lengthAdjust="spacing" textLength="92" x="463" y="1236.2136">requireModerator()</text><polygon fill="#000000" points="467,1264.7636,457,1268.7636,467,1272.7636,463,1268.7636" style="stroke:#000000;stroke-width:1.0;"/><line style="stroke:#000000;stroke-width:1.0;stroke-dasharray:2.0,2.0;" x1="461" x2="594" y1="1268.7636" y2="1268.7636"/><text fill="#000000" font-family="Arial" font-size="10" lengthAdjust="spacing" textLength="54" x="473" y="1263.8336">Valid token</text><polygon fill="#000000" points="721,1292.3836,731,1296.3836,721,1300.3836,725,1296.3836" style="stroke:#000000;stroke-width:1.0;"/><line style="stroke:#000000;stroke-width:1.0;" x1="595" x2="727" y1="1296.3836" y2="1296.3836"/><text fill="#000000" font-family="Arial" font-size="10" lengthAdjust="spacing" textLength="114" x="602" y="1291.4536">updateProduct(req, res)</text><polygon fill="#000000" points="940,1320.0036,950,1324.0036,940,1328.0036,944,1324.0036" style="stroke:#000000;stroke-width:1.0;"/><line style="stroke:#000000;stroke-width:1.0;" x1="733" x2="946" y1="1324.0036" y2="1324.0036"/><text fill="#000000" font-family="Arial" font-size="10" lengthAdjust="spacing" textLength="115" x="740" y="1319.0736">UPDATE products SET ...</text><polygon fill="#000000" points="744,1347.6236,734,1351.6236,744,1355.6236,740,1351.6236" style="stroke:#000000;stroke-width:1.0;"/><line style="stroke:#000000;stroke-width:1.0;stroke-dasharray:2.0,2.0;" x1="738" x2="951" y1="1351.6236" y2="1351.6236"/><text fill="#000000" font-family="Arial" font-size="10" lengthAdjust="spacing" textLength="37" x="750" y="1346.6936">Success</text><polygon fill="#000000" points="467,1375.2436,457,1379.2436,467,1383.2436,463,1379.2436" style="stroke:#000000;stroke-width:1.0;"/><line style="stroke:#000000;stroke-width:1.0;stroke-dasharray:2.0,2.0;" x1="461" x2="732" y1="1379.2436" y2="1379.2436"/><text fill="#000000" font-family="Arial" font-size="10" lengthAdjust="spacing" textLength="35" x="473" y="1374.3136">200 OK</text><polygon fill="#000000" points="268,1402.8635,258,1406.8635,268,1410.8635,264,1406.8635" style="stroke:#000000;stroke-width:1.0;"/><line style="stroke:#000000;stroke-width:1.0;stroke-dasharray:2.0,2.0;" x1="262" x2="455" y1="1406.8635" y2="1406.8635"/><text fill="#000000" font-family="Arial" font-size="10" lengthAdjust="spacing" textLength="80" x="274" y="1401.9335">Product updated</text><polygon fill="#000000" points="81.5,1430.4835,71.5,1434.4835,81.5,1438.4835,77.5,1434.4835" style="stroke:#000000;stroke-width:1.0;"/><line style="stroke:#000000;stroke-width:1.0;stroke-dasharray:2.0,2.0;" x1="75.5" x2="256" y1="1434.4835" y2="1434.4835"/><text fill="#000000" font-family="Arial" font-size="10" lengthAdjust="spacing" textLength="95" x="87.5" y="1429.5535">Success notification</text><rect fill="#FFFFFF" height="3" style="stroke:#FFFFFF;stroke-width:1.0;" width="1090" x="5" y="1462.2935"/><line style="stroke:#000000;stroke-width:0.5;" x1="5" x2="1095" y1="1462.2935" y2="1462.2935"/><line style="stroke:#000000;stroke-width:0.5;" x1="5" x2="1095" y1="1465.2935" y2="1465.2935"/><rect fill="#FFFFFF" height="21.62" style="stroke:#000000;stroke-width:1.0;" width="90" x="505" y="1452.4835"/><text fill="#000000" font-family="Arial" font-size="10" font-weight="bold" lengthAdjust="spacing" textLength="73" x="511" y="1467.1735">Delete Product</text><polygon fill="#000000" points="245,1499.7235,255,1503.7235,245,1507.7235,249,1503.7235" style="stroke:#000000;stroke-width:1.0;"/><line style="stroke:#000000;stroke-width:1.0;" x1="70.5" x2="251" y1="1503.7235" y2="1503.7235"/><text fill="#000000" font-family="Arial" font-size="10" lengthAdjust="spacing" textLength="80" x="77.5" y="1498.7935">Confirm deletion</text><polygon fill="#000000" points="444,1527.3435,454,1531.3435,444,1535.3435,448,1531.3435" style="stroke:#000000;stroke-width:1.0;"/><line style="stroke:#000000;stroke-width:1.0;" x1="257" x2="450" y1="1531.3435" y2="1531.3435"/><text fill="#000000" font-family="Arial" font-size="10" lengthAdjust="spacing" textLength="175" x="264" y="1526.4135">DELETE /api/products/:id (with auth)</text><polygon fill="#000000" points="583,1554.9635,593,1558.9635,583,1562.9635,587,1558.9635" style="stroke:#000000;stroke-width:1.0;"/><line style="stroke:#000000;stroke-width:1.0;" x1="456" x2="589" y1="1558.9635" y2="1558.9635"/><text fill="#000000" font-family="Arial" font-size="10" lengthAdjust="spacing" textLength="71" x="463" y="1554.0335">requireAdmin()</text><polygon fill="#000000" points="467,1582.5835,457,1586.5835,467,1590.5835,463,1586.5835" style="stroke:#000000;stroke-width:1.0;"/><line style="stroke:#000000;stroke-width:1.0;stroke-dasharray:2.0,2.0;" x1="461" x2="594" y1="1586.5835" y2="1586.5835"/><text fill="#000000" font-family="Arial" font-size="10" lengthAdjust="spacing" textLength="115" x="473" y="1581.6535">Valid token (admin role)</text><polygon fill="#000000" points="721,1610.2035,731,1614.2035,721,1618.2035,725,1614.2035" style="stroke:#000000;stroke-width:1.0;"/><line style="stroke:#000000;stroke-width:1.0;" x1="595" x2="727" y1="1614.2035" y2="1614.2035"/><text fill="#000000" font-family="Arial" font-size="10" lengthAdjust="spacing" textLength="111" x="602" y="1609.2735">deleteProduct(req, res)</text><polygon fill="#000000" points="940,1637.8234,950,1641.8234,940,1645.8234,944,1641.8234" style="stroke:#000000;stroke-width:1.0;"/><line style="stroke:#000000;stroke-width:1.0;" x1="733" x2="946" y1="1641.8234" y2="1641.8234"/><text fill="#000000" font-family="Arial" font-size="10" lengthAdjust="spacing" textLength="184" x="740" y="1636.8934">SELECT * FROM products WHERE id = ?</text><polygon fill="#000000" points="744,1665.4434,734,1669.4434,744,1673.4434,740,1669.4434" style="stroke:#000000;stroke-width:1.0;"/><line style="stroke:#000000;stroke-width:1.0;stroke-dasharray:2.0,2.0;" x1="738" x2="951" y1="1669.4434" y2="1669.4434"/><text fill="#000000" font-family="Arial" font-size="10" lengthAdjust="spacing" textLength="37" x="750" y="1664.5134">Product</text><path d="M15,1684.4434 L73,1684.4434 L73,1690.0634 L63,1700.0634 L15,1700.0634 L15,1684.4434 " fill="#FFFFFF" style="stroke:#000000;stroke-width:1.0;"/><rect fill="none" height="196.9599" style="stroke:#000000;stroke-width:1.0;" width="987" x="15" y="1684.4434"/><text fill="#000000" font-family="Arial" font-size="10" font-weight="bold" lengthAdjust="spacing" textLength="13" x="30" y="1696.1334">alt</text><text fill="#000000" font-family="Arial" font-size="10" font-weight="bold" lengthAdjust="spacing" textLength="76" x="88" y="1697.1334">[Product Exists]</text><polygon fill="#000000" points="940,1715.6834,950,1719.6834,940,1723.6834,944,1719.6834" style="stroke:#000000;stroke-width:1.0;"/><line style="stroke:#000000;stroke-width:1.0;" x1="733" x2="946" y1="1719.6834" y2="1719.6834"/><text fill="#000000" font-family="Arial" font-size="10" lengthAdjust="spacing" textLength="112" x="740" y="1714.7534">DELETE FROM products</text><polygon fill="#000000" points="744,1743.3034,734,1747.3034,744,1751.3034,740,1747.3034" style="stroke:#000000;stroke-width:1.0;"/><line style="stroke:#000000;stroke-width:1.0;stroke-dasharray:2.0,2.0;" x1="738" x2="951" y1="1747.3034" y2="1747.3034"/><text fill="#000000" font-family="Arial" font-size="10" lengthAdjust="spacing" textLength="37" x="750" y="1742.3734">Success</text><polygon fill="#000000" points="467,1770.9234,457,1774.9234,467,1778.9234,463,1774.9234" style="stroke:#000000;stroke-width:1.0;"/><line style="stroke:#000000;stroke-width:1.0;stroke-dasharray:2.0,2.0;" x1="461" x2="732" y1="1774.9234" y2="1774.9234"/><text fill="#000000" font-family="Arial" font-size="10" lengthAdjust="spacing" textLength="76" x="473" y="1769.9934">204 No Content</text><polygon fill="#000000" points="268,1798.5434,258,1802.5434,268,1806.5434,264,1802.5434" style="stroke:#000000;stroke-width:1.0;"/><line style="stroke:#000000;stroke-width:1.0;stroke-dasharray:2.0,2.0;" x1="262" x2="455" y1="1802.5434" y2="1802.5434"/><text fill="#000000" font-family="Arial" font-size="10" lengthAdjust="spacing" textLength="84" x="274" y="1797.6134">Success response</text><polygon fill="#000000" points="81.5,1826.1634,71.5,1830.1634,81.5,1834.1634,77.5,1830.1634" style="stroke:#000000;stroke-width:1.0;"/><line style="stroke:#000000;stroke-width:1.0;stroke-dasharray:2.0,2.0;" x1="75.5" x2="256" y1="1830.1634" y2="1830.1634"/><text fill="#000000" font-family="Arial" font-size="10" lengthAdjust="spacing" textLength="77" x="87.5" y="1825.2334">Product deleted</text><line style="stroke:#000000;stroke-width:1.0;stroke-dasharray:2.0,2.0;" x1="15" x2="1002" y1="1839.1634" y2="1839.1634"/><text fill="#000000" font-family="Arial" font-size="10" font-weight="bold" lengthAdjust="spacing" textLength="99" x="20" y="1849.8533">[Product Not Found]</text><polygon fill="#000000" points="467,1869.4033,457,1873.4033,467,1877.4033,463,1873.4033" style="stroke:#000000;stroke-width:1.0;"/><line style="stroke:#000000;stroke-width:1.0;stroke-dasharray:2.0,2.0;" x1="461" x2="732" y1="1873.4033" y2="1873.4033"/><text fill="#000000" font-family="Arial" font-size="10" lengthAdjust="spacing" textLength="71" x="473" y="1868.4733">404 Not Found</text><path d="M738,1893.4033 L738,1971.4033 L914,1971.4033 L914,1903.4033 L904,1893.4033 L738,1893.4033 " fill="#FFFFFF" style="stroke:#000000;stroke-width:1.0;"/><path d="M904,1893.4033 L904,1903.4033 L914,1903.4033 L904,1893.4033 " fill="#FFFFFF" style="stroke:#000000;stroke-width:1.0;"/><text fill="#000000" font-family="Arial" font-size="10" lengthAdjust="spacing" textLength="81" x="744" y="1909.0933">Validation Rules:</text><text fill="#000000" font-family="Arial" font-size="10" lengthAdjust="spacing" textLength="155" x="744" y="1922.7133">- Name required, max 255 chars</text><text fill="#000000" font-family="Arial" font-size="10" lengthAdjust="spacing" textLength="96" x="744" y="1936.3333">- Price must be &gt;= 0</text><text fill="#000000" font-family="Arial" font-size="10" lengthAdjust="spacing" textLength="97" x="744" y="1949.9533">- Stock must be &gt;= 0</text><text fill="#000000" font-family="Arial" font-size="10" lengthAdjust="spacing" textLength="104" x="744" y="1963.5733">- Slug auto-generated</text><path d="M957,1981.5033 L957,2045.5033 L1090,2045.5033 L1090,1991.5033 L1080,1981.5033 L957,1981.5033 " fill="#FFFFFF" style="stroke:#000000;stroke-width:1.0;"/><path d="M1080,1981.5033 L1080,1991.5033 L1090,1991.5033 L1080,1981.5033 " fill="#FFFFFF" style="stroke:#000000;stroke-width:1.0;"/><text fill="#000000" font-family="Arial" font-size="10" lengthAdjust="spacing" textLength="40" x="963" y="1997.1933">Indexes:</text><text fill="#000000" font-family="Arial" font-size="10" lengthAdjust="spacing" textLength="112" x="963" y="2010.8132">- idx_products_category</text><text fill="#000000" font-family="Arial" font-size="10" lengthAdjust="spacing" textLength="90" x="963" y="2024.4332">- idx_products_slug</text><text fill="#000000" font-family="Arial" font-size="10" lengthAdjust="spacing" textLength="100" x="963" y="2038.0532">- idx_products_status</text><!--SRC=[jLPHRzCm47xFhpZsj26s5WGlaJeqsXGcs5er7JmWX4nyRQsvSR0Tkl7hERjnshHhku7OmpRxFllklhlxd6TsXdE4GZAHH-PMv0NJR0vpbQjifXMPh2vnpM9cZAk5oASmOTAiMpXEM2bjN-Nscj712osOVDYUYjy8BzjHP8ML24EjU9bPw8vkUZ0eK3ChL6wWBzKYYbXcbOQZ2puNUUjASMTM-WYO0URs0g1R6ai1BorPjOZ8jnMPA5XkuQYloJdct4CcrQ89kHXUmdjcSS7kbouAiG4exGok1EUIC1gN8DfhekgKo8TMKeQmwcKJtcEM_M1cUHkl5b7KwK1N8qLJKzJfH3vfE3sl4uYXBwI4ee9Cb9v7mUPmb48Cmq4wXXRzswfm1euNWb9niPz4PF1GMiIWyMSfDDPS7vFTPNqQBllCfE1WrItcbULyBRKOCXzq5VCnNVU2xZGdqGgpUUANkt7jJ1Navf50JGoNrsao6jEVyI1aRg9Wzf6kNt-DYvgVorxZqf3Jg_RBYco-PAF1SE0_gn0hVjrvLv4OqZBBq1Z8bHKJaVaczZKS8UFX1kDA6BgpMSLtMYqezZgRhHg-JpPA6CgsdkeKRN2ra_aLZMdoAUcEuJdqHuEhHn1PNVtrsmuEsp3uk8S-AOnjSXUeYA4d3CdG_Ig8chgKv4OsPk1X0hjIPBVX_2FeQnbPJbkn-xsVoNVtAM7-caxuyY4P9U3yG0VU7cGtOjBMsVPLIHe5zBE7SMVUpJf7ouGq7hM3_00js1GZ966lTwxLeHXUjrzleBP3IRGcZIRk2X9sya10LzwRWXzMjmeKvjUnzu2-tMmMDoQ9-dyILnRy4HAtweoROUzYdAnQ8gLcF3ixszqBbPhytPmjetkYJFLGui5Yq8Cs4TgzvWHs9xSgqQCPe4oVNWp_mkyh11ml0o8wyEJ1glYedb2LlVDARfyyhSaTAPpP6fLrdnK_JS5r1mwsmcuHS0FelpKmjpicC9Izdi4jDQZwOwKQZal-RshW1vqw3K6BwSo2cgn_0y6okhu5OLHAD37jdOB_VgowWh-0ERk3Ls_UG3PZsdZ0K8iCOKxo1JyGpZlGzjkfLVG0R6yxuQLsKQTJpDsyem_CJG1kHbT_V05SvXplGaY2ttqFrVfEGuDJfU-tBVujsTwrp9PcvVCF]--></g></svg>