<?xml version="1.0" encoding="us-ascii" standalone="no"?><svg xmlns="http://www.w3.org/2000/svg" xmlns:xlink="http://www.w3.org/1999/xlink" contentStyleType="text/css" height="2468px" preserveAspectRatio="none" style="width:1482px;height:2468px;background:#FFFFFF;" version="1.1" viewBox="0 0 1482 2468" width="1482px" zoomAndPan="magnify"><defs/><g><text fill="#000000" font-family="Arial" font-size="22" font-weight="bold" lengthAdjust="spacing" textLength="354" x="562.75" y="38.5181">Shopping Cart to Checkout Flow</text><rect fill="#FFFFFF" height="140.0999" style="stroke:#000000;stroke-width:1.0;" width="753" x="124.5" y="893.0838"/><rect fill="#FFFFFF" height="56.24" style="stroke:none;stroke-width:1.0;" width="753" x="124.5" y="976.9437"/><rect fill="#FFFFFF" height="305.8199" style="stroke:#000000;stroke-width:1.0;" width="1450.5" x="15" y="1682.8234"/><rect fill="#FFFFFF" height="111.4799" style="stroke:none;stroke-width:1.0;" width="1450.5" x="15" y="1877.1634"/><line style="stroke:#000000;stroke-width:1.0;" x1="51" x2="51" y1="130.5841" y2="2389.5631"/><line style="stroke:#000000;stroke-width:1.0;" x1="172.5" x2="172.5" y1="130.5841" y2="2389.5631"/><line style="stroke:#000000;stroke-width:1.0;" x1="355.5" x2="355.5" y1="130.5841" y2="2389.5631"/><line style="stroke:#000000;stroke-width:1.0;" x1="469.5" x2="469.5" y1="130.5841" y2="2389.5631"/><line style="stroke:#000000;stroke-width:1.0;" x1="583.5" x2="583.5" y1="130.5841" y2="2389.5631"/><line style="stroke:#000000;stroke-width:1.0;" x1="694.5" x2="694.5" y1="130.5841" y2="2389.5631"/><line style="stroke:#000000;stroke-width:1.0;" x1="809.5" x2="809.5" y1="130.5841" y2="2389.5631"/><line style="stroke:#000000;stroke-width:1.0;" x1="935" x2="935" y1="130.5841" y2="2389.5631"/><line style="stroke:#000000;stroke-width:1.0;" x1="1176.5" x2="1176.5" y1="130.5841" y2="2389.5631"/><line style="stroke:#000000;stroke-width:1.0;" x1="1286.5" x2="1286.5" y1="130.5841" y2="2389.5631"/><line style="stroke:#000000;stroke-width:1.0;" x1="1406.5" x2="1406.5" y1="130.5841" y2="2389.5631"/><text fill="#000000" font-family="Arial" font-size="10" lengthAdjust="spacing" textLength="46" x="25" y="127.6541">Customer</text><ellipse cx="51" cy="64.9641" fill="#FFFFFF" rx="8" ry="8" style="stroke:#000000;stroke-width:1.0;"/><path d="M51,72.9641 L51,99.9641 M38,80.9641 L64,80.9641 M51,99.9641 L38,114.9641 M51,99.9641 L64,114.9641 " fill="none" style="stroke:#000000;stroke-width:1.0;"/><text fill="#000000" font-family="Arial" font-size="10" lengthAdjust="spacing" textLength="46" x="25" y="2399.2531">Customer</text><ellipse cx="51" cy="2411.1831" fill="#FFFFFF" rx="8" ry="8" style="stroke:#000000;stroke-width:1.0;"/><path d="M51,2419.1831 L51,2446.1831 M38,2427.1831 L64,2427.1831 M51,2446.1831 L38,2461.1831 M51,2446.1831 L64,2461.1831 " fill="none" style="stroke:#000000;stroke-width:1.0;"/><rect fill="#FFFFFF" height="27.62" rx="2.5" ry="2.5" style="stroke:#000000;stroke-width:1.0;" width="57" x="144.5" y="101.9641"/><text fill="#000000" font-family="Arial" font-size="10" lengthAdjust="spacing" textLength="43" x="151.5" y="119.6541">Frontend</text><rect fill="#FFFFFF" height="27.62" rx="2.5" ry="2.5" style="stroke:#000000;stroke-width:1.0;" width="57" x="144.5" y="2388.5631"/><text fill="#000000" font-family="Arial" font-size="10" lengthAdjust="spacing" textLength="43" x="151.5" y="2406.2531">Frontend</text><rect fill="#FFFFFF" height="27.62" rx="2.5" ry="2.5" style="stroke:#000000;stroke-width:1.0;" width="71" x="320.5" y="101.9641"/><text fill="#000000" font-family="Arial" font-size="10" lengthAdjust="spacing" textLength="57" x="327.5" y="119.6541">Cart Service</text><rect fill="#FFFFFF" height="27.62" rx="2.5" ry="2.5" style="stroke:#000000;stroke-width:1.0;" width="71" x="320.5" y="2388.5631"/><text fill="#000000" font-family="Arial" font-size="10" lengthAdjust="spacing" textLength="57" x="327.5" y="2406.2531">Cart Service</text><rect fill="#FFFFFF" height="27.62" rx="2.5" ry="2.5" style="stroke:#000000;stroke-width:1.0;" width="79" x="430.5" y="101.9641"/><text fill="#000000" font-family="Arial" font-size="10" lengthAdjust="spacing" textLength="65" x="437.5" y="119.6541">Local Storage</text><rect fill="#FFFFFF" height="27.62" rx="2.5" ry="2.5" style="stroke:#000000;stroke-width:1.0;" width="79" x="430.5" y="2388.5631"/><text fill="#000000" font-family="Arial" font-size="10" lengthAdjust="spacing" textLength="65" x="437.5" y="2406.2531">Local Storage</text><rect fill="#FFFFFF" height="27.62" rx="2.5" ry="2.5" style="stroke:#000000;stroke-width:1.0;" width="88" x="539.5" y="101.9641"/><text fill="#000000" font-family="Arial" font-size="10" lengthAdjust="spacing" textLength="74" x="546.5" y="119.6541">Product Service</text><rect fill="#FFFFFF" height="27.62" rx="2.5" ry="2.5" style="stroke:#000000;stroke-width:1.0;" width="88" x="539.5" y="2388.5631"/><text fill="#000000" font-family="Arial" font-size="10" lengthAdjust="spacing" textLength="74" x="546.5" y="2406.2531">Product Service</text><rect fill="#FFFFFF" height="27.62" rx="2.5" ry="2.5" style="stroke:#000000;stroke-width:1.0;" width="74" x="657.5" y="101.9641"/><text fill="#000000" font-family="Arial" font-size="10" lengthAdjust="spacing" textLength="60" x="664.5" y="119.6541">API Gateway</text><rect fill="#FFFFFF" height="27.62" rx="2.5" ry="2.5" style="stroke:#000000;stroke-width:1.0;" width="74" x="657.5" y="2388.5631"/><text fill="#000000" font-family="Arial" font-size="10" lengthAdjust="spacing" textLength="60" x="664.5" y="2406.2531">API Gateway</text><rect fill="#FFFFFF" height="27.62" rx="2.5" ry="2.5" style="stroke:#000000;stroke-width:1.0;" width="96" x="761.5" y="101.9641"/><text fill="#000000" font-family="Arial" font-size="10" lengthAdjust="spacing" textLength="82" x="768.5" y="119.6541">Auth Middleware</text><rect fill="#FFFFFF" height="27.62" rx="2.5" ry="2.5" style="stroke:#000000;stroke-width:1.0;" width="96" x="761.5" y="2388.5631"/><text fill="#000000" font-family="Arial" font-size="10" lengthAdjust="spacing" textLength="82" x="768.5" y="2406.2531">Auth Middleware</text><rect fill="#FFFFFF" height="27.62" rx="2.5" ry="2.5" style="stroke:#000000;stroke-width:1.0;" width="93" x="889" y="101.9641"/><text fill="#000000" font-family="Arial" font-size="10" lengthAdjust="spacing" textLength="79" x="896" y="119.6541">Order Controller</text><rect fill="#FFFFFF" height="27.62" rx="2.5" ry="2.5" style="stroke:#000000;stroke-width:1.0;" width="93" x="889" y="2388.5631"/><text fill="#000000" font-family="Arial" font-size="10" lengthAdjust="spacing" textLength="79" x="896" y="2406.2531">Order Controller</text><rect fill="#FFFFFF" height="27.62" rx="2.5" ry="2.5" style="stroke:#000000;stroke-width:1.0;" width="60" x="1146.5" y="101.9641"/><text fill="#000000" font-family="Arial" font-size="10" lengthAdjust="spacing" textLength="46" x="1153.5" y="119.6541">Database</text><rect fill="#FFFFFF" height="27.62" rx="2.5" ry="2.5" style="stroke:#000000;stroke-width:1.0;" width="60" x="1146.5" y="2388.5631"/><text fill="#000000" font-family="Arial" font-size="10" lengthAdjust="spacing" textLength="46" x="1153.5" y="2406.2531">Database</text><rect fill="#FFFFFF" height="27.62" rx="2.5" ry="2.5" style="stroke:#000000;stroke-width:1.0;" width="101" x="1236.5" y="101.9641"/><text fill="#000000" font-family="Arial" font-size="10" lengthAdjust="spacing" textLength="87" x="1243.5" y="119.6541">Payment Gateway</text><rect fill="#FFFFFF" height="27.62" rx="2.5" ry="2.5" style="stroke:#000000;stroke-width:1.0;" width="101" x="1236.5" y="2388.5631"/><text fill="#000000" font-family="Arial" font-size="10" lengthAdjust="spacing" textLength="87" x="1243.5" y="2406.2531">Payment Gateway</text><rect fill="#FFFFFF" height="27.62" rx="2.5" ry="2.5" style="stroke:#000000;stroke-width:1.0;" width="78" x="1367.5" y="101.9641"/><text fill="#000000" font-family="Arial" font-size="10" lengthAdjust="spacing" textLength="64" x="1374.5" y="119.6541">Email Service</text><rect fill="#FFFFFF" height="27.62" rx="2.5" ry="2.5" style="stroke:#000000;stroke-width:1.0;" width="78" x="1367.5" y="2388.5631"/><text fill="#000000" font-family="Arial" font-size="10" lengthAdjust="spacing" textLength="64" x="1374.5" y="2406.2531">Email Service</text><rect fill="#FFFFFF" height="3" style="stroke:#FFFFFF;stroke-width:1.0;" width="1470.5" x="5" y="160.3941"/><line style="stroke:#000000;stroke-width:0.5;" x1="5" x2="1475.5" y1="160.3941" y2="160.3941"/><line style="stroke:#000000;stroke-width:0.5;" x1="5" x2="1475.5" y1="163.3941" y2="163.3941"/><rect fill="#FFFFFF" height="21.62" style="stroke:#000000;stroke-width:1.0;" width="149" x="665.75" y="150.5841"/><text fill="#000000" font-family="Arial" font-size="10" font-weight="bold" lengthAdjust="spacing" textLength="132" x="671.75" y="165.2741">Browsing &amp; Adding to Cart</text><polygon fill="#000000" points="161,197.8241,171,201.8241,161,205.8241,165,201.8241" style="stroke:#000000;stroke-width:1.0;"/><line style="stroke:#000000;stroke-width:1.0;" x1="51" x2="167" y1="201.8241" y2="201.8241"/><text fill="#000000" font-family="Arial" font-size="10" lengthAdjust="spacing" textLength="81" x="58" y="196.8941">Browse products</text><polygon fill="#000000" points="571.5,225.4441,581.5,229.4441,571.5,233.4441,575.5,229.4441" style="stroke:#000000;stroke-width:1.0;"/><line style="stroke:#000000;stroke-width:1.0;" x1="173" x2="577.5" y1="229.4441" y2="229.4441"/><text fill="#000000" font-family="Arial" font-size="10" lengthAdjust="spacing" textLength="92" x="180" y="224.5141">getProducts(filters)</text><polygon fill="#000000" points="682.5,253.064,692.5,257.064,682.5,261.064,686.5,257.064" style="stroke:#000000;stroke-width:1.0;"/><line style="stroke:#000000;stroke-width:1.0;" x1="583.5" x2="688.5" y1="257.064" y2="257.064"/><text fill="#000000" font-family="Arial" font-size="10" lengthAdjust="spacing" textLength="87" x="590.5" y="252.134">GET /api/products</text><polygon fill="#000000" points="594.5,280.684,584.5,284.684,594.5,288.684,590.5,284.684" style="stroke:#000000;stroke-width:1.0;"/><line style="stroke:#000000;stroke-width:1.0;stroke-dasharray:2.0,2.0;" x1="588.5" x2="693.5" y1="284.684" y2="284.684"/><text fill="#000000" font-family="Arial" font-size="10" lengthAdjust="spacing" textLength="42" x="600.5" y="279.754">Products</text><polygon fill="#000000" points="184,308.304,174,312.304,184,316.304,180,312.304" style="stroke:#000000;stroke-width:1.0;"/><line style="stroke:#000000;stroke-width:1.0;stroke-dasharray:2.0,2.0;" x1="178" x2="582.5" y1="312.304" y2="312.304"/><text fill="#000000" font-family="Arial" font-size="10" lengthAdjust="spacing" textLength="55" x="190" y="307.374">Product list</text><polygon fill="#000000" points="161,335.924,171,339.924,161,343.924,165,339.924" style="stroke:#000000;stroke-width:1.0;"/><line style="stroke:#000000;stroke-width:1.0;" x1="51" x2="167" y1="339.924" y2="339.924"/><text fill="#000000" font-family="Arial" font-size="10" lengthAdjust="spacing" textLength="79" x="58" y="334.994">Click Add to Cart</text><polygon fill="#000000" points="344,363.544,354,367.544,344,371.544,348,367.544" style="stroke:#000000;stroke-width:1.0;"/><line style="stroke:#000000;stroke-width:1.0;" x1="173" x2="350" y1="367.544" y2="367.544"/><text fill="#000000" font-family="Arial" font-size="10" lengthAdjust="spacing" textLength="83" x="180" y="362.614">addItem(product)</text><polygon fill="#000000" points="458,391.164,468,395.164,458,399.164,462,395.164" style="stroke:#000000;stroke-width:1.0;"/><line style="stroke:#000000;stroke-width:1.0;" x1="356" x2="464" y1="395.164" y2="395.164"/><text fill="#000000" font-family="Arial" font-size="10" lengthAdjust="spacing" textLength="90" x="363" y="390.234">Store updated cart</text><polygon fill="#000000" points="184,418.784,174,422.784,184,426.784,180,422.784" style="stroke:#000000;stroke-width:1.0;"/><line style="stroke:#000000;stroke-width:1.0;stroke-dasharray:2.0,2.0;" x1="178" x2="355" y1="422.784" y2="422.784"/><text fill="#000000" font-family="Arial" font-size="10" lengthAdjust="spacing" textLength="63" x="190" y="417.854">Cart updated</text><line style="stroke:#000000;stroke-width:1.0;" x1="173" x2="215" y1="450.404" y2="450.404"/><line style="stroke:#000000;stroke-width:1.0;" x1="215" x2="215" y1="450.404" y2="463.404"/><line style="stroke:#000000;stroke-width:1.0;" x1="174" x2="215" y1="463.404" y2="463.404"/><polygon fill="#000000" points="184,459.404,174,463.404,184,467.404,180,463.404" style="stroke:#000000;stroke-width:1.0;"/><text fill="#000000" font-family="Arial" font-size="10" lengthAdjust="spacing" textLength="83" x="180" y="445.474">Show notification</text><rect fill="#FFFFFF" height="3" style="stroke:#FFFFFF;stroke-width:1.0;" width="1470.5" x="5" y="491.2139"/><line style="stroke:#000000;stroke-width:0.5;" x1="5" x2="1475.5" y1="491.2139" y2="491.2139"/><line style="stroke:#000000;stroke-width:0.5;" x1="5" x2="1475.5" y1="494.2139" y2="494.2139"/><rect fill="#FFFFFF" height="21.62" style="stroke:#000000;stroke-width:1.0;" width="107" x="686.75" y="481.404"/><text fill="#000000" font-family="Arial" font-size="10" font-weight="bold" lengthAdjust="spacing" textLength="90" x="692.75" y="496.0939">Cart Management</text><polygon fill="#000000" points="161,528.6439,171,532.6439,161,536.6439,165,532.6439" style="stroke:#000000;stroke-width:1.0;"/><line style="stroke:#000000;stroke-width:1.0;" x1="51" x2="167" y1="532.6439" y2="532.6439"/><text fill="#000000" font-family="Arial" font-size="10" lengthAdjust="spacing" textLength="45" x="58" y="527.7139">View cart</text><polygon fill="#000000" points="344,556.2639,354,560.2639,344,564.2639,348,560.2639" style="stroke:#000000;stroke-width:1.0;"/><line style="stroke:#000000;stroke-width:1.0;" x1="173" x2="350" y1="560.2639" y2="560.2639"/><text fill="#000000" font-family="Arial" font-size="10" lengthAdjust="spacing" textLength="42" x="180" y="555.3339">getCart()</text><polygon fill="#000000" points="458,583.8839,468,587.8839,458,591.8839,462,587.8839" style="stroke:#000000;stroke-width:1.0;"/><line style="stroke:#000000;stroke-width:1.0;" x1="356" x2="464" y1="587.8839" y2="587.8839"/><text fill="#000000" font-family="Arial" font-size="10" lengthAdjust="spacing" textLength="45" x="363" y="582.9539">Load cart</text><polygon fill="#000000" points="184,611.5039,174,615.5039,184,619.5039,180,615.5039" style="stroke:#000000;stroke-width:1.0;"/><line style="stroke:#000000;stroke-width:1.0;stroke-dasharray:2.0,2.0;" x1="178" x2="355" y1="615.5039" y2="615.5039"/><text fill="#000000" font-family="Arial" font-size="10" lengthAdjust="spacing" textLength="48" x="190" y="610.5739">Cart state</text><polygon fill="#000000" points="161,639.1239,171,643.1239,161,647.1239,165,643.1239" style="stroke:#000000;stroke-width:1.0;"/><line style="stroke:#000000;stroke-width:1.0;" x1="51" x2="167" y1="643.1239" y2="643.1239"/><text fill="#000000" font-family="Arial" font-size="10" lengthAdjust="spacing" textLength="78" x="58" y="638.1939">Update quantity</text><polygon fill="#000000" points="344,666.7439,354,670.7439,344,674.7439,348,670.7439" style="stroke:#000000;stroke-width:1.0;"/><line style="stroke:#000000;stroke-width:1.0;" x1="173" x2="350" y1="670.7439" y2="670.7439"/><text fill="#000000" font-family="Arial" font-size="10" lengthAdjust="spacing" textLength="159" x="180" y="665.8139">updateQuantity(itemId, quantity)</text><polygon fill="#000000" points="458,694.3639,468,698.3639,458,702.3639,462,698.3639" style="stroke:#000000;stroke-width:1.0;"/><line style="stroke:#000000;stroke-width:1.0;" x1="356" x2="464" y1="698.3639" y2="698.3639"/><text fill="#000000" font-family="Arial" font-size="10" lengthAdjust="spacing" textLength="44" x="363" y="693.4339">Save cart</text><polygon fill="#000000" points="161,721.9838,171,725.9838,161,729.9838,165,725.9838" style="stroke:#000000;stroke-width:1.0;"/><line style="stroke:#000000;stroke-width:1.0;" x1="51" x2="167" y1="725.9838" y2="725.9838"/><text fill="#000000" font-family="Arial" font-size="10" lengthAdjust="spacing" textLength="63" x="58" y="721.0538">Remove item</text><polygon fill="#000000" points="344,749.6038,354,753.6038,344,757.6038,348,753.6038" style="stroke:#000000;stroke-width:1.0;"/><line style="stroke:#000000;stroke-width:1.0;" x1="173" x2="350" y1="753.6038" y2="753.6038"/><text fill="#000000" font-family="Arial" font-size="10" lengthAdjust="spacing" textLength="95" x="180" y="748.6738">removeItem(itemId)</text><polygon fill="#000000" points="458,777.2238,468,781.2238,458,785.2238,462,781.2238" style="stroke:#000000;stroke-width:1.0;"/><line style="stroke:#000000;stroke-width:1.0;" x1="356" x2="464" y1="781.2238" y2="781.2238"/><text fill="#000000" font-family="Arial" font-size="10" lengthAdjust="spacing" textLength="85" x="363" y="776.2938">Remove from cart</text><rect fill="#FFFFFF" height="3" style="stroke:#FFFFFF;stroke-width:1.0;" width="1470.5" x="5" y="809.0338"/><line style="stroke:#000000;stroke-width:0.5;" x1="5" x2="1475.5" y1="809.0338" y2="809.0338"/><line style="stroke:#000000;stroke-width:0.5;" x1="5" x2="1475.5" y1="812.0338" y2="812.0338"/><rect fill="#FFFFFF" height="21.62" style="stroke:#000000;stroke-width:1.0;" width="114" x="683.25" y="799.2238"/><text fill="#000000" font-family="Arial" font-size="10" font-weight="bold" lengthAdjust="spacing" textLength="97" x="689.25" y="813.9138">Checkout Initiation</text><polygon fill="#000000" points="161,846.4638,171,850.4638,161,854.4638,165,850.4638" style="stroke:#000000;stroke-width:1.0;"/><line style="stroke:#000000;stroke-width:1.0;" x1="51" x2="167" y1="850.4638" y2="850.4638"/><text fill="#000000" font-family="Arial" font-size="10" lengthAdjust="spacing" textLength="98" x="58" y="845.5338">Proceed to checkout</text><polygon fill="#000000" points="797.5,874.0838,807.5,878.0838,797.5,882.0838,801.5,878.0838" style="stroke:#000000;stroke-width:1.0;"/><line style="stroke:#000000;stroke-width:1.0;" x1="173" x2="803.5" y1="878.0838" y2="878.0838"/><text fill="#000000" font-family="Arial" font-size="10" lengthAdjust="spacing" textLength="104" x="180" y="873.1538">checkAuthentication()</text><path d="M124.5,893.0838 L182.5,893.0838 L182.5,898.7038 L172.5,908.7038 L124.5,908.7038 L124.5,893.0838 " fill="#FFFFFF" style="stroke:#000000;stroke-width:1.0;"/><rect fill="none" height="140.0999" style="stroke:#000000;stroke-width:1.0;" width="753" x="124.5" y="893.0838"/><text fill="#000000" font-family="Arial" font-size="10" font-weight="bold" lengthAdjust="spacing" textLength="13" x="139.5" y="904.7738">alt</text><text fill="#000000" font-family="Arial" font-size="10" font-weight="bold" lengthAdjust="spacing" textLength="99" x="197.5" y="905.7738">[Not Authenticated]</text><polygon fill="#000000" points="184,924.3238,174,928.3238,184,932.3238,180,928.3238" style="stroke:#000000;stroke-width:1.0;"/><line style="stroke:#000000;stroke-width:1.0;stroke-dasharray:2.0,2.0;" x1="178" x2="808.5" y1="928.3238" y2="928.3238"/><text fill="#000000" font-family="Arial" font-size="10" lengthAdjust="spacing" textLength="89" x="190" y="923.3938">Not authenticated</text><line style="stroke:#000000;stroke-width:1.0;" x1="173" x2="215" y1="955.9437" y2="955.9437"/><line style="stroke:#000000;stroke-width:1.0;" x1="215" x2="215" y1="955.9437" y2="968.9437"/><line style="stroke:#000000;stroke-width:1.0;" x1="174" x2="215" y1="968.9437" y2="968.9437"/><polygon fill="#000000" points="184,964.9437,174,968.9437,184,972.9437,180,968.9437" style="stroke:#000000;stroke-width:1.0;"/><text fill="#000000" font-family="Arial" font-size="10" lengthAdjust="spacing" textLength="80" x="180" y="951.0137">Redirect to login</text><line style="stroke:#000000;stroke-width:1.0;stroke-dasharray:2.0,2.0;" x1="124.5" x2="877.5" y1="977.9437" y2="977.9437"/><text fill="#000000" font-family="Arial" font-size="10" font-weight="bold" lengthAdjust="spacing" textLength="78" x="129.5" y="988.6337">[Authenticated]</text><line style="stroke:#000000;stroke-width:1.0;" x1="173" x2="215" y1="1012.1837" y2="1012.1837"/><line style="stroke:#000000;stroke-width:1.0;" x1="215" x2="215" y1="1012.1837" y2="1025.1837"/><line style="stroke:#000000;stroke-width:1.0;" x1="174" x2="215" y1="1025.1837" y2="1025.1837"/><polygon fill="#000000" points="184,1021.1837,174,1025.1837,184,1029.1837,180,1025.1837" style="stroke:#000000;stroke-width:1.0;"/><text fill="#000000" font-family="Arial" font-size="10" lengthAdjust="spacing" textLength="106" x="180" y="1007.2537">Display checkout form</text><rect fill="#FFFFFF" height="3" style="stroke:#FFFFFF;stroke-width:1.0;" width="1470.5" x="5" y="1059.9937"/><line style="stroke:#000000;stroke-width:0.5;" x1="5" x2="1475.5" y1="1059.9937" y2="1059.9937"/><line style="stroke:#000000;stroke-width:0.5;" x1="5" x2="1475.5" y1="1062.9937" y2="1062.9937"/><rect fill="#FFFFFF" height="21.62" style="stroke:#000000;stroke-width:1.0;" width="104" x="688.25" y="1050.1837"/><text fill="#000000" font-family="Arial" font-size="10" font-weight="bold" lengthAdjust="spacing" textLength="87" x="694.25" y="1064.8737">Checkout Process</text><polygon fill="#000000" points="161,1097.4237,171,1101.4237,161,1105.4237,165,1101.4237" style="stroke:#000000;stroke-width:1.0;"/><line style="stroke:#000000;stroke-width:1.0;" x1="51" x2="167" y1="1101.4237" y2="1101.4237"/><text fill="#000000" font-family="Arial" font-size="10" lengthAdjust="spacing" textLength="62" x="58" y="1096.4937">Enter details</text><polygon fill="#000000" points="682.5,1125.0437,692.5,1129.0437,682.5,1133.0437,686.5,1129.0437" style="stroke:#000000;stroke-width:1.0;"/><line style="stroke:#000000;stroke-width:1.0;" x1="173" x2="688.5" y1="1129.0437" y2="1129.0437"/><text fill="#000000" font-family="Arial" font-size="10" lengthAdjust="spacing" textLength="137" x="180" y="1124.1137">POST /api/orders (with auth)</text><polygon fill="#000000" points="797.5,1152.6637,807.5,1156.6637,797.5,1160.6637,801.5,1156.6637" style="stroke:#000000;stroke-width:1.0;"/><line style="stroke:#000000;stroke-width:1.0;" x1="694.5" x2="803.5" y1="1156.6637" y2="1156.6637"/><text fill="#000000" font-family="Arial" font-size="10" lengthAdjust="spacing" textLength="63" x="701.5" y="1151.7337">requireAuth()</text><polygon fill="#000000" points="705.5,1180.2837,695.5,1184.2837,705.5,1188.2837,701.5,1184.2837" style="stroke:#000000;stroke-width:1.0;"/><line style="stroke:#000000;stroke-width:1.0;stroke-dasharray:2.0,2.0;" x1="699.5" x2="808.5" y1="1184.2837" y2="1184.2837"/><text fill="#000000" font-family="Arial" font-size="10" lengthAdjust="spacing" textLength="54" x="711.5" y="1179.3537">Valid token</text><polygon fill="#000000" points="923.5,1207.9036,933.5,1211.9036,923.5,1215.9036,927.5,1211.9036" style="stroke:#000000;stroke-width:1.0;"/><line style="stroke:#000000;stroke-width:1.0;" x1="809.5" x2="929.5" y1="1211.9036" y2="1211.9036"/><text fill="#000000" font-family="Arial" font-size="10" lengthAdjust="spacing" textLength="102" x="816.5" y="1206.9736">createOrder(req, res)</text><polygon fill="#000000" points="1164.5,1235.5236,1174.5,1239.5236,1164.5,1243.5236,1168.5,1239.5236" style="stroke:#000000;stroke-width:1.0;"/><line style="stroke:#000000;stroke-width:1.0;" x1="935.5" x2="1170.5" y1="1239.5236" y2="1239.5236"/><text fill="#000000" font-family="Arial" font-size="10" lengthAdjust="spacing" textLength="102" x="942.5" y="1234.5936">BEGIN TRANSACTION</text><polygon fill="#000000" points="1164.5,1263.1436,1174.5,1267.1436,1164.5,1271.1436,1168.5,1267.1436" style="stroke:#000000;stroke-width:1.0;"/><line style="stroke:#000000;stroke-width:1.0;" x1="935.5" x2="1170.5" y1="1267.1436" y2="1267.1436"/><text fill="#000000" font-family="Arial" font-size="10" lengthAdjust="spacing" textLength="102" x="942.5" y="1262.2136">Check stock for items</text><polygon fill="#000000" points="946.5,1290.7636,936.5,1294.7636,946.5,1298.7636,942.5,1294.7636" style="stroke:#000000;stroke-width:1.0;"/><line style="stroke:#000000;stroke-width:1.0;stroke-dasharray:2.0,2.0;" x1="940.5" x2="1175.5" y1="1294.7636" y2="1294.7636"/><text fill="#000000" font-family="Arial" font-size="10" lengthAdjust="spacing" textLength="56" x="952.5" y="1289.8336">Stock levels</text><polygon fill="#000000" points="1164.5,1318.3836,1174.5,1322.3836,1164.5,1326.3836,1168.5,1322.3836" style="stroke:#000000;stroke-width:1.0;"/><line style="stroke:#000000;stroke-width:1.0;" x1="935.5" x2="1170.5" y1="1322.3836" y2="1322.3836"/><text fill="#000000" font-family="Arial" font-size="10" lengthAdjust="spacing" textLength="96" x="942.5" y="1317.4536">INSERT INTO orders</text><polygon fill="#000000" points="946.5,1346.0036,936.5,1350.0036,946.5,1354.0036,942.5,1350.0036" style="stroke:#000000;stroke-width:1.0;"/><line style="stroke:#000000;stroke-width:1.0;stroke-dasharray:2.0,2.0;" x1="940.5" x2="1175.5" y1="1350.0036" y2="1350.0036"/><text fill="#000000" font-family="Arial" font-size="10" lengthAdjust="spacing" textLength="41" x="952.5" y="1345.0736">Order ID</text><polygon fill="#000000" points="1164.5,1373.6236,1174.5,1377.6236,1164.5,1381.6236,1168.5,1377.6236" style="stroke:#000000;stroke-width:1.0;"/><line style="stroke:#000000;stroke-width:1.0;" x1="935.5" x2="1170.5" y1="1377.6236" y2="1377.6236"/><text fill="#000000" font-family="Arial" font-size="10" lengthAdjust="spacing" textLength="122" x="942.5" y="1372.6936">INSERT INTO order_items</text><polygon fill="#000000" points="946.5,1401.2436,936.5,1405.2436,946.5,1409.2436,942.5,1405.2436" style="stroke:#000000;stroke-width:1.0;"/><line style="stroke:#000000;stroke-width:1.0;stroke-dasharray:2.0,2.0;" x1="940.5" x2="1175.5" y1="1405.2436" y2="1405.2436"/><text fill="#000000" font-family="Arial" font-size="10" lengthAdjust="spacing" textLength="70" x="952.5" y="1400.3136">Items inserted</text><polygon fill="#000000" points="1164.5,1428.8635,1174.5,1432.8635,1164.5,1436.8635,1168.5,1432.8635" style="stroke:#000000;stroke-width:1.0;"/><line style="stroke:#000000;stroke-width:1.0;" x1="935.5" x2="1170.5" y1="1432.8635" y2="1432.8635"/><text fill="#000000" font-family="Arial" font-size="10" lengthAdjust="spacing" textLength="217" x="942.5" y="1427.9335">UPDATE products SET stock = stock - quantity</text><polygon fill="#000000" points="946.5,1456.4835,936.5,1460.4835,946.5,1464.4835,942.5,1460.4835" style="stroke:#000000;stroke-width:1.0;"/><line style="stroke:#000000;stroke-width:1.0;stroke-dasharray:2.0,2.0;" x1="940.5" x2="1175.5" y1="1460.4835" y2="1460.4835"/><text fill="#000000" font-family="Arial" font-size="10" lengthAdjust="spacing" textLength="88" x="952.5" y="1455.5535">Inventory updated</text><polygon fill="#000000" points="1164.5,1484.1035,1174.5,1488.1035,1164.5,1492.1035,1168.5,1488.1035" style="stroke:#000000;stroke-width:1.0;"/><line style="stroke:#000000;stroke-width:1.0;" x1="935.5" x2="1170.5" y1="1488.1035" y2="1488.1035"/><text fill="#000000" font-family="Arial" font-size="10" lengthAdjust="spacing" textLength="41" x="942.5" y="1483.1735">COMMIT</text><polygon fill="#000000" points="705.5,1511.7235,695.5,1515.7235,705.5,1519.7235,701.5,1515.7235" style="stroke:#000000;stroke-width:1.0;"/><line style="stroke:#000000;stroke-width:1.0;stroke-dasharray:2.0,2.0;" x1="699.5" x2="934.5" y1="1515.7235" y2="1515.7235"/><text fill="#000000" font-family="Arial" font-size="10" lengthAdjust="spacing" textLength="89" x="711.5" y="1510.7935">Order created 201</text><polygon fill="#000000" points="184,1539.3435,174,1543.3435,184,1547.3435,180,1543.3435" style="stroke:#000000;stroke-width:1.0;"/><line style="stroke:#000000;stroke-width:1.0;stroke-dasharray:2.0,2.0;" x1="178" x2="693.5" y1="1543.3435" y2="1543.3435"/><text fill="#000000" font-family="Arial" font-size="10" lengthAdjust="spacing" textLength="75" x="190" y="1538.4135">Order response</text><rect fill="#FFFFFF" height="3" style="stroke:#FFFFFF;stroke-width:1.0;" width="1470.5" x="5" y="1571.1535"/><line style="stroke:#000000;stroke-width:0.5;" x1="5" x2="1475.5" y1="1571.1535" y2="1571.1535"/><line style="stroke:#000000;stroke-width:0.5;" x1="5" x2="1475.5" y1="1574.1535" y2="1574.1535"/><rect fill="#FFFFFF" height="21.62" style="stroke:#000000;stroke-width:1.0;" width="118" x="681.25" y="1561.3435"/><text fill="#000000" font-family="Arial" font-size="10" font-weight="bold" lengthAdjust="spacing" textLength="101" x="687.25" y="1576.0335">Payment Processing</text><polygon fill="#000000" points="1275,1608.5835,1285,1612.5835,1275,1616.5835,1279,1612.5835" style="stroke:#000000;stroke-width:1.0;"/><line style="stroke:#000000;stroke-width:1.0;" x1="173" x2="1281" y1="1612.5835" y2="1612.5835"/><text fill="#000000" font-family="Arial" font-size="10" lengthAdjust="spacing" textLength="87" x="180" y="1607.6535">Initialize payment</text><polygon fill="#000000" points="1275,1636.2035,1285,1640.2035,1275,1644.2035,1279,1640.2035" style="stroke:#000000;stroke-width:1.0;"/><line style="stroke:#000000;stroke-width:1.0;" x1="51" x2="1281" y1="1640.2035" y2="1640.2035"/><text fill="#000000" font-family="Arial" font-size="10" lengthAdjust="spacing" textLength="107" x="58" y="1635.2735">Enter payment details</text><polygon fill="#000000" points="184,1663.8234,174,1667.8234,184,1671.8234,180,1667.8234" style="stroke:#000000;stroke-width:1.0;"/><line style="stroke:#000000;stroke-width:1.0;stroke-dasharray:2.0,2.0;" x1="178" x2="1286" y1="1667.8234" y2="1667.8234"/><text fill="#000000" font-family="Arial" font-size="10" lengthAdjust="spacing" textLength="73" x="190" y="1662.8934">Payment result</text><path d="M15,1682.8234 L73,1682.8234 L73,1688.4434 L63,1698.4434 L15,1698.4434 L15,1682.8234 " fill="#FFFFFF" style="stroke:#000000;stroke-width:1.0;"/><rect fill="none" height="305.8199" style="stroke:#000000;stroke-width:1.0;" width="1450.5" x="15" y="1682.8234"/><text fill="#000000" font-family="Arial" font-size="10" font-weight="bold" lengthAdjust="spacing" textLength="13" x="30" y="1694.5134">alt</text><text fill="#000000" font-family="Arial" font-size="10" font-weight="bold" lengthAdjust="spacing" textLength="93" x="88" y="1695.5134">[Payment Success]</text><polygon fill="#000000" points="705.5,1714.0634,695.5,1718.0634,705.5,1722.0634,701.5,1718.0634" style="stroke:#000000;stroke-width:1.0;"/><line style="stroke:#000000;stroke-width:1.0;" x1="699.5" x2="1286" y1="1718.0634" y2="1718.0634"/><text fill="#000000" font-family="Arial" font-size="10" lengthAdjust="spacing" textLength="139" x="711.5" y="1713.1334">POST /api/payments/success</text><polygon fill="#000000" points="923.5,1741.6834,933.5,1745.6834,923.5,1749.6834,927.5,1745.6834" style="stroke:#000000;stroke-width:1.0;"/><line style="stroke:#000000;stroke-width:1.0;" x1="694.5" x2="929.5" y1="1745.6834" y2="1745.6834"/><text fill="#000000" font-family="Arial" font-size="10" lengthAdjust="spacing" textLength="116" x="701.5" y="1740.7534">updateOrderStatus paid</text><polygon fill="#000000" points="1164.5,1769.3034,1174.5,1773.3034,1164.5,1777.3034,1168.5,1773.3034" style="stroke:#000000;stroke-width:1.0;"/><line style="stroke:#000000;stroke-width:1.0;" x1="935.5" x2="1170.5" y1="1773.3034" y2="1773.3034"/><text fill="#000000" font-family="Arial" font-size="10" lengthAdjust="spacing" textLength="158" x="942.5" y="1768.3734">UPDATE orders SET status = paid</text><polygon fill="#000000" points="1394.5,1796.9234,1404.5,1800.9234,1394.5,1804.9234,1398.5,1800.9234" style="stroke:#000000;stroke-width:1.0;"/><line style="stroke:#000000;stroke-width:1.0;" x1="935.5" x2="1400.5" y1="1800.9234" y2="1800.9234"/><text fill="#000000" font-family="Arial" font-size="10" lengthAdjust="spacing" textLength="113" x="942.5" y="1795.9934">sendOrderConfirmation</text><polygon fill="#000000" points="62,1824.5434,52,1828.5434,62,1832.5434,58,1828.5434" style="stroke:#000000;stroke-width:1.0;"/><line style="stroke:#000000;stroke-width:1.0;stroke-dasharray:2.0,2.0;" x1="56" x2="1405.5" y1="1828.5434" y2="1828.5434"/><text fill="#000000" font-family="Arial" font-size="10" lengthAdjust="spacing" textLength="91" x="68" y="1823.6134">Email confirmation</text><line style="stroke:#000000;stroke-width:1.0;" x1="173" x2="215" y1="1856.1634" y2="1856.1634"/><line style="stroke:#000000;stroke-width:1.0;" x1="215" x2="215" y1="1856.1634" y2="1869.1634"/><line style="stroke:#000000;stroke-width:1.0;" x1="174" x2="215" y1="1869.1634" y2="1869.1634"/><polygon fill="#000000" points="184,1865.1634,174,1869.1634,184,1873.1634,180,1869.1634" style="stroke:#000000;stroke-width:1.0;"/><text fill="#000000" font-family="Arial" font-size="10" lengthAdjust="spacing" textLength="92" x="180" y="1851.2334">Show success page</text><line style="stroke:#000000;stroke-width:1.0;stroke-dasharray:2.0,2.0;" x1="15" x2="1465.5" y1="1878.1634" y2="1878.1634"/><text fill="#000000" font-family="Arial" font-size="10" font-weight="bold" lengthAdjust="spacing" textLength="83" x="20" y="1888.8533">[Payment Failed]</text><polygon fill="#000000" points="946.5,1908.4033,936.5,1912.4033,946.5,1916.4033,942.5,1912.4033" style="stroke:#000000;stroke-width:1.0;"/><line style="stroke:#000000;stroke-width:1.0;" x1="940.5" x2="1286" y1="1912.4033" y2="1912.4033"/><text fill="#000000" font-family="Arial" font-size="10" lengthAdjust="spacing" textLength="59" x="952.5" y="1907.4733">cancelOrder</text><polygon fill="#000000" points="1164.5,1936.0233,1174.5,1940.0233,1164.5,1944.0233,1168.5,1940.0233" style="stroke:#000000;stroke-width:1.0;"/><line style="stroke:#000000;stroke-width:1.0;" x1="935.5" x2="1170.5" y1="1940.0233" y2="1940.0233"/><text fill="#000000" font-family="Arial" font-size="10" lengthAdjust="spacing" textLength="183" x="942.5" y="1935.0933">UPDATE orders SET status = cancelled</text><line style="stroke:#000000;stroke-width:1.0;" x1="173" x2="215" y1="1967.6433" y2="1967.6433"/><line style="stroke:#000000;stroke-width:1.0;" x1="215" x2="215" y1="1967.6433" y2="1980.6433"/><line style="stroke:#000000;stroke-width:1.0;" x1="174" x2="215" y1="1980.6433" y2="1980.6433"/><polygon fill="#000000" points="184,1976.6433,174,1980.6433,184,1984.6433,180,1980.6433" style="stroke:#000000;stroke-width:1.0;"/><text fill="#000000" font-family="Arial" font-size="10" lengthAdjust="spacing" textLength="52" x="180" y="1962.7133">Show error</text><rect fill="#FFFFFF" height="3" style="stroke:#FFFFFF;stroke-width:1.0;" width="1470.5" x="5" y="2015.4533"/><line style="stroke:#000000;stroke-width:0.5;" x1="5" x2="1475.5" y1="2015.4533" y2="2015.4533"/><line style="stroke:#000000;stroke-width:0.5;" x1="5" x2="1475.5" y1="2018.4533" y2="2018.4533"/><rect fill="#FFFFFF" height="21.62" style="stroke:#000000;stroke-width:1.0;" width="69" x="705.75" y="2005.6433"/><text fill="#000000" font-family="Arial" font-size="10" font-weight="bold" lengthAdjust="spacing" textLength="52" x="711.75" y="2020.3333">Post-Order</text><polygon fill="#000000" points="161,2052.8833,171,2056.8833,161,2060.8833,165,2056.8833" style="stroke:#000000;stroke-width:1.0;"/><line style="stroke:#000000;stroke-width:1.0;" x1="51" x2="167" y1="2056.8833" y2="2056.8833"/><text fill="#000000" font-family="Arial" font-size="10" lengthAdjust="spacing" textLength="85" x="58" y="2051.9533">View order status</text><polygon fill="#000000" points="682.5,2080.5033,692.5,2084.5033,682.5,2088.5033,686.5,2084.5033" style="stroke:#000000;stroke-width:1.0;"/><line style="stroke:#000000;stroke-width:1.0;" x1="173" x2="688.5" y1="2084.5033" y2="2084.5033"/><text fill="#000000" font-family="Arial" font-size="10" lengthAdjust="spacing" textLength="92" x="180" y="2079.5733">GET /api/orders/:id</text><polygon fill="#000000" points="923.5,2108.1233,933.5,2112.1233,923.5,2116.1233,927.5,2112.1233" style="stroke:#000000;stroke-width:1.0;"/><line style="stroke:#000000;stroke-width:1.0;" x1="694.5" x2="929.5" y1="2112.1233" y2="2112.1233"/><text fill="#000000" font-family="Arial" font-size="10" lengthAdjust="spacing" textLength="78" x="701.5" y="2107.1933">getOrderByUser</text><polygon fill="#000000" points="1164.5,2135.7432,1174.5,2139.7432,1164.5,2143.7432,1168.5,2139.7432" style="stroke:#000000;stroke-width:1.0;"/><line style="stroke:#000000;stroke-width:1.0;" x1="935.5" x2="1170.5" y1="2139.7432" y2="2139.7432"/><text fill="#000000" font-family="Arial" font-size="10" lengthAdjust="spacing" textLength="108" x="942.5" y="2134.8132">SELECT * FROM orders</text><polygon fill="#000000" points="946.5,2163.3632,936.5,2167.3632,946.5,2171.3632,942.5,2167.3632" style="stroke:#000000;stroke-width:1.0;"/><line style="stroke:#000000;stroke-width:1.0;stroke-dasharray:2.0,2.0;" x1="940.5" x2="1175.5" y1="2167.3632" y2="2167.3632"/><text fill="#000000" font-family="Arial" font-size="10" lengthAdjust="spacing" textLength="53" x="952.5" y="2162.4332">Order data</text><polygon fill="#000000" points="184,2190.9832,174,2194.9832,184,2198.9832,180,2194.9832" style="stroke:#000000;stroke-width:1.0;"/><line style="stroke:#000000;stroke-width:1.0;stroke-dasharray:2.0,2.0;" x1="178" x2="934.5" y1="2194.9832" y2="2194.9832"/><text fill="#000000" font-family="Arial" font-size="10" lengthAdjust="spacing" textLength="64" x="190" y="2190.0532">Order details</text><polygon fill="#000000" points="62,2218.6032,52,2222.6032,62,2226.6032,58,2222.6032" style="stroke:#000000;stroke-width:1.0;"/><line style="stroke:#000000;stroke-width:1.0;stroke-dasharray:2.0,2.0;" x1="56" x2="172" y1="2222.6032" y2="2222.6032"/><text fill="#000000" font-family="Arial" font-size="10" lengthAdjust="spacing" textLength="61" x="68" y="2217.6732">Order status</text><path d="M361,2235.6032 L361,2299.6032 L534,2299.6032 L534,2245.6032 L524,2235.6032 L361,2235.6032 " fill="#FFFFFF" style="stroke:#000000;stroke-width:1.0;"/><path d="M524,2235.6032 L524,2245.6032 L534,2245.6032 L524,2235.6032 " fill="#FFFFFF" style="stroke:#000000;stroke-width:1.0;"/><text fill="#000000" font-family="Arial" font-size="10" lengthAdjust="spacing" textLength="108" x="367" y="2251.2932">LocalStorage Strategy:</text><text fill="#000000" font-family="Arial" font-size="10" lengthAdjust="spacing" textLength="152" x="367" y="2264.9132">- Cart persisted across sessions</text><text fill="#000000" font-family="Arial" font-size="10" lengthAdjust="spacing" textLength="141" x="367" y="2278.5332">- Fast loading on return visits</text><text fill="#000000" font-family="Arial" font-size="10" lengthAdjust="spacing" textLength="96" x="367" y="2292.1532">- Automatic cleanup</text><path d="M752,2310.0832 L752,2374.0832 L1343,2374.0832 L1343,2320.0832 L1333,2310.0832 L752,2310.0832 " fill="#FFFFFF" style="stroke:#000000;stroke-width:1.0;"/><path d="M1333,2310.0832 L1333,2320.0832 L1343,2320.0832 L1333,2310.0832 " fill="#FFFFFF" style="stroke:#000000;stroke-width:1.0;"/><text fill="#000000" font-family="Arial" font-size="10" lengthAdjust="spacing" textLength="41" x="994" y="2325.7731">Security:</text><text fill="#000000" font-family="Arial" font-size="10" lengthAdjust="spacing" textLength="98" x="994" y="2339.3931">- JWT authentication</text><text fill="#000000" font-family="Arial" font-size="10" lengthAdjust="spacing" textLength="90" x="994" y="2353.0131">- HTTPS encryption</text><text fill="#000000" font-family="Arial" font-size="10" lengthAdjust="spacing" textLength="79" x="994" y="2366.6331">- PCI compliance</text><!--SRC=[bLPRR-8u57xFhpZRXn5T5NLc7v4OYQ7GpQe5bgIpZolNCM3LYJEsKyJ- -Zs-98rfw6ZwKC3dyxbyv-RVp86L36f1U9Ne5rxLH94IIbb9Ub0IHKOrh2VH1rB88w_si2D2zoK5sv56cAMip8hWnPdYH0pBC_uVWo-VayHm8nXa1rdNLkMSA0D6mlp0w8ji32o5F2O9eKOgk9etsg17wWg81Xf-9AZSSCfhKXcuMYhKpgh2GNRXHmnnDZAcNZbbNXCUn907IOc038sIlSTe_ps6RPGi6Xehg_rP39njKhWdXXt9oO58pSy0ZJd08oyAWHZbDH4yYr5hLJ05SmnAII423z8UnhWxOiWpqLvDyNpcD3cL3B_q_QdzMGnSb8IBA3PcJv9aEeLlIXwrJTWdc1M5_MAJPecTJfCsCp3-sgLWug-mbX-Tj1AB2eSJs3CJIDMZ7HU6ANsT1Aa58d4Jk5_aS8lVRZjT-0F6VJsjahUxaIzjuWJNveAxSy7fYmskZInos9RC14XHf8QLes3aEh77LXogPU9AY45J5qXsuGlDOs9RzYY08ZDl4EoG8rJIy1sdn71PkJIuYu-aGbikfnV9_yxPqPj_7mLoRlMC1jn_aEGdNck3Jbym-kGYWXyDbXCtfm7JFkQ_0s34aSoqkEbk315ANbdmQD3cbfKI4LRJW3tbf2vdtjQ0XQ01BvVUa2EwdKTfnGrt2RXCDbONPSmL3Wtt8bziOq-yoFOz9Yxa55D0X86LDD0JO4q0_jbRPncmGF8EE5n0MrPmnQYRhaBkSTWpdDu3TeQltt6DA-BK1GGxgSh4pjQ87XUwrfUvMU2dmarWS9B4Cy2rzcQTXTvsOqt3wCWnR1lajU_obZx5VZGOaFNVqjQIuxHy9u9R-bzO5IHV_PX4rXN3IDqW7Q6A6zI34oPnKWihdd5IBUxJ5UJRsIgRpVDqlOh5BbXRB_WVMN2rffFYsTaFPZ8d5UmLIOvlfwjiiStn8rzxyFbLF-JJkvzS-tV8hAri3RpIJDbqHXgUDdUpVD7DNyXmYleWfk5p_DQgPsghLwmHgKxTa8e9MJy-fdbxrYR1n-7vBk2Fpr-wAVrM3Hw3AQWb-knAgLrFePBiQi5YYfQ5Hqn2Bmhxb6WNMB_eEfolkV2pgxtszzbc2AVe4pvL4jUFxLdMKEkIwvBkzhl23H9zgtlmKBg1Jy-Y2px3-TdO1SnzzmsbBBI2JvY3JmSkkEKy0OrXECtuJDXnLVfbOP4EuC9jMK9gt1azXtwmWq9Kw02-Xjm8QUbPegemGthij7r7Aig4S-oNulJtn8UpoVd5b9Ag6qWRgStOLzV7Ez7xuSsz7qVTIyExTZj1qkDKul9qPhwTdh3fuhx85W-BUGw_mtAxVloesR4QIAzzpllZ_RICShZkXv3W6u61ulk30Rdp2mp0lMV3SnPdayBgsvycA1ZxBLwZP_WKmZubL4dChhQjXptf84kYyQc4Jm7RZBZu53EDgk2LQsuy0gUmjEL3WGf6ggQsYR3F5HOSmesgtE2-wLeLy6b96uNJnZlorpzvVvdvKXp3dtc-oO1LL9tgxd0pJx5eorfmMnvlnlu7]--></g></svg>