<?xml version="1.0" encoding="us-ascii" standalone="no"?><svg xmlns="http://www.w3.org/2000/svg" xmlns:xlink="http://www.w3.org/1999/xlink" contentStyleType="text/css" height="987px" preserveAspectRatio="none" style="width:1323px;height:987px;background:#FFFFFF;" version="1.1" viewBox="0 0 1323 987" width="1323px" zoomAndPan="magnify"><defs/><g><!--cluster Frontend (Angular 17)--><g id="cluster_Frontend (Angular 17)"><rect fill="#FFFFFF" height="453.23" rx="2.5" ry="2.5" style="stroke:#000000;stroke-width:1.0;" width="204" x="464" y="12"/><text fill="#000000" font-family="Arial" font-size="12" font-weight="bold" lengthAdjust="spacing" textLength="132" x="500" y="26.8281">Frontend (Angular 17)</text></g><!--cluster Backend (DLang + vibe.d)--><g id="cluster_Backend (DLang + vibe.d)"><rect fill="#FFFFFF" height="346.9" rx="2.5" ry="2.5" style="stroke:#000000;stroke-width:1.0;" width="355" x="289" y="505.23"/><text fill="#000000" font-family="Arial" font-size="12" font-weight="bold" lengthAdjust="spacing" textLength="151" x="391" y="520.0581">Backend (DLang + vibe.d)</text></g><!--cluster Database (SQLite)--><g id="cluster_Database (SQLite)"><rect fill="#FFFFFF" height="97.34" rx="2.5" ry="2.5" style="stroke:#000000;stroke-width:1.0;" width="781" x="12" y="884.13"/><text fill="#000000" font-family="Arial" font-size="12" font-weight="bold" lengthAdjust="spacing" textLength="106" x="349.5" y="898.9581">Database (SQLite)</text></g><!--cluster External Services--><g id="cluster_External Services"><path d="M676,741.78 C676,731.78 923.5,731.78 923.5,731.78 C923.5,731.78 1171,731.78 1171,741.78 L1171,834.13 C1171,844.13 923.5,844.13 923.5,844.13 C923.5,844.13 676,844.13 676,834.13 L676,741.78 " fill="#FFFFFF" style="stroke:#000000;stroke-width:1.0;"/><path d="M676,741.78 C676,751.78 923.5,751.78 923.5,751.78 C923.5,751.78 1171,751.78 1171,741.78 " fill="none" style="stroke:#000000;stroke-width:1.0;"/><text fill="#000000" font-family="Arial" font-size="12" font-weight="bold" lengthAdjust="spacing" textLength="102" x="872.5" y="766.6081">External Services</text></g><!--entity User Interface--><g id="elem_User Interface"><rect fill="#FFFFFF" height="46.3441" rx="2.5" ry="2.5" style="stroke:#000000;stroke-width:1.0;" width="121" x="501.5" y="55"/><rect fill="#FFFFFF" height="10" style="stroke:#000000;stroke-width:1.0;" width="15" x="602.5" y="60"/><rect fill="#FFFFFF" height="2" style="stroke:#000000;stroke-width:1.0;" width="4" x="600.5" y="62"/><rect fill="#FFFFFF" height="2" style="stroke:#000000;stroke-width:1.0;" width="4" x="600.5" y="66"/><text fill="#000000" font-family="Arial" font-size="12" lengthAdjust="spacing" textLength="81" x="516.5" y="87.8281">User Interface</text></g><!--entity Component Library--><g id="elem_Component Library"><rect fill="#FFFFFF" height="46.3441" rx="2.5" ry="2.5" style="stroke:#000000;stroke-width:1.0;" width="147" x="488.5" y="175.86"/><rect fill="#FFFFFF" height="10" style="stroke:#000000;stroke-width:1.0;" width="15" x="615.5" y="180.86"/><rect fill="#FFFFFF" height="2" style="stroke:#000000;stroke-width:1.0;" width="4" x="613.5" y="182.86"/><rect fill="#FFFFFF" height="2" style="stroke:#000000;stroke-width:1.0;" width="4" x="613.5" y="186.86"/><text fill="#000000" font-family="Arial" font-size="12" lengthAdjust="spacing" textLength="107" x="503.5" y="208.6881">Component Library</text></g><!--entity State Management--><g id="elem_State Management"><rect fill="#FFFFFF" height="46.3441" rx="2.5" ry="2.5" style="stroke:#000000;stroke-width:1.0;" width="147" x="488.5" y="282.2"/><rect fill="#FFFFFF" height="10" style="stroke:#000000;stroke-width:1.0;" width="15" x="615.5" y="287.2"/><rect fill="#FFFFFF" height="2" style="stroke:#000000;stroke-width:1.0;" width="4" x="613.5" y="289.2"/><rect fill="#FFFFFF" height="2" style="stroke:#000000;stroke-width:1.0;" width="4" x="613.5" y="293.2"/><text fill="#000000" font-family="Arial" font-size="12" lengthAdjust="spacing" textLength="107" x="503.5" y="315.0281">State Management</text></g><!--entity Service Layer--><g id="elem_Service Layer"><rect fill="#FFFFFF" height="46.3441" rx="2.5" ry="2.5" style="stroke:#000000;stroke-width:1.0;" width="115" x="504.5" y="394.89"/><rect fill="#FFFFFF" height="10" style="stroke:#000000;stroke-width:1.0;" width="15" x="599.5" y="399.89"/><rect fill="#FFFFFF" height="2" style="stroke:#000000;stroke-width:1.0;" width="4" x="597.5" y="401.89"/><rect fill="#FFFFFF" height="2" style="stroke:#000000;stroke-width:1.0;" width="4" x="597.5" y="405.89"/><text fill="#000000" font-family="Arial" font-size="12" lengthAdjust="spacing" textLength="75" x="519.5" y="427.7181">Service Layer</text></g><!--entity API Controllers--><g id="elem_API Controllers"><rect fill="#FFFFFF" height="46.3441" rx="2.5" ry="2.5" style="stroke:#000000;stroke-width:1.0;" width="124" x="477" y="548.23"/><rect fill="#FFFFFF" height="10" style="stroke:#000000;stroke-width:1.0;" width="15" x="581" y="553.23"/><rect fill="#FFFFFF" height="2" style="stroke:#000000;stroke-width:1.0;" width="4" x="579" y="555.23"/><rect fill="#FFFFFF" height="2" style="stroke:#000000;stroke-width:1.0;" width="4" x="579" y="559.23"/><text fill="#000000" font-family="Arial" font-size="12" lengthAdjust="spacing" textLength="84" x="492" y="581.0581">API Controllers</text></g><!--entity Business Logic--><g id="elem_Business Logic"><rect fill="#FFFFFF" height="46.3441" rx="2.5" ry="2.5" style="stroke:#000000;stroke-width:1.0;" width="122" x="490" y="669.09"/><rect fill="#FFFFFF" height="10" style="stroke:#000000;stroke-width:1.0;" width="15" x="592" y="674.09"/><rect fill="#FFFFFF" height="2" style="stroke:#000000;stroke-width:1.0;" width="4" x="590" y="676.09"/><rect fill="#FFFFFF" height="2" style="stroke:#000000;stroke-width:1.0;" width="4" x="590" y="680.09"/><text fill="#000000" font-family="Arial" font-size="12" lengthAdjust="spacing" textLength="82" x="505" y="701.9181">Business Logic</text></g><!--entity Authentication--><g id="elem_Authentication"><rect fill="#FFFFFF" height="46.3441" rx="2.5" ry="2.5" style="stroke:#000000;stroke-width:1.0;" width="121" x="490.5" y="781.78"/><rect fill="#FFFFFF" height="10" style="stroke:#000000;stroke-width:1.0;" width="15" x="591.5" y="786.78"/><rect fill="#FFFFFF" height="2" style="stroke:#000000;stroke-width:1.0;" width="4" x="589.5" y="788.78"/><rect fill="#FFFFFF" height="2" style="stroke:#000000;stroke-width:1.0;" width="4" x="589.5" y="792.78"/><text fill="#000000" font-family="Arial" font-size="12" lengthAdjust="spacing" textLength="81" x="505.5" y="814.6081">Authentication</text></g><!--entity Data Access Layer--><g id="elem_Data Access Layer"><rect fill="#FFFFFF" height="46.3441" rx="2.5" ry="2.5" style="stroke:#000000;stroke-width:1.0;" width="143" x="312.5" y="781.78"/><rect fill="#FFFFFF" height="10" style="stroke:#000000;stroke-width:1.0;" width="15" x="435.5" y="786.78"/><rect fill="#FFFFFF" height="2" style="stroke:#000000;stroke-width:1.0;" width="4" x="433.5" y="788.78"/><rect fill="#FFFFFF" height="2" style="stroke:#000000;stroke-width:1.0;" width="4" x="433.5" y="792.78"/><text fill="#000000" font-family="Arial" font-size="12" lengthAdjust="spacing" textLength="103" x="327.5" y="814.6081">Data Access Layer</text></g><!--entity Users Table--><g id="elem_Users Table"><rect fill="#FFFFFF" height="46.3441" rx="2.5" ry="2.5" style="stroke:#000000;stroke-width:1.0;" width="107" x="27.5" y="919.13"/><rect fill="#FFFFFF" height="10" style="stroke:#000000;stroke-width:1.0;" width="15" x="114.5" y="924.13"/><rect fill="#FFFFFF" height="2" style="stroke:#000000;stroke-width:1.0;" width="4" x="112.5" y="926.13"/><rect fill="#FFFFFF" height="2" style="stroke:#000000;stroke-width:1.0;" width="4" x="112.5" y="930.13"/><text fill="#000000" font-family="Arial" font-size="12" lengthAdjust="spacing" textLength="67" x="42.5" y="951.9581">Users Table</text></g><!--entity Products Table--><g id="elem_Products Table"><rect fill="#FFFFFF" height="46.3441" rx="2.5" ry="2.5" style="stroke:#000000;stroke-width:1.0;" width="123" x="169.5" y="919.13"/><rect fill="#FFFFFF" height="10" style="stroke:#000000;stroke-width:1.0;" width="15" x="272.5" y="924.13"/><rect fill="#FFFFFF" height="2" style="stroke:#000000;stroke-width:1.0;" width="4" x="270.5" y="926.13"/><rect fill="#FFFFFF" height="2" style="stroke:#000000;stroke-width:1.0;" width="4" x="270.5" y="930.13"/><text fill="#000000" font-family="Arial" font-size="12" lengthAdjust="spacing" textLength="83" x="184.5" y="951.9581">Products Table</text></g><!--entity Orders Table--><g id="elem_Orders Table"><rect fill="#FFFFFF" height="46.3441" rx="2.5" ry="2.5" style="stroke:#000000;stroke-width:1.0;" width="113" x="327.5" y="919.13"/><rect fill="#FFFFFF" height="10" style="stroke:#000000;stroke-width:1.0;" width="15" x="420.5" y="924.13"/><rect fill="#FFFFFF" height="2" style="stroke:#000000;stroke-width:1.0;" width="4" x="418.5" y="926.13"/><rect fill="#FFFFFF" height="2" style="stroke:#000000;stroke-width:1.0;" width="4" x="418.5" y="930.13"/><text fill="#000000" font-family="Arial" font-size="12" lengthAdjust="spacing" textLength="73" x="342.5" y="951.9581">Orders Table</text></g><!--entity Blog Posts Table--><g id="elem_Blog Posts Table"><rect fill="#FFFFFF" height="46.3441" rx="2.5" ry="2.5" style="stroke:#000000;stroke-width:1.0;" width="132" x="475" y="919.13"/><rect fill="#FFFFFF" height="10" style="stroke:#000000;stroke-width:1.0;" width="15" x="587" y="924.13"/><rect fill="#FFFFFF" height="2" style="stroke:#000000;stroke-width:1.0;" width="4" x="585" y="926.13"/><rect fill="#FFFFFF" height="2" style="stroke:#000000;stroke-width:1.0;" width="4" x="585" y="930.13"/><text fill="#000000" font-family="Arial" font-size="12" lengthAdjust="spacing" textLength="92" x="490" y="951.9581">Blog Posts Table</text></g><!--entity Comments Table--><g id="elem_Comments Table"><rect fill="#FFFFFF" height="46.3441" rx="2.5" ry="2.5" style="stroke:#000000;stroke-width:1.0;" width="135" x="641.5" y="919.13"/><rect fill="#FFFFFF" height="10" style="stroke:#000000;stroke-width:1.0;" width="15" x="756.5" y="924.13"/><rect fill="#FFFFFF" height="2" style="stroke:#000000;stroke-width:1.0;" width="4" x="754.5" y="926.13"/><rect fill="#FFFFFF" height="2" style="stroke:#000000;stroke-width:1.0;" width="4" x="754.5" y="930.13"/><text fill="#000000" font-family="Arial" font-size="12" lengthAdjust="spacing" textLength="95" x="656.5" y="951.9581">Comments Table</text></g><!--entity Stripe Payment API--><g id="elem_Stripe Payment API"><rect fill="#FFFFFF" height="46.3441" rx="2.5" ry="2.5" style="stroke:#000000;stroke-width:1.0;" width="147" x="692.5" y="781.78"/><rect fill="#FFFFFF" height="10" style="stroke:#000000;stroke-width:1.0;" width="15" x="819.5" y="786.78"/><rect fill="#FFFFFF" height="2" style="stroke:#000000;stroke-width:1.0;" width="4" x="817.5" y="788.78"/><rect fill="#FFFFFF" height="2" style="stroke:#000000;stroke-width:1.0;" width="4" x="817.5" y="792.78"/><text fill="#000000" font-family="Arial" font-size="12" lengthAdjust="spacing" textLength="107" x="707.5" y="814.6081">Stripe Payment API</text></g><!--entity Email Service--><g id="elem_Email Service"><rect fill="#FFFFFF" height="46.3441" rx="2.5" ry="2.5" style="stroke:#000000;stroke-width:1.0;" width="115" x="874.5" y="781.78"/><rect fill="#FFFFFF" height="10" style="stroke:#000000;stroke-width:1.0;" width="15" x="969.5" y="786.78"/><rect fill="#FFFFFF" height="2" style="stroke:#000000;stroke-width:1.0;" width="4" x="967.5" y="788.78"/><rect fill="#FFFFFF" height="2" style="stroke:#000000;stroke-width:1.0;" width="4" x="967.5" y="792.78"/><text fill="#000000" font-family="Arial" font-size="12" lengthAdjust="spacing" textLength="75" x="889.5" y="814.6081">Email Service</text></g><!--entity CDN for Images--><g id="elem_CDN for Images"><rect fill="#FFFFFF" height="46.3441" rx="2.5" ry="2.5" style="stroke:#000000;stroke-width:1.0;" width="130" x="1025" y="781.78"/><rect fill="#FFFFFF" height="10" style="stroke:#000000;stroke-width:1.0;" width="15" x="1135" y="786.78"/><rect fill="#FFFFFF" height="2" style="stroke:#000000;stroke-width:1.0;" width="4" x="1133" y="788.78"/><rect fill="#FFFFFF" height="2" style="stroke:#000000;stroke-width:1.0;" width="4" x="1133" y="792.78"/><text fill="#000000" font-family="Arial" font-size="12" lengthAdjust="spacing" textLength="90" x="1040" y="814.6081">CDN for Images</text></g><g id="elem_GMN37"><path d="M742.5,388.55 L742.5,414.06 L619.81,418.06 L742.5,422.06 L742.5,447.5823 A0,0 0 0 0 742.5,447.5823 L887.5,447.5823 A0,0 0 0 0 887.5,447.5823 L887.5,398.55 L877.5,388.55 L742.5,388.55 A0,0 0 0 0 742.5,388.55 " fill="#FFFFFF" style="stroke:#000000;stroke-width:1.0;"/><path d="M877.5,388.55 L877.5,398.55 L887.5,398.55 L877.5,388.55 " fill="#FFFFFF" style="stroke:#000000;stroke-width:1.0;"/><text fill="#000000" font-family="Arial" font-size="12" lengthAdjust="spacing" textLength="124" x="748.5" y="406.3781">HTTP/HTTPS REST API</text><text fill="#000000" font-family="Arial" font-size="12" lengthAdjust="spacing" textLength="119" x="748.5" y="422.7222">JSON Communication</text><text fill="#000000" font-family="Arial" font-size="12" lengthAdjust="spacing" textLength="105" x="748.5" y="439.0663">JWT Authentication</text></g><g id="elem_GMN40"><path d="M1190,775.44 L1190,834.4723 L1316,834.4723 L1316,785.44 L1306,775.44 L1190,775.44 " fill="#FFFFFF" style="stroke:#000000;stroke-width:1.0;"/><path d="M1306,775.44 L1306,785.44 L1316,785.44 L1306,775.44 " fill="#FFFFFF" style="stroke:#000000;stroke-width:1.0;"/><text fill="#000000" font-family="Arial" font-size="12" lengthAdjust="spacing" textLength="93" x="1196" y="793.2681">SQLite Database</text><text fill="#000000" font-family="Arial" font-size="12" lengthAdjust="spacing" textLength="104" x="1196" y="809.6122">ACID Transactions</text><text fill="#000000" font-family="Arial" font-size="12" lengthAdjust="spacing" textLength="105" x="1196" y="825.9563">Index Optimization</text></g><g id="elem_GMN43"><path d="M695.5,40.48 L695.5,115.8565 L826.5,115.8565 L826.5,50.48 L816.5,40.48 L695.5,40.48 " fill="#FFFFFF" style="stroke:#000000;stroke-width:1.0;"/><path d="M816.5,40.48 L816.5,50.48 L826.5,50.48 L816.5,40.48 " fill="#FFFFFF" style="stroke:#000000;stroke-width:1.0;"/><text fill="#000000" font-family="Arial" font-size="12" lengthAdjust="spacing" textLength="90" x="701.5" y="58.3081">Port: 4200 (Dev)</text><text fill="#000000" font-family="Arial" font-size="12" lengthAdjust="spacing" textLength="105" x="701.5" y="74.6522">Port: 80/443 (Prod)</text><text fill="#000000" font-family="Arial" font-size="12" lengthAdjust="spacing" textLength="110" x="701.5" y="90.9963">Angular Material UI</text><text fill="#000000" font-family="Arial" font-size="12" lengthAdjust="spacing" textLength="95" x="701.5" y="107.3404">TypeScript + RxJS</text></g><g id="elem_GMN46"><path d="M742.5,533.72 L742.5,609.0965 L841.5,609.0965 L841.5,543.72 L831.5,533.72 L742.5,533.72 " fill="#FFFFFF" style="stroke:#000000;stroke-width:1.0;"/><path d="M831.5,533.72 L831.5,543.72 L841.5,543.72 L831.5,533.72 " fill="#FFFFFF" style="stroke:#000000;stroke-width:1.0;"/><text fill="#000000" font-family="Arial" font-size="12" lengthAdjust="spacing" textLength="57" x="748.5" y="551.5481">Port: 8080</text><text fill="#000000" font-family="Arial" font-size="12" lengthAdjust="spacing" textLength="69" x="748.5" y="567.8922">JWT Security</text><text fill="#000000" font-family="Arial" font-size="12" lengthAdjust="spacing" textLength="72" x="748.5" y="584.2363">Rate Limiting</text><text fill="#000000" font-family="Arial" font-size="12" lengthAdjust="spacing" textLength="78" x="748.5" y="600.5804">CORS Support</text></g><!--link User Interface to Component Library--><g id="link_User Interface_Component Library"><path d="M562,101.81 C562,122.95 562,148.35 562,169.48 " fill="none" id="User Interface-to-Component Library" style="stroke:#000000;stroke-width:1.0;"/><polygon fill="#000000" points="562,175.48,566,166.48,562,170.48,558,166.48,562,175.48" style="stroke:#000000;stroke-width:1.0;"/></g><!--link Component Library to State Management--><g id="link_Component Library_State Management"><path d="M562,222.67 C562,240.17 562,258.29 562,275.78 " fill="none" id="Component Library-to-State Management" style="stroke:#000000;stroke-width:1.0;"/><polygon fill="#000000" points="562,281.78,566,272.78,562,276.78,558,272.78,562,281.78" style="stroke:#000000;stroke-width:1.0;"/></g><!--link State Management to Service Layer--><g id="link_State Management_Service Layer"><path d="M562,329.04 C562,348.14 562,369.33 562,388.43 " fill="none" id="State Management-to-Service Layer" style="stroke:#000000;stroke-width:1.0;"/><polygon fill="#000000" points="562,394.43,566,385.43,562,389.43,558,385.43,562,394.43" style="stroke:#000000;stroke-width:1.0;"/></g><!--link Service Layer to API Controllers--><g id="link_Service Layer_API Controllers"><path d="M557.6588,447.6519 C553.2988,476.3519 547.632,513.6182 543.292,542.1582 " fill="none" id="Service Layer-API Controllers" style="stroke:#000000;stroke-width:1.0;"/><polygon fill="#000000" points="558.56,441.72,553.2536,450.0171,557.809,446.6633,561.1629,451.2187,558.56,441.72" style="stroke:#000000;stroke-width:1.0;"/><polygon fill="#000000" points="542.39,548.09,547.6976,539.7936,543.1417,543.1468,539.7885,538.5909,542.39,548.09" style="stroke:#000000;stroke-width:1.0;"/></g><!--link API Controllers to Business Logic--><g id="link_API Controllers_Business Logic"><path d="M541.29,595.04 C543.42,616.19 545.9879,641.6203 548.1179,662.7403 " fill="none" id="API Controllers-to-Business Logic" style="stroke:#000000;stroke-width:1.0;"/><polygon fill="#000000" points="548.72,668.71,551.7967,659.3541,548.2183,663.7352,543.8371,660.1568,548.72,668.71" style="stroke:#000000;stroke-width:1.0;"/></g><!--link Business Logic to Authentication--><g id="link_Business Logic_Authentication"><path d="M551,715.93 C551,735.03 551,756.23 551,775.32 " fill="none" id="Business Logic-to-Authentication" style="stroke:#000000;stroke-width:1.0;"/><polygon fill="#000000" points="551,781.32,555,772.32,551,776.32,547,772.32,551,781.32" style="stroke:#000000;stroke-width:1.0;"/></g><!--link Business Logic to Data Access Layer--><g id="link_Business Logic_Data Access Layer"><path d="M489.5,714.86 C483.79,717.6 478.2,720.57 473,723.78 C446.99,739.84 425.6696,759.5755 408.6896,777.1455 " fill="none" id="Business Logic-to-Data Access Layer" style="stroke:#000000;stroke-width:1.0;"/><polygon fill="#000000" points="404.52,781.46,413.6507,777.768,407.9947,777.8646,407.8981,772.2086,404.52,781.46" style="stroke:#000000;stroke-width:1.0;"/></g><!--link Data Access Layer to Users Table--><g id="link_Data Access Layer_Users Table"><path d="M312.16,818.95 C264.54,829.62 201.9,847.68 152,876.13 C132.38,887.31 117.8298,900.468 104.5598,914.518 " fill="none" id="Data Access Layer-to-Users Table" style="stroke:#000000;stroke-width:1.0;"/><polygon fill="#000000" points="100.44,918.88,109.5277,915.0836,103.8732,915.245,103.7118,909.5905,100.44,918.88" style="stroke:#000000;stroke-width:1.0;"/></g><!--link Data Access Layer to Products Table--><g id="link_Data Access Layer_Products Table"><path d="M358.39,828.61 C330.06,853.67 289.1939,889.8245 260.9339,914.8245 " fill="none" id="Data Access Layer-to-Products Table" style="stroke:#000000;stroke-width:1.0;"/><polygon fill="#000000" points="256.44,918.8,265.8312,915.8327,260.1849,915.4871,260.5305,909.8408,256.44,918.8" style="stroke:#000000;stroke-width:1.0;"/></g><!--link Data Access Layer to Orders Table--><g id="link_Data Access Layer_Orders Table"><path d="M384,828.61 C384,853.74 384,888.04 384,913.02 " fill="none" id="Data Access Layer-to-Orders Table" style="stroke:#000000;stroke-width:1.0;"/><polygon fill="#000000" points="384,919.02,388,910.02,384,914.02,380,910.02,384,919.02" style="stroke:#000000;stroke-width:1.0;"/></g><!--link Data Access Layer to Blog Posts Table--><g id="link_Data Access Layer_Blog Posts Table"><path d="M410.28,828.61 C439.35,853.67 481.3555,889.8824 510.3555,914.8824 " fill="none" id="Data Access Layer-to-Blog Posts Table" style="stroke:#000000;stroke-width:1.0;"/><polygon fill="#000000" points="514.9,918.8,510.6951,909.8939,511.113,915.5353,505.4716,915.9532,514.9,918.8" style="stroke:#000000;stroke-width:1.0;"/></g><!--link Data Access Layer to Comments Table--><g id="link_Data Access Layer_Comments Table"><path d="M407.99,828.32 C424.81,842.51 448.58,859.73 473,868.13 C536.55,889.99 560.95,852.86 624,876.13 C648.42,885.14 667.1847,899.6737 683.1347,914.7137 " fill="none" id="Data Access Layer-to-Comments Table" style="stroke:#000000;stroke-width:1.0;"/><polygon fill="#000000" points="687.5,918.83,683.6962,909.7453,683.8622,915.3998,678.2078,915.5658,687.5,918.83" style="stroke:#000000;stroke-width:1.0;"/></g><!--link Business Logic to Stripe Payment API--><g id="link_Business Logic_Stripe Payment API"><path d="M610.66,715.88 C616.57,718.43 622.44,721.08 628,723.78 C663.9,741.2 697.9677,761.233 725.3777,778.193 " fill="none" id="Business Logic-to-Stripe Payment API" style="stroke:#000000;stroke-width:1.0;"/><polygon fill="#000000" points="730.48,781.35,724.9313,773.2129,726.2281,778.7191,720.7219,780.016,730.48,781.35" style="stroke:#000000;stroke-width:1.0;"/></g><!--link Business Logic to Email Service--><g id="link_Business Logic_Email Service"><path d="M612.35,707.16 C628.73,710.39 646.47,713.46 663,715.44 C684.42,718 837.4,714.77 857,723.78 C883.5,735.96 901.7236,757.267 914.8236,776.427 " fill="none" id="Business Logic-to-Email Service" style="stroke:#000000;stroke-width:1.0;"/><polygon fill="#000000" points="918.21,781.38,916.4323,771.6929,915.388,777.2525,909.8284,776.2081,918.21,781.38" style="stroke:#000000;stroke-width:1.0;"/></g><!--link Frontend (Angular 17) to CDN for Images--><g id="link_Frontend (Angular 17)_CDN for Images"><path d="M668.0252,117.7551 C668.1262,118.2809 668.2277,118.8111 668.3297,119.3455 C668.7378,121.4832 669.1538,123.6889 669.5762,125.9586 C671.2656,135.0371 673.0563,145.1372 674.84,155.9838 C681.975,199.37 689,254.7 689,304.37 C689,304.37 689,304.37 689,572.41 C689,595.25 706.02,596.37 725,609.09 C837.39,684.43 893.62,649.95 1007,723.78 C1031.68,739.85 1051.3807,759.4272 1067.0907,776.9972 " fill="none" id="Frontend (Angular 17)-to-CDN for Images" style="stroke:#000000;stroke-width:1.0;"/><polygon fill="#000000" points="1071.09,781.47,1068.0729,772.0946,1067.7573,777.7427,1062.1092,777.427,1071.09,781.47" style="stroke:#000000;stroke-width:1.0;"/></g><!--link Data Access Layer to GMN40--><g id="link_Data Access Layer_GMN40"><path d="M400.42,781.57 C419.05,757.9 451.91,724.15 490.5,719.61 C527.08,715.31 1116.92,715.31 1153.5,719.61 C1161.44,720.54 1164.01,719.9 1171,723.78 C1194.11,736.62 1215.19,757.8 1230.19,775.31 " fill="none" id="Data Access Layer-GMN40" style="stroke:#000000;stroke-width:1.0;stroke-dasharray:7.0,7.0;"/></g><!--link GMN43 to Frontend (Angular 17)--><g id="link_GMN43_Frontend (Angular 17)"><path d="M695.24,78.17 C689.495,78.17 683.7525,78.17 678.0113,78.17 C675.1406,78.17 672.2703,78.17 669.4002,78.17 C669.0414,78.17 668.6826,78.17 668.3239,78.17 C668.2342,78.17 668.1445,78.17 668.0548,78.17 " fill="none" id="GMN43-Frontend (Angular 17)" style="stroke:#000000;stroke-width:1.0;stroke-dasharray:7.0,7.0;"/></g><!--link Backend (DLang + vibe.d) to GMN46--><g id="link_Backend (DLang + vibe.d)_GMN46"><path d="M644.037,571.41 C644.312,571.41 644.5871,571.41 644.8622,571.41 C645.4123,571.41 645.9624,571.41 646.5126,571.41 C647.6128,571.41 648.7131,571.41 649.8133,571.41 C654.2143,571.41 658.6152,571.41 663.0159,571.41 C671.8175,571.41 680.6188,571.41 689.42,571.41 C707.0225,571.41 724.625,571.41 742.23,571.41 " fill="none" id="Backend (DLang + vibe.d)-GMN46" style="stroke:#000000;stroke-width:1.0;stroke-dasharray:7.0,7.0;"/></g><!--SRC=[TLNRJjj047ttLqnvAQYY18fKL5MLSaC51PB6GNr0F4piiRF2thLsrv1GyU-TZUsG-9A7A3vpl6SkPoUVx8fIWYn18JtpB6I66bD8bLJ1IYiEMPtJNiIiC5IlGiOGOMBs8o55c2VsMabxZ_nYNmjCskE-U2Cul_2yp-1lZAKKbYgN8Mf1njCKM9HnGd1qhPbCCeJZlepp13MSVpyvWdyUyEVnmP266oRe20DwAi2XIZCbILgOYAL6lIbntw8bk4E9CHSiRGMJVX41mGGtf9-yTszVVe31yrPzD644li2BMDBNy2E3_km6XfoYLab2sfHd3d8Z91a34nMBe0JxENTQMX6W5KgMu0WjGZy8jkIs31nXYORWsFyp4POEYpUmm6LILJxJAim3UmXETLZd3H8LmqoP6fCRv_go0z_TTCPhxgx41Ce-6I-iCZfgn7Qv-LQBZ6266tSYS9TAZN6AOiUlT4Vt42aUPCgJCQKkDrLo5xXJnglF6KvFVxNEkGKhkCtPDw6IUMW7hmR0poshCVO6KfnMDq8TA5XrPxIpMgpYjO05-S0SdQowOJg9XoRgf3MDrKcjcwsZw3OZjJDhpdfitHoLUCrnxBTjdb6YNW6bL1OBv_4l0YtYbGKLDSm1y7knc9svBn_cOt_XycFqrf_UWoimb-LC7VYNmmU3zbnsJi6hwxIC6g2u_r0j14RwmviHB3HAW-LD0Rub8QrXcbcHYhTMcOIYGgMzGtp6J6dx0oulUZrUVFHoieEkUcUNbz_WsFd6eTLxTtoLtAw71rV-OfEH7_3SB2_C-VhMxowqQxy-xKbUzShk-HJaMjWDFyxTtPrmYPR_X_XvE9txuETPnkzygFq7]--></g></svg>